G04 #@! TF.FileFunction,Soldermask,Bot*
%FSLAX46Y46*%
G04 Gerber Fmt 4.6, Leading zero omitted, Abs format (unit mm)*
G04 Created by KiCad (PCBNEW 4.0.1-stable) date Saturday, March 12, 2016 'PMt' 11:13:13 PM*
%MOMM*%
G01*
G04 APERTURE LIST*
%ADD10C,0.100000*%
%ADD11C,8.400000*%
%ADD12C,2.700000*%
%ADD13C,2.800000*%
%ADD14C,2.200000*%
%ADD15C,1.700000*%
%ADD16C,2.398980*%
%ADD17C,6.900000*%
%ADD18C,2.300000*%
%ADD19R,2.300000X2.400000*%
G04 APERTURE END LIST*
D10*
D11*
X50000000Y0D03*
D12*
X22060000Y20320000D03*
X22060000Y25400000D03*
X22060000Y-20320000D03*
X22060000Y-25400000D03*
X77940000Y27940000D03*
X77940000Y22860000D03*
X77940000Y-27940000D03*
X77940000Y-22860000D03*
D13*
X96500000Y-7500000D03*
X96500000Y-2500000D03*
X96500000Y2500000D03*
X96500000Y7500000D03*
D14*
X12100000Y9500000D03*
X3900000Y9500000D03*
X12100000Y4500000D03*
X3900000Y4500000D03*
D12*
X84350000Y17350000D03*
X84350000Y22950000D03*
X84350000Y28550000D03*
X84350000Y34150000D03*
X84350000Y-34150000D03*
X84350000Y-28550000D03*
X84350000Y-22950000D03*
X84350000Y-17350000D03*
D15*
X95000000Y28500000D03*
X95000000Y23500000D03*
X95000000Y-23500000D03*
X95000000Y-28500000D03*
D14*
X12100000Y-4500000D03*
X3900000Y-4500000D03*
X12100000Y-9500000D03*
X3900000Y-9500000D03*
X12100000Y-18500000D03*
X3900000Y-18500000D03*
X12100000Y-23500000D03*
X3900000Y-23500000D03*
D16*
X92080000Y11000000D03*
X81920000Y11000000D03*
X92080000Y-11000000D03*
X81920000Y-11000000D03*
D17*
X5000000Y-35000000D03*
X95000000Y-35000000D03*
X5000000Y35000000D03*
X95000000Y35000000D03*
D18*
X7460000Y22000000D03*
X12540000Y22000000D03*
D19*
X86000000Y-5000000D03*
D18*
X88540000Y-5000000D03*
D19*
X86000000Y5000000D03*
D18*
X88540000Y5000000D03*
M02*
