M48
INCH,TZ
T1C0.016
T2C0.030
T3C0.043
T4C0.047
T5C0.055
T6C0.059
T7C0.063
T8C0.122
T9C0.165
T10C0.142
%
G90
G05
T1
X60827Y-23031
X60827Y-23819
X60827Y-24606
X60827Y-51378
X60827Y-52165
X60827Y-52953
X61614Y-23031
X61614Y-23819
X61614Y-24606
X61614Y-51378
X61614Y-52165
X61614Y-52953
X62402Y-23031
X62402Y-23819
X62402Y-24606
X62402Y-51378
X62402Y-52165
X62402Y-52953
X63189Y-23031
X63189Y-23819
X63189Y-24606
X63189Y-51378
X63189Y-52165
X63189Y-52953
X65157Y-32480
X65157Y-33268
X65157Y-34055
X65157Y-43504
X65157Y-44291
X65157Y-45079
X65945Y-32480
X65945Y-33268
X65945Y-34055
X65945Y-43504
X65945Y-44291
X65945Y-45079
X66732Y-32480
X66732Y-33268
X66732Y-34055
X66732Y-43504
X66732Y-44291
X66732Y-45079
X67520Y-32480
X67520Y-33268
X67520Y-34055
X67520Y-43504
X67520Y-44291
X67520Y-45079
X70276Y-37205
X70276Y-37992
X70276Y-38780
X71063Y-37205
X71063Y-37992
X71063Y-38780
X71850Y-37205
X71850Y-37992
X71850Y-38780
T2
X75866Y-27854
X75866Y-28839
X75866Y-30807
X75866Y-45177
X75866Y-46161
X75866Y-48130
T3
X42323Y-27346
X42323Y-29346
T4
X76024Y-34547
X76024Y-35925
X76024Y-37303
X76024Y-38681
X76024Y-40059
X76024Y-41437
T5
X45472Y-23606
X45472Y-25606
X49409Y-23606
X49409Y-25606
X53346Y-23606
X53346Y-25606
T6
X49449Y-28819
X49449Y-30819
X49449Y-46819
X49449Y-48819
X71449Y-27819
X71449Y-29819
X71449Y-47819
X71449Y-49819
T7
X47165Y-36791
X47165Y-40354
X47165Y-43917
T8
X41929Y-24213
X41929Y-51772
X77362Y-24213
X77362Y-51772
T9
X60449Y-38819
T10
X43346Y-32480
X43346Y-48228
T0
M30
