G04 #@! TF.FileFunction,Copper,L2,Bot,Signal*
%FSLAX46Y46*%
G04 Gerber Fmt 4.6, Leading zero omitted, Abs format (unit mm)*
G04 Created by KiCad (PCBNEW 4.0.2-stable) date Monday, August 15, 2016 'AMt' 09:37:36 AM*
%MOMM*%
G01*
G04 APERTURE LIST*
%ADD10C,0.100000*%
%ADD11C,8.000000*%
%ADD12C,2.300000*%
%ADD13C,1.500000*%
%ADD14R,1.500000X1.500000*%
%ADD15C,0.700000*%
%ADD16O,2.400000X3.400000*%
%ADD17C,2.600000*%
%ADD18C,1.900000*%
%ADD19C,6.500000*%
%ADD20C,2.400000*%
%ADD21C,2.000000*%
%ADD22C,0.254000*%
G04 APERTURE END LIST*
D10*
D11*
X153540000Y-98600000D03*
D12*
X125600000Y-78280000D03*
X125600000Y-73200000D03*
X125600000Y-118920000D03*
X125600000Y-124000000D03*
X181480000Y-70660000D03*
X181480000Y-75740000D03*
X181480000Y-126540000D03*
X181480000Y-121460000D03*
D13*
X192700000Y-70750000D03*
D14*
X192700000Y-78250000D03*
D13*
X192700000Y-73250000D03*
D15*
X171500000Y-86500000D03*
X169500000Y-86500000D03*
X167500000Y-86500000D03*
X165500000Y-86500000D03*
X171500000Y-110500000D03*
X169500000Y-110500000D03*
X167500000Y-110500000D03*
X165500000Y-110500000D03*
X182500000Y-98500000D03*
X182500000Y-96500000D03*
X180500000Y-96500000D03*
X180500000Y-98500000D03*
X180500000Y-94500000D03*
X182500000Y-94500000D03*
X178500000Y-94500000D03*
X178500000Y-98500000D03*
X178500000Y-96500000D03*
X165500000Y-112500000D03*
X165500000Y-114500000D03*
X167500000Y-112500000D03*
X167500000Y-114500000D03*
X169500000Y-112500000D03*
X169500000Y-114500000D03*
X171500000Y-112500000D03*
X171500000Y-114500000D03*
X165500000Y-82500000D03*
X165500000Y-84500000D03*
X167500000Y-82500000D03*
X169500000Y-84500000D03*
X167500000Y-84500000D03*
X169500000Y-82500000D03*
X171500000Y-82500000D03*
X171500000Y-84500000D03*
X154500000Y-58500000D03*
X154500000Y-60500000D03*
X154500000Y-62500000D03*
X156500000Y-58500000D03*
X156500000Y-60500000D03*
X158500000Y-62500000D03*
X156500000Y-62500000D03*
X158500000Y-58500000D03*
X158500000Y-60500000D03*
X160500000Y-58500000D03*
X160500000Y-60500000D03*
X160500000Y-62500000D03*
X158500000Y-130500000D03*
X156500000Y-130500000D03*
X154500000Y-130500000D03*
X154500000Y-132500000D03*
X156500000Y-132500000D03*
X158500000Y-132500000D03*
X160500000Y-130500000D03*
X160500000Y-132500000D03*
X160500000Y-134500000D03*
X158500000Y-134500000D03*
X156500000Y-134500000D03*
X154500000Y-134500000D03*
D16*
X135500000Y-65040000D03*
X135500000Y-59960000D03*
X125500000Y-65040000D03*
X125500000Y-59960000D03*
X115500000Y-65040000D03*
X115500000Y-59960000D03*
D17*
X119800000Y-93450000D03*
X119800000Y-102500000D03*
X119800000Y-111550000D03*
D18*
X107500000Y-74540000D03*
X107500000Y-69460000D03*
D19*
X106500000Y-131500000D03*
X196500000Y-131500000D03*
X106500000Y-61500000D03*
X196500000Y-61500000D03*
D20*
X193100000Y-101750000D03*
X193100000Y-105250000D03*
X193100000Y-98250000D03*
X193100000Y-94750000D03*
X193100000Y-91250000D03*
X193100000Y-87750000D03*
D13*
X192700000Y-114750000D03*
D14*
X192700000Y-122250000D03*
D13*
X192700000Y-117250000D03*
D21*
X115500000Y-59960000D02*
X115500000Y-65040000D01*
X107500000Y-69460000D02*
X113460000Y-69460000D01*
X113460000Y-69460000D02*
X115500000Y-67420000D01*
X115500000Y-67420000D02*
X115500000Y-65040000D01*
X119800000Y-78700000D02*
X119800000Y-93450000D01*
X115640000Y-74540000D02*
X119800000Y-78700000D01*
X107500000Y-74540000D02*
X115640000Y-74540000D01*
X119800000Y-111550000D02*
X118500001Y-112849999D01*
X118500001Y-112849999D02*
X118500001Y-118526346D01*
X118500001Y-118526346D02*
X123973655Y-124000000D01*
X123973655Y-124000000D02*
X125600000Y-124000000D01*
X135500000Y-65040000D02*
X135500000Y-116800000D01*
X135500000Y-116800000D02*
X128300000Y-124000000D01*
X128300000Y-124000000D02*
X125600000Y-124000000D01*
X119800000Y-111550000D02*
X125600000Y-105750000D01*
X125600000Y-105750000D02*
X125600000Y-78280000D01*
X135500000Y-65080000D02*
X135500000Y-60000000D01*
X130600000Y-113920000D02*
X130600000Y-76573655D01*
X130600000Y-76573655D02*
X127226345Y-73200000D01*
X127226345Y-73200000D02*
X125600000Y-73200000D01*
X125600000Y-118920000D02*
X130600000Y-113920000D01*
X125500000Y-65040000D02*
X125500000Y-73100000D01*
X125500000Y-73100000D02*
X125600000Y-73200000D01*
X125500000Y-59960000D02*
X125500000Y-65040000D01*
D22*
G36*
X194023868Y-57787197D02*
X192791524Y-59017392D01*
X192123762Y-60625541D01*
X192122242Y-62366819D01*
X192787197Y-63976132D01*
X194017392Y-65208476D01*
X195625541Y-65876238D01*
X197366819Y-65877758D01*
X198976132Y-65212803D01*
X200208476Y-63982608D01*
X200373000Y-63586390D01*
X200373000Y-129411574D01*
X200212803Y-129023868D01*
X198982608Y-127791524D01*
X197374459Y-127123762D01*
X195633181Y-127122242D01*
X194023868Y-127787197D01*
X192791524Y-129017392D01*
X192123762Y-130625541D01*
X192122242Y-132366819D01*
X192787197Y-133976132D01*
X194017392Y-135208476D01*
X194413610Y-135373000D01*
X153627000Y-135373000D01*
X153627000Y-126921622D01*
X179552666Y-126921622D01*
X179845416Y-127630132D01*
X180387017Y-128172678D01*
X181095014Y-128466665D01*
X181861622Y-128467334D01*
X182570132Y-128174584D01*
X183112678Y-127632983D01*
X183406665Y-126924986D01*
X183407334Y-126158378D01*
X183114584Y-125449868D01*
X182572983Y-124907322D01*
X181864986Y-124613335D01*
X181098378Y-124612666D01*
X180389868Y-124905416D01*
X179847322Y-125447017D01*
X179553335Y-126155014D01*
X179552666Y-126921622D01*
X153627000Y-126921622D01*
X153627000Y-121841622D01*
X179552666Y-121841622D01*
X179845416Y-122550132D01*
X180387017Y-123092678D01*
X181095014Y-123386665D01*
X181861622Y-123387334D01*
X182570132Y-123094584D01*
X183112678Y-122552983D01*
X183119833Y-122535750D01*
X191315000Y-122535750D01*
X191315000Y-123126309D01*
X191411673Y-123359698D01*
X191590301Y-123538327D01*
X191823690Y-123635000D01*
X192414250Y-123635000D01*
X192573000Y-123476250D01*
X192573000Y-122377000D01*
X192827000Y-122377000D01*
X192827000Y-123476250D01*
X192985750Y-123635000D01*
X193576310Y-123635000D01*
X193809699Y-123538327D01*
X193988327Y-123359698D01*
X194085000Y-123126309D01*
X194085000Y-122535750D01*
X193926250Y-122377000D01*
X192827000Y-122377000D01*
X192573000Y-122377000D01*
X191473750Y-122377000D01*
X191315000Y-122535750D01*
X183119833Y-122535750D01*
X183406665Y-121844986D01*
X183407076Y-121373691D01*
X191315000Y-121373691D01*
X191315000Y-121964250D01*
X191473750Y-122123000D01*
X192573000Y-122123000D01*
X192573000Y-121023750D01*
X192827000Y-121023750D01*
X192827000Y-122123000D01*
X193926250Y-122123000D01*
X194085000Y-121964250D01*
X194085000Y-121373691D01*
X193988327Y-121140302D01*
X193809699Y-120961673D01*
X193576310Y-120865000D01*
X192985750Y-120865000D01*
X192827000Y-121023750D01*
X192573000Y-121023750D01*
X192414250Y-120865000D01*
X191823690Y-120865000D01*
X191590301Y-120961673D01*
X191411673Y-121140302D01*
X191315000Y-121373691D01*
X183407076Y-121373691D01*
X183407334Y-121078378D01*
X183114584Y-120369868D01*
X182572983Y-119827322D01*
X181864986Y-119533335D01*
X181098378Y-119532666D01*
X180389868Y-119825416D01*
X179847322Y-120367017D01*
X179553335Y-121075014D01*
X179552666Y-121841622D01*
X153627000Y-121841622D01*
X153627000Y-115052407D01*
X191172735Y-115052407D01*
X191404717Y-115613846D01*
X191790494Y-116000297D01*
X191406227Y-116383894D01*
X191173265Y-116944928D01*
X191172735Y-117552407D01*
X191404717Y-118113846D01*
X191833894Y-118543773D01*
X192394928Y-118776735D01*
X193002407Y-118777265D01*
X193563846Y-118545283D01*
X193993773Y-118116106D01*
X194226735Y-117555072D01*
X194227265Y-116947593D01*
X193995283Y-116386154D01*
X193609506Y-115999703D01*
X193993773Y-115616106D01*
X194226735Y-115055072D01*
X194227265Y-114447593D01*
X193995283Y-113886154D01*
X193566106Y-113456227D01*
X193005072Y-113223265D01*
X192397593Y-113222735D01*
X191836154Y-113454717D01*
X191406227Y-113883894D01*
X191173265Y-114444928D01*
X191172735Y-115052407D01*
X153627000Y-115052407D01*
X153627000Y-103727078D01*
X154555349Y-103727888D01*
X156440418Y-102948994D01*
X157249298Y-102141524D01*
X191122657Y-102141524D01*
X191423003Y-102868418D01*
X191978657Y-103425042D01*
X192158721Y-103499811D01*
X191981582Y-103573003D01*
X191424958Y-104128657D01*
X191123344Y-104855025D01*
X191122657Y-105641524D01*
X191423003Y-106368418D01*
X191978657Y-106925042D01*
X192705025Y-107226656D01*
X193491524Y-107227343D01*
X194218418Y-106926997D01*
X194775042Y-106371343D01*
X195076656Y-105644975D01*
X195077343Y-104858476D01*
X194776997Y-104131582D01*
X194221343Y-103574958D01*
X194041279Y-103500189D01*
X194218418Y-103426997D01*
X194775042Y-102871343D01*
X195076656Y-102144975D01*
X195077343Y-101358476D01*
X194776997Y-100631582D01*
X194221343Y-100074958D01*
X193868414Y-99928409D01*
X194094435Y-99834788D01*
X194217570Y-99547175D01*
X193100000Y-98429605D01*
X191982430Y-99547175D01*
X192105565Y-99834788D01*
X192341002Y-99924494D01*
X191981582Y-100073003D01*
X191424958Y-100628657D01*
X191123344Y-101355025D01*
X191122657Y-102141524D01*
X157249298Y-102141524D01*
X157883925Y-101508004D01*
X158666108Y-99624297D01*
X158667579Y-97937734D01*
X191255293Y-97937734D01*
X191276214Y-98667443D01*
X191515212Y-99244435D01*
X191802825Y-99367570D01*
X192920395Y-98250000D01*
X193279605Y-98250000D01*
X194397175Y-99367570D01*
X194684788Y-99244435D01*
X194944707Y-98562266D01*
X194923786Y-97832557D01*
X194684788Y-97255565D01*
X194397175Y-97132430D01*
X193279605Y-98250000D01*
X192920395Y-98250000D01*
X191802825Y-97132430D01*
X191515212Y-97255565D01*
X191255293Y-97937734D01*
X158667579Y-97937734D01*
X158667888Y-97584651D01*
X158032617Y-96047175D01*
X191982430Y-96047175D01*
X192105565Y-96334788D01*
X192521071Y-96493104D01*
X192105565Y-96665212D01*
X191982430Y-96952825D01*
X193100000Y-98070395D01*
X194217570Y-96952825D01*
X194094435Y-96665212D01*
X193678929Y-96506896D01*
X194094435Y-96334788D01*
X194217570Y-96047175D01*
X193100000Y-94929605D01*
X191982430Y-96047175D01*
X158032617Y-96047175D01*
X157888994Y-95699582D01*
X156629347Y-94437734D01*
X191255293Y-94437734D01*
X191276214Y-95167443D01*
X191515212Y-95744435D01*
X191802825Y-95867570D01*
X192920395Y-94750000D01*
X193279605Y-94750000D01*
X194397175Y-95867570D01*
X194684788Y-95744435D01*
X194944707Y-95062266D01*
X194923786Y-94332557D01*
X194684788Y-93755565D01*
X194397175Y-93632430D01*
X193279605Y-94750000D01*
X192920395Y-94750000D01*
X191802825Y-93632430D01*
X191515212Y-93755565D01*
X191255293Y-94437734D01*
X156629347Y-94437734D01*
X156448004Y-94256075D01*
X154564297Y-93473892D01*
X153627000Y-93473074D01*
X153627000Y-88141524D01*
X191122657Y-88141524D01*
X191423003Y-88868418D01*
X191978657Y-89425042D01*
X192158721Y-89499811D01*
X191981582Y-89573003D01*
X191424958Y-90128657D01*
X191123344Y-90855025D01*
X191122657Y-91641524D01*
X191423003Y-92368418D01*
X191978657Y-92925042D01*
X192331586Y-93071591D01*
X192105565Y-93165212D01*
X191982430Y-93452825D01*
X193100000Y-94570395D01*
X194217570Y-93452825D01*
X194094435Y-93165212D01*
X193858998Y-93075506D01*
X194218418Y-92926997D01*
X194775042Y-92371343D01*
X195076656Y-91644975D01*
X195077343Y-90858476D01*
X194776997Y-90131582D01*
X194221343Y-89574958D01*
X194041279Y-89500189D01*
X194218418Y-89426997D01*
X194775042Y-88871343D01*
X195076656Y-88144975D01*
X195077343Y-87358476D01*
X194776997Y-86631582D01*
X194221343Y-86074958D01*
X193494975Y-85773344D01*
X192708476Y-85772657D01*
X191981582Y-86073003D01*
X191424958Y-86628657D01*
X191123344Y-87355025D01*
X191122657Y-88141524D01*
X153627000Y-88141524D01*
X153627000Y-76121622D01*
X179552666Y-76121622D01*
X179845416Y-76830132D01*
X180387017Y-77372678D01*
X181095014Y-77666665D01*
X181861622Y-77667334D01*
X182266601Y-77500000D01*
X191157778Y-77500000D01*
X191157778Y-79000000D01*
X191211957Y-79287939D01*
X191382129Y-79552393D01*
X191641781Y-79729806D01*
X191950000Y-79792222D01*
X193450000Y-79792222D01*
X193737939Y-79738043D01*
X194002393Y-79567871D01*
X194179806Y-79308219D01*
X194242222Y-79000000D01*
X194242222Y-77500000D01*
X194188043Y-77212061D01*
X194017871Y-76947607D01*
X193758219Y-76770194D01*
X193450000Y-76707778D01*
X191950000Y-76707778D01*
X191662061Y-76761957D01*
X191397607Y-76932129D01*
X191220194Y-77191781D01*
X191157778Y-77500000D01*
X182266601Y-77500000D01*
X182570132Y-77374584D01*
X183112678Y-76832983D01*
X183406665Y-76124986D01*
X183407334Y-75358378D01*
X183114584Y-74649868D01*
X182686980Y-74221517D01*
X191908088Y-74221517D01*
X191976077Y-74462460D01*
X192495171Y-74647201D01*
X193045448Y-74619230D01*
X193423923Y-74462460D01*
X193491912Y-74221517D01*
X192700000Y-73429605D01*
X191908088Y-74221517D01*
X182686980Y-74221517D01*
X182572983Y-74107322D01*
X181864986Y-73813335D01*
X181098378Y-73812666D01*
X180389868Y-74105416D01*
X179847322Y-74647017D01*
X179553335Y-75355014D01*
X179552666Y-76121622D01*
X153627000Y-76121622D01*
X153627000Y-73045171D01*
X191302799Y-73045171D01*
X191330770Y-73595448D01*
X191487540Y-73973923D01*
X191728483Y-74041912D01*
X192520395Y-73250000D01*
X192879605Y-73250000D01*
X193671517Y-74041912D01*
X193912460Y-73973923D01*
X194097201Y-73454829D01*
X194069230Y-72904552D01*
X193912460Y-72526077D01*
X193671517Y-72458088D01*
X192879605Y-73250000D01*
X192520395Y-73250000D01*
X191728483Y-72458088D01*
X191487540Y-72526077D01*
X191302799Y-73045171D01*
X153627000Y-73045171D01*
X153627000Y-71041622D01*
X179552666Y-71041622D01*
X179845416Y-71750132D01*
X180387017Y-72292678D01*
X181095014Y-72586665D01*
X181861622Y-72587334D01*
X182570132Y-72294584D01*
X183112678Y-71752983D01*
X183125743Y-71721517D01*
X191908088Y-71721517D01*
X191976077Y-71962460D01*
X192073570Y-71997157D01*
X191976077Y-72037540D01*
X191908088Y-72278483D01*
X192700000Y-73070395D01*
X193491912Y-72278483D01*
X193423923Y-72037540D01*
X193326430Y-72002843D01*
X193423923Y-71962460D01*
X193491912Y-71721517D01*
X192700000Y-70929605D01*
X191908088Y-71721517D01*
X183125743Y-71721517D01*
X183406665Y-71044986D01*
X183407101Y-70545171D01*
X191302799Y-70545171D01*
X191330770Y-71095448D01*
X191487540Y-71473923D01*
X191728483Y-71541912D01*
X192520395Y-70750000D01*
X192879605Y-70750000D01*
X193671517Y-71541912D01*
X193912460Y-71473923D01*
X194097201Y-70954829D01*
X194069230Y-70404552D01*
X193912460Y-70026077D01*
X193671517Y-69958088D01*
X192879605Y-70750000D01*
X192520395Y-70750000D01*
X191728483Y-69958088D01*
X191487540Y-70026077D01*
X191302799Y-70545171D01*
X183407101Y-70545171D01*
X183407334Y-70278378D01*
X183200782Y-69778483D01*
X191908088Y-69778483D01*
X192700000Y-70570395D01*
X193491912Y-69778483D01*
X193423923Y-69537540D01*
X192904829Y-69352799D01*
X192354552Y-69380770D01*
X191976077Y-69537540D01*
X191908088Y-69778483D01*
X183200782Y-69778483D01*
X183114584Y-69569868D01*
X182572983Y-69027322D01*
X181864986Y-68733335D01*
X181098378Y-68732666D01*
X180389868Y-69025416D01*
X179847322Y-69567017D01*
X179553335Y-70275014D01*
X179552666Y-71041622D01*
X153627000Y-71041622D01*
X153627000Y-57627000D01*
X194411574Y-57627000D01*
X194023868Y-57787197D01*
X194023868Y-57787197D01*
G37*
X194023868Y-57787197D02*
X192791524Y-59017392D01*
X192123762Y-60625541D01*
X192122242Y-62366819D01*
X192787197Y-63976132D01*
X194017392Y-65208476D01*
X195625541Y-65876238D01*
X197366819Y-65877758D01*
X198976132Y-65212803D01*
X200208476Y-63982608D01*
X200373000Y-63586390D01*
X200373000Y-129411574D01*
X200212803Y-129023868D01*
X198982608Y-127791524D01*
X197374459Y-127123762D01*
X195633181Y-127122242D01*
X194023868Y-127787197D01*
X192791524Y-129017392D01*
X192123762Y-130625541D01*
X192122242Y-132366819D01*
X192787197Y-133976132D01*
X194017392Y-135208476D01*
X194413610Y-135373000D01*
X153627000Y-135373000D01*
X153627000Y-126921622D01*
X179552666Y-126921622D01*
X179845416Y-127630132D01*
X180387017Y-128172678D01*
X181095014Y-128466665D01*
X181861622Y-128467334D01*
X182570132Y-128174584D01*
X183112678Y-127632983D01*
X183406665Y-126924986D01*
X183407334Y-126158378D01*
X183114584Y-125449868D01*
X182572983Y-124907322D01*
X181864986Y-124613335D01*
X181098378Y-124612666D01*
X180389868Y-124905416D01*
X179847322Y-125447017D01*
X179553335Y-126155014D01*
X179552666Y-126921622D01*
X153627000Y-126921622D01*
X153627000Y-121841622D01*
X179552666Y-121841622D01*
X179845416Y-122550132D01*
X180387017Y-123092678D01*
X181095014Y-123386665D01*
X181861622Y-123387334D01*
X182570132Y-123094584D01*
X183112678Y-122552983D01*
X183119833Y-122535750D01*
X191315000Y-122535750D01*
X191315000Y-123126309D01*
X191411673Y-123359698D01*
X191590301Y-123538327D01*
X191823690Y-123635000D01*
X192414250Y-123635000D01*
X192573000Y-123476250D01*
X192573000Y-122377000D01*
X192827000Y-122377000D01*
X192827000Y-123476250D01*
X192985750Y-123635000D01*
X193576310Y-123635000D01*
X193809699Y-123538327D01*
X193988327Y-123359698D01*
X194085000Y-123126309D01*
X194085000Y-122535750D01*
X193926250Y-122377000D01*
X192827000Y-122377000D01*
X192573000Y-122377000D01*
X191473750Y-122377000D01*
X191315000Y-122535750D01*
X183119833Y-122535750D01*
X183406665Y-121844986D01*
X183407076Y-121373691D01*
X191315000Y-121373691D01*
X191315000Y-121964250D01*
X191473750Y-122123000D01*
X192573000Y-122123000D01*
X192573000Y-121023750D01*
X192827000Y-121023750D01*
X192827000Y-122123000D01*
X193926250Y-122123000D01*
X194085000Y-121964250D01*
X194085000Y-121373691D01*
X193988327Y-121140302D01*
X193809699Y-120961673D01*
X193576310Y-120865000D01*
X192985750Y-120865000D01*
X192827000Y-121023750D01*
X192573000Y-121023750D01*
X192414250Y-120865000D01*
X191823690Y-120865000D01*
X191590301Y-120961673D01*
X191411673Y-121140302D01*
X191315000Y-121373691D01*
X183407076Y-121373691D01*
X183407334Y-121078378D01*
X183114584Y-120369868D01*
X182572983Y-119827322D01*
X181864986Y-119533335D01*
X181098378Y-119532666D01*
X180389868Y-119825416D01*
X179847322Y-120367017D01*
X179553335Y-121075014D01*
X179552666Y-121841622D01*
X153627000Y-121841622D01*
X153627000Y-115052407D01*
X191172735Y-115052407D01*
X191404717Y-115613846D01*
X191790494Y-116000297D01*
X191406227Y-116383894D01*
X191173265Y-116944928D01*
X191172735Y-117552407D01*
X191404717Y-118113846D01*
X191833894Y-118543773D01*
X192394928Y-118776735D01*
X193002407Y-118777265D01*
X193563846Y-118545283D01*
X193993773Y-118116106D01*
X194226735Y-117555072D01*
X194227265Y-116947593D01*
X193995283Y-116386154D01*
X193609506Y-115999703D01*
X193993773Y-115616106D01*
X194226735Y-115055072D01*
X194227265Y-114447593D01*
X193995283Y-113886154D01*
X193566106Y-113456227D01*
X193005072Y-113223265D01*
X192397593Y-113222735D01*
X191836154Y-113454717D01*
X191406227Y-113883894D01*
X191173265Y-114444928D01*
X191172735Y-115052407D01*
X153627000Y-115052407D01*
X153627000Y-103727078D01*
X154555349Y-103727888D01*
X156440418Y-102948994D01*
X157249298Y-102141524D01*
X191122657Y-102141524D01*
X191423003Y-102868418D01*
X191978657Y-103425042D01*
X192158721Y-103499811D01*
X191981582Y-103573003D01*
X191424958Y-104128657D01*
X191123344Y-104855025D01*
X191122657Y-105641524D01*
X191423003Y-106368418D01*
X191978657Y-106925042D01*
X192705025Y-107226656D01*
X193491524Y-107227343D01*
X194218418Y-106926997D01*
X194775042Y-106371343D01*
X195076656Y-105644975D01*
X195077343Y-104858476D01*
X194776997Y-104131582D01*
X194221343Y-103574958D01*
X194041279Y-103500189D01*
X194218418Y-103426997D01*
X194775042Y-102871343D01*
X195076656Y-102144975D01*
X195077343Y-101358476D01*
X194776997Y-100631582D01*
X194221343Y-100074958D01*
X193868414Y-99928409D01*
X194094435Y-99834788D01*
X194217570Y-99547175D01*
X193100000Y-98429605D01*
X191982430Y-99547175D01*
X192105565Y-99834788D01*
X192341002Y-99924494D01*
X191981582Y-100073003D01*
X191424958Y-100628657D01*
X191123344Y-101355025D01*
X191122657Y-102141524D01*
X157249298Y-102141524D01*
X157883925Y-101508004D01*
X158666108Y-99624297D01*
X158667579Y-97937734D01*
X191255293Y-97937734D01*
X191276214Y-98667443D01*
X191515212Y-99244435D01*
X191802825Y-99367570D01*
X192920395Y-98250000D01*
X193279605Y-98250000D01*
X194397175Y-99367570D01*
X194684788Y-99244435D01*
X194944707Y-98562266D01*
X194923786Y-97832557D01*
X194684788Y-97255565D01*
X194397175Y-97132430D01*
X193279605Y-98250000D01*
X192920395Y-98250000D01*
X191802825Y-97132430D01*
X191515212Y-97255565D01*
X191255293Y-97937734D01*
X158667579Y-97937734D01*
X158667888Y-97584651D01*
X158032617Y-96047175D01*
X191982430Y-96047175D01*
X192105565Y-96334788D01*
X192521071Y-96493104D01*
X192105565Y-96665212D01*
X191982430Y-96952825D01*
X193100000Y-98070395D01*
X194217570Y-96952825D01*
X194094435Y-96665212D01*
X193678929Y-96506896D01*
X194094435Y-96334788D01*
X194217570Y-96047175D01*
X193100000Y-94929605D01*
X191982430Y-96047175D01*
X158032617Y-96047175D01*
X157888994Y-95699582D01*
X156629347Y-94437734D01*
X191255293Y-94437734D01*
X191276214Y-95167443D01*
X191515212Y-95744435D01*
X191802825Y-95867570D01*
X192920395Y-94750000D01*
X193279605Y-94750000D01*
X194397175Y-95867570D01*
X194684788Y-95744435D01*
X194944707Y-95062266D01*
X194923786Y-94332557D01*
X194684788Y-93755565D01*
X194397175Y-93632430D01*
X193279605Y-94750000D01*
X192920395Y-94750000D01*
X191802825Y-93632430D01*
X191515212Y-93755565D01*
X191255293Y-94437734D01*
X156629347Y-94437734D01*
X156448004Y-94256075D01*
X154564297Y-93473892D01*
X153627000Y-93473074D01*
X153627000Y-88141524D01*
X191122657Y-88141524D01*
X191423003Y-88868418D01*
X191978657Y-89425042D01*
X192158721Y-89499811D01*
X191981582Y-89573003D01*
X191424958Y-90128657D01*
X191123344Y-90855025D01*
X191122657Y-91641524D01*
X191423003Y-92368418D01*
X191978657Y-92925042D01*
X192331586Y-93071591D01*
X192105565Y-93165212D01*
X191982430Y-93452825D01*
X193100000Y-94570395D01*
X194217570Y-93452825D01*
X194094435Y-93165212D01*
X193858998Y-93075506D01*
X194218418Y-92926997D01*
X194775042Y-92371343D01*
X195076656Y-91644975D01*
X195077343Y-90858476D01*
X194776997Y-90131582D01*
X194221343Y-89574958D01*
X194041279Y-89500189D01*
X194218418Y-89426997D01*
X194775042Y-88871343D01*
X195076656Y-88144975D01*
X195077343Y-87358476D01*
X194776997Y-86631582D01*
X194221343Y-86074958D01*
X193494975Y-85773344D01*
X192708476Y-85772657D01*
X191981582Y-86073003D01*
X191424958Y-86628657D01*
X191123344Y-87355025D01*
X191122657Y-88141524D01*
X153627000Y-88141524D01*
X153627000Y-76121622D01*
X179552666Y-76121622D01*
X179845416Y-76830132D01*
X180387017Y-77372678D01*
X181095014Y-77666665D01*
X181861622Y-77667334D01*
X182266601Y-77500000D01*
X191157778Y-77500000D01*
X191157778Y-79000000D01*
X191211957Y-79287939D01*
X191382129Y-79552393D01*
X191641781Y-79729806D01*
X191950000Y-79792222D01*
X193450000Y-79792222D01*
X193737939Y-79738043D01*
X194002393Y-79567871D01*
X194179806Y-79308219D01*
X194242222Y-79000000D01*
X194242222Y-77500000D01*
X194188043Y-77212061D01*
X194017871Y-76947607D01*
X193758219Y-76770194D01*
X193450000Y-76707778D01*
X191950000Y-76707778D01*
X191662061Y-76761957D01*
X191397607Y-76932129D01*
X191220194Y-77191781D01*
X191157778Y-77500000D01*
X182266601Y-77500000D01*
X182570132Y-77374584D01*
X183112678Y-76832983D01*
X183406665Y-76124986D01*
X183407334Y-75358378D01*
X183114584Y-74649868D01*
X182686980Y-74221517D01*
X191908088Y-74221517D01*
X191976077Y-74462460D01*
X192495171Y-74647201D01*
X193045448Y-74619230D01*
X193423923Y-74462460D01*
X193491912Y-74221517D01*
X192700000Y-73429605D01*
X191908088Y-74221517D01*
X182686980Y-74221517D01*
X182572983Y-74107322D01*
X181864986Y-73813335D01*
X181098378Y-73812666D01*
X180389868Y-74105416D01*
X179847322Y-74647017D01*
X179553335Y-75355014D01*
X179552666Y-76121622D01*
X153627000Y-76121622D01*
X153627000Y-73045171D01*
X191302799Y-73045171D01*
X191330770Y-73595448D01*
X191487540Y-73973923D01*
X191728483Y-74041912D01*
X192520395Y-73250000D01*
X192879605Y-73250000D01*
X193671517Y-74041912D01*
X193912460Y-73973923D01*
X194097201Y-73454829D01*
X194069230Y-72904552D01*
X193912460Y-72526077D01*
X193671517Y-72458088D01*
X192879605Y-73250000D01*
X192520395Y-73250000D01*
X191728483Y-72458088D01*
X191487540Y-72526077D01*
X191302799Y-73045171D01*
X153627000Y-73045171D01*
X153627000Y-71041622D01*
X179552666Y-71041622D01*
X179845416Y-71750132D01*
X180387017Y-72292678D01*
X181095014Y-72586665D01*
X181861622Y-72587334D01*
X182570132Y-72294584D01*
X183112678Y-71752983D01*
X183125743Y-71721517D01*
X191908088Y-71721517D01*
X191976077Y-71962460D01*
X192073570Y-71997157D01*
X191976077Y-72037540D01*
X191908088Y-72278483D01*
X192700000Y-73070395D01*
X193491912Y-72278483D01*
X193423923Y-72037540D01*
X193326430Y-72002843D01*
X193423923Y-71962460D01*
X193491912Y-71721517D01*
X192700000Y-70929605D01*
X191908088Y-71721517D01*
X183125743Y-71721517D01*
X183406665Y-71044986D01*
X183407101Y-70545171D01*
X191302799Y-70545171D01*
X191330770Y-71095448D01*
X191487540Y-71473923D01*
X191728483Y-71541912D01*
X192520395Y-70750000D01*
X192879605Y-70750000D01*
X193671517Y-71541912D01*
X193912460Y-71473923D01*
X194097201Y-70954829D01*
X194069230Y-70404552D01*
X193912460Y-70026077D01*
X193671517Y-69958088D01*
X192879605Y-70750000D01*
X192520395Y-70750000D01*
X191728483Y-69958088D01*
X191487540Y-70026077D01*
X191302799Y-70545171D01*
X183407101Y-70545171D01*
X183407334Y-70278378D01*
X183200782Y-69778483D01*
X191908088Y-69778483D01*
X192700000Y-70570395D01*
X193491912Y-69778483D01*
X193423923Y-69537540D01*
X192904829Y-69352799D01*
X192354552Y-69380770D01*
X191976077Y-69537540D01*
X191908088Y-69778483D01*
X183200782Y-69778483D01*
X183114584Y-69569868D01*
X182572983Y-69027322D01*
X181864986Y-68733335D01*
X181098378Y-68732666D01*
X180389868Y-69025416D01*
X179847322Y-69567017D01*
X179553335Y-70275014D01*
X179552666Y-71041622D01*
X153627000Y-71041622D01*
X153627000Y-57627000D01*
X194411574Y-57627000D01*
X194023868Y-57787197D01*
M02*
