M48
INCH,TZ
T1C0.031
T2C0.039
T3C0.043
T4C0.055
T5C0.059
T6C0.122
T7C0.165
%
G90
G05
T1
X37402Y11220
X37402Y9252
X37402Y-9252
X37402Y-11220
T2
X32252Y4331
X32252Y-4331
X33858Y1969
X33858Y-1969
X34858Y1969
X34858Y-1969
X36252Y4331
X36252Y-4331
T3
X1535Y3740
X1535Y1772
X1535Y-1772
X1535Y-3740
X1535Y-7283
X1535Y-9252
X2937Y8661
X4764Y3740
X4764Y1772
X4764Y-1772
X4764Y-3740
X4764Y-7283
X4764Y-9252
X4937Y8661
T4
X37992Y2953
X37992Y984
X37992Y-984
X37992Y-2953
T5
X8685Y10000
X8685Y8000
X8685Y-8000
X8685Y-10000
X30685Y11000
X30685Y9000
X30685Y-9000
X30685Y-11000
X33209Y13445
X33209Y11240
X33209Y9035
X33209Y6831
X33209Y-6831
X33209Y-9035
X33209Y-11240
X33209Y-13445
T6
X1969Y13780
X1969Y-13780
X37402Y13780
X37402Y-13780
T7
X19685Y0
T0
M30
