G04 #@! TF.FileFunction,Legend,Bot*
%FSLAX46Y46*%
G04 Gerber Fmt 4.6, Leading zero omitted, Abs format (unit mm)*
G04 Created by KiCad (PCBNEW 4.0.1-stable) date Saturday, March 12, 2016 'PMt' 11:13:13 PM*
%MOMM*%
G01*
G04 APERTURE LIST*
%ADD10C,0.100000*%
%ADD11C,0.400000*%
%ADD12C,0.250000*%
%ADD13C,1.570000*%
%ADD14C,0.300000*%
G04 APERTURE END LIST*
D10*
D11*
X29525416Y7644672D02*
G75*
G03X29525416Y7644672I-480416J0D01*
G01*
X29680000Y7644672D02*
X42380000Y7644672D01*
D12*
X39713000Y7644672D02*
X39713000Y20344672D01*
D13*
X40475000Y8279672D02*
X40475000Y19709672D01*
X41745000Y8279672D02*
X41745000Y19709672D01*
D11*
X42380000Y7644672D02*
X42380000Y20344672D01*
X42380000Y20344672D02*
X29680000Y20344672D01*
X29525416Y20344672D02*
G75*
G03X29525416Y20344672I-480416J0D01*
G01*
X38570000Y-19304000D02*
X38570000Y-18796000D01*
D14*
X38824000Y-19050000D02*
G75*
G03X38824000Y-19050000I-254000J0D01*
G01*
X39078000Y-19050000D02*
G75*
G03X39078000Y-19050000I-508000J0D01*
G01*
D11*
X29525416Y-20220858D02*
G75*
G03X29525416Y-20220858I-480416J0D01*
G01*
X29680000Y-20220858D02*
X42380000Y-20220858D01*
D12*
X39713000Y-20220858D02*
X39713000Y-7520858D01*
D13*
X40475000Y-19585858D02*
X40475000Y-8155858D01*
X41745000Y-19585858D02*
X41745000Y-8155858D01*
D11*
X42380000Y-20220858D02*
X42380000Y-7520858D01*
X42380000Y-7520858D02*
X29680000Y-7520858D01*
X29525416Y-7520858D02*
G75*
G03X29525416Y-7520858I-480416J0D01*
G01*
D14*
X39078000Y8890000D02*
G75*
G03X39078000Y8890000I-508000J0D01*
G01*
X38824000Y8890000D02*
G75*
G03X38824000Y8890000I-254000J0D01*
G01*
D11*
X38570000Y8636000D02*
X38570000Y9144000D01*
X70963836Y-20175244D02*
G75*
G03X70963836Y-20175244I-480416J0D01*
G01*
D13*
X59053420Y-8110244D02*
X59053420Y-19540244D01*
D12*
X59815420Y-7475244D02*
X59815420Y-20175244D01*
D11*
X57148420Y-20175244D02*
X69848420Y-20175244D01*
D13*
X57783420Y-8110244D02*
X57783420Y-19540244D01*
D11*
X57148420Y-7475244D02*
X57148420Y-20175244D01*
X69848420Y-7475244D02*
X57148420Y-7475244D01*
X70963836Y-7475244D02*
G75*
G03X70963836Y-7475244I-480416J0D01*
G01*
D14*
X61303000Y8890000D02*
G75*
G03X61303000Y8890000I-508000J0D01*
G01*
X61049000Y8890000D02*
G75*
G03X61049000Y8890000I-254000J0D01*
G01*
D11*
X60795000Y8636000D02*
X60795000Y9144000D01*
X70963836Y7740550D02*
G75*
G03X70963836Y7740550I-480416J0D01*
G01*
X57148420Y7740550D02*
X69848420Y7740550D01*
D12*
X59815420Y20440550D02*
X59815420Y7740550D01*
D13*
X59053420Y19805550D02*
X59053420Y8375550D01*
X57783420Y19805550D02*
X57783420Y8375550D01*
D11*
X57148420Y20440550D02*
X57148420Y7740550D01*
X69848420Y20440550D02*
X57148420Y20440550D01*
X70963836Y20440550D02*
G75*
G03X70963836Y20440550I-480416J0D01*
G01*
D14*
X61303000Y-19050000D02*
G75*
G03X61303000Y-19050000I-508000J0D01*
G01*
X61049000Y-19050000D02*
G75*
G03X61049000Y-19050000I-254000J0D01*
G01*
D11*
X60795000Y-19304000D02*
X60795000Y-18796000D01*
X20000000Y-30000000D02*
X20000000Y30000000D01*
X20000000Y30000000D02*
X80000000Y30000000D01*
X80000000Y-30000000D02*
X80000000Y30000000D01*
X80000000Y-30000000D02*
X20000000Y-30000000D01*
D12*
X40422857Y24721429D02*
X40422857Y26221429D01*
X39851429Y26221429D01*
X39708571Y26150000D01*
X39637143Y26078571D01*
X39565714Y25935714D01*
X39565714Y25721429D01*
X39637143Y25578571D01*
X39708571Y25507143D01*
X39851429Y25435714D01*
X40422857Y25435714D01*
X38065714Y24721429D02*
X38565714Y25435714D01*
X38922857Y24721429D02*
X38922857Y26221429D01*
X38351429Y26221429D01*
X38208571Y26150000D01*
X38137143Y26078571D01*
X38065714Y25935714D01*
X38065714Y25721429D01*
X38137143Y25578571D01*
X38208571Y25507143D01*
X38351429Y25435714D01*
X38922857Y25435714D01*
X37422857Y24721429D02*
X37422857Y26221429D01*
X36708571Y24721429D02*
X36708571Y26221429D01*
X36208571Y25150000D01*
X35708571Y26221429D01*
X35708571Y24721429D01*
X35065714Y25150000D02*
X34351428Y25150000D01*
X35208571Y24721429D02*
X34708571Y26221429D01*
X34208571Y24721429D01*
X32851428Y24721429D02*
X33351428Y25435714D01*
X33708571Y24721429D02*
X33708571Y26221429D01*
X33137143Y26221429D01*
X32994285Y26150000D01*
X32922857Y26078571D01*
X32851428Y25935714D01*
X32851428Y25721429D01*
X32922857Y25578571D01*
X32994285Y25507143D01*
X33137143Y25435714D01*
X33708571Y25435714D01*
X31922857Y25435714D02*
X31922857Y24721429D01*
X32422857Y26221429D02*
X31922857Y25435714D01*
X31422857Y26221429D01*
X24314285Y26221429D02*
X24599999Y26221429D01*
X24742856Y26150000D01*
X24814285Y26078571D01*
X24957142Y25864286D01*
X25028571Y25578571D01*
X25028571Y25007143D01*
X24957142Y24864286D01*
X24885714Y24792857D01*
X24742856Y24721429D01*
X24457142Y24721429D01*
X24314285Y24792857D01*
X24242856Y24864286D01*
X24171428Y25007143D01*
X24171428Y25364286D01*
X24242856Y25507143D01*
X24314285Y25578571D01*
X24457142Y25650000D01*
X24742856Y25650000D01*
X24885714Y25578571D01*
X24957142Y25507143D01*
X25028571Y25364286D01*
X53023809Y-6452381D02*
X53023809Y-5452381D01*
X52690475Y-6166667D01*
X52357142Y-5452381D01*
X52357142Y-6452381D01*
X51452380Y-5785714D02*
X51452380Y-6452381D01*
X51690476Y-5404762D02*
X51928571Y-6119048D01*
X51309523Y-6119048D01*
X51023809Y-6452381D02*
X50499999Y-5785714D01*
X51023809Y-5785714D02*
X50499999Y-6452381D01*
X49690475Y-5452381D02*
X49880952Y-5452381D01*
X49976190Y-5500000D01*
X50023809Y-5547619D01*
X50119047Y-5690476D01*
X50166666Y-5880952D01*
X50166666Y-6261905D01*
X50119047Y-6357143D01*
X50071428Y-6404762D01*
X49976190Y-6452381D01*
X49785713Y-6452381D01*
X49690475Y-6404762D01*
X49642856Y-6357143D01*
X49595237Y-6261905D01*
X49595237Y-6023810D01*
X49642856Y-5928571D01*
X49690475Y-5880952D01*
X49785713Y-5833333D01*
X49976190Y-5833333D01*
X50071428Y-5880952D01*
X50119047Y-5928571D01*
X50166666Y-6023810D01*
X49166666Y-6452381D02*
X49166666Y-5785714D01*
X49166666Y-5880952D02*
X49119047Y-5833333D01*
X49023809Y-5785714D01*
X48880951Y-5785714D01*
X48785713Y-5833333D01*
X48738094Y-5928571D01*
X48738094Y-6452381D01*
X48738094Y-5928571D02*
X48690475Y-5833333D01*
X48595237Y-5785714D01*
X48452380Y-5785714D01*
X48357142Y-5833333D01*
X48309523Y-5928571D01*
X48309523Y-6452381D01*
X47833333Y-6452381D02*
X47833333Y-5785714D01*
X47833333Y-5880952D02*
X47785714Y-5833333D01*
X47690476Y-5785714D01*
X47547618Y-5785714D01*
X47452380Y-5833333D01*
X47404761Y-5928571D01*
X47404761Y-6452381D01*
X47404761Y-5928571D02*
X47357142Y-5833333D01*
X47261904Y-5785714D01*
X47119047Y-5785714D01*
X47023809Y-5833333D01*
X46976190Y-5928571D01*
X46976190Y-6452381D01*
X30664285Y18601429D02*
X30949999Y18601429D01*
X31092856Y18530000D01*
X31164285Y18458571D01*
X31307142Y18244286D01*
X31378571Y17958571D01*
X31378571Y17387143D01*
X31307142Y17244286D01*
X31235714Y17172857D01*
X31092856Y17101429D01*
X30807142Y17101429D01*
X30664285Y17172857D01*
X30592856Y17244286D01*
X30521428Y17387143D01*
X30521428Y17744286D01*
X30592856Y17887143D01*
X30664285Y17958571D01*
X30807142Y18030000D01*
X31092856Y18030000D01*
X31235714Y17958571D01*
X31307142Y17887143D01*
X31378571Y17744286D01*
X30592856Y10981429D02*
X31307142Y10981429D01*
X31378571Y10267143D01*
X31307142Y10338571D01*
X31164285Y10410000D01*
X30807142Y10410000D01*
X30664285Y10338571D01*
X30592856Y10267143D01*
X30521428Y10124286D01*
X30521428Y9767143D01*
X30592856Y9624286D01*
X30664285Y9552857D01*
X30807142Y9481429D01*
X31164285Y9481429D01*
X31307142Y9552857D01*
X31378571Y9624286D01*
X68065714Y9481429D02*
X68922857Y9481429D01*
X68494285Y9481429D02*
X68494285Y10981429D01*
X68637142Y10767143D01*
X68780000Y10624286D01*
X68922857Y10552857D01*
X67494286Y10838571D02*
X67422857Y10910000D01*
X67280000Y10981429D01*
X66922857Y10981429D01*
X66780000Y10910000D01*
X66708571Y10838571D01*
X66637143Y10695714D01*
X66637143Y10552857D01*
X66708571Y10338571D01*
X67565714Y9481429D01*
X66637143Y9481429D01*
X24242856Y21141429D02*
X24957142Y21141429D01*
X25028571Y20427143D01*
X24957142Y20498571D01*
X24814285Y20570000D01*
X24457142Y20570000D01*
X24314285Y20498571D01*
X24242856Y20427143D01*
X24171428Y20284286D01*
X24171428Y19927143D01*
X24242856Y19784286D01*
X24314285Y19712857D01*
X24457142Y19641429D01*
X24814285Y19641429D01*
X24957142Y19712857D01*
X25028571Y19784286D01*
X30664285Y-9838571D02*
X30664285Y-10838571D01*
X31021428Y-9267143D02*
X31378571Y-10338571D01*
X30449999Y-10338571D01*
X31449999Y-16958571D02*
X30521428Y-16958571D01*
X31021428Y-17530000D01*
X30807142Y-17530000D01*
X30664285Y-17601429D01*
X30592856Y-17672857D01*
X30521428Y-17815714D01*
X30521428Y-18172857D01*
X30592856Y-18315714D01*
X30664285Y-18387143D01*
X30807142Y-18458571D01*
X31235714Y-18458571D01*
X31378571Y-18387143D01*
X31449999Y-18315714D01*
X24314285Y-19998571D02*
X24314285Y-20998571D01*
X24671428Y-19427143D02*
X25028571Y-20498571D01*
X24099999Y-20498571D01*
X25099999Y-24578571D02*
X24171428Y-24578571D01*
X24671428Y-25150000D01*
X24457142Y-25150000D01*
X24314285Y-25221429D01*
X24242856Y-25292857D01*
X24171428Y-25435714D01*
X24171428Y-25792857D01*
X24242856Y-25935714D01*
X24314285Y-26007143D01*
X24457142Y-26078571D01*
X24885714Y-26078571D01*
X25028571Y-26007143D01*
X25099999Y-25935714D01*
X70184286Y24792857D02*
X69970000Y24721429D01*
X69612857Y24721429D01*
X69470000Y24792857D01*
X69398571Y24864286D01*
X69327143Y25007143D01*
X69327143Y25150000D01*
X69398571Y25292857D01*
X69470000Y25364286D01*
X69612857Y25435714D01*
X69898571Y25507143D01*
X70041429Y25578571D01*
X70112857Y25650000D01*
X70184286Y25792857D01*
X70184286Y25935714D01*
X70112857Y26078571D01*
X70041429Y26150000D01*
X69898571Y26221429D01*
X69541429Y26221429D01*
X69327143Y26150000D01*
X68684286Y25507143D02*
X68184286Y25507143D01*
X67970000Y24721429D02*
X68684286Y24721429D01*
X68684286Y26221429D01*
X67970000Y26221429D01*
X66470000Y24864286D02*
X66541429Y24792857D01*
X66755715Y24721429D01*
X66898572Y24721429D01*
X67112857Y24792857D01*
X67255715Y24935714D01*
X67327143Y25078571D01*
X67398572Y25364286D01*
X67398572Y25578571D01*
X67327143Y25864286D01*
X67255715Y26007143D01*
X67112857Y26150000D01*
X66898572Y26221429D01*
X66755715Y26221429D01*
X66541429Y26150000D01*
X66470000Y26078571D01*
X65541429Y26221429D02*
X65255715Y26221429D01*
X65112857Y26150000D01*
X64970000Y26007143D01*
X64898572Y25721429D01*
X64898572Y25221429D01*
X64970000Y24935714D01*
X65112857Y24792857D01*
X65255715Y24721429D01*
X65541429Y24721429D01*
X65684286Y24792857D01*
X65827143Y24935714D01*
X65898572Y25221429D01*
X65898572Y25721429D01*
X65827143Y26007143D01*
X65684286Y26150000D01*
X65541429Y26221429D01*
X64255714Y24721429D02*
X64255714Y26221429D01*
X63398571Y24721429D01*
X63398571Y26221429D01*
X62684285Y24721429D02*
X62684285Y26221429D01*
X62327142Y26221429D01*
X62112857Y26150000D01*
X61969999Y26007143D01*
X61898571Y25864286D01*
X61827142Y25578571D01*
X61827142Y25364286D01*
X61898571Y25078571D01*
X61969999Y24935714D01*
X62112857Y24792857D01*
X62327142Y24721429D01*
X62684285Y24721429D01*
X61255714Y25150000D02*
X60541428Y25150000D01*
X61398571Y24721429D02*
X60898571Y26221429D01*
X60398571Y24721429D01*
X59041428Y24721429D02*
X59541428Y25435714D01*
X59898571Y24721429D02*
X59898571Y26221429D01*
X59327143Y26221429D01*
X59184285Y26150000D01*
X59112857Y26078571D01*
X59041428Y25935714D01*
X59041428Y25721429D01*
X59112857Y25578571D01*
X59184285Y25507143D01*
X59327143Y25435714D01*
X59898571Y25435714D01*
X58112857Y25435714D02*
X58112857Y24721429D01*
X58612857Y26221429D02*
X58112857Y25435714D01*
X57612857Y26221429D01*
X74415714Y27261429D02*
X75272857Y27261429D01*
X74844285Y27261429D02*
X74844285Y28761429D01*
X74987142Y28547143D01*
X75130000Y28404286D01*
X75272857Y28332857D01*
X72987143Y27261429D02*
X73844286Y27261429D01*
X73415714Y27261429D02*
X73415714Y28761429D01*
X73558571Y28547143D01*
X73701429Y28404286D01*
X73844286Y28332857D01*
X74415714Y22181429D02*
X75272857Y22181429D01*
X74844285Y22181429D02*
X74844285Y23681429D01*
X74987142Y23467143D01*
X75130000Y23324286D01*
X75272857Y23252857D01*
X73844286Y23538571D02*
X73772857Y23610000D01*
X73630000Y23681429D01*
X73272857Y23681429D01*
X73130000Y23610000D01*
X73058571Y23538571D01*
X72987143Y23395714D01*
X72987143Y23252857D01*
X73058571Y23038571D01*
X73915714Y22181429D01*
X72987143Y22181429D01*
X74415714Y-23538571D02*
X75272857Y-23538571D01*
X74844285Y-23538571D02*
X74844285Y-22038571D01*
X74987142Y-22252857D01*
X75130000Y-22395714D01*
X75272857Y-22467143D01*
X73915714Y-22038571D02*
X72987143Y-22038571D01*
X73487143Y-22610000D01*
X73272857Y-22610000D01*
X73130000Y-22681429D01*
X73058571Y-22752857D01*
X72987143Y-22895714D01*
X72987143Y-23252857D01*
X73058571Y-23395714D01*
X73130000Y-23467143D01*
X73272857Y-23538571D01*
X73701429Y-23538571D01*
X73844286Y-23467143D01*
X73915714Y-23395714D01*
X74415714Y-28618571D02*
X75272857Y-28618571D01*
X74844285Y-28618571D02*
X74844285Y-27118571D01*
X74987142Y-27332857D01*
X75130000Y-27475714D01*
X75272857Y-27547143D01*
X73130000Y-27618571D02*
X73130000Y-28618571D01*
X73487143Y-27047143D02*
X73844286Y-28118571D01*
X72915714Y-28118571D01*
X68065714Y-10838571D02*
X68922857Y-10838571D01*
X68494285Y-10838571D02*
X68494285Y-9338571D01*
X68637142Y-9552857D01*
X68780000Y-9695714D01*
X68922857Y-9767143D01*
X67565714Y-9338571D02*
X66637143Y-9338571D01*
X67137143Y-9910000D01*
X66922857Y-9910000D01*
X66780000Y-9981429D01*
X66708571Y-10052857D01*
X66637143Y-10195714D01*
X66637143Y-10552857D01*
X66708571Y-10695714D01*
X66780000Y-10767143D01*
X66922857Y-10838571D01*
X67351429Y-10838571D01*
X67494286Y-10767143D01*
X67565714Y-10695714D01*
X68065714Y-18458571D02*
X68922857Y-18458571D01*
X68494285Y-18458571D02*
X68494285Y-16958571D01*
X68637142Y-17172857D01*
X68780000Y-17315714D01*
X68922857Y-17387143D01*
X66780000Y-17458571D02*
X66780000Y-18458571D01*
X67137143Y-16887143D02*
X67494286Y-17958571D01*
X66565714Y-17958571D01*
X68065714Y17101429D02*
X68922857Y17101429D01*
X68494285Y17101429D02*
X68494285Y18601429D01*
X68637142Y18387143D01*
X68780000Y18244286D01*
X68922857Y18172857D01*
X66637143Y17101429D02*
X67494286Y17101429D01*
X67065714Y17101429D02*
X67065714Y18601429D01*
X67208571Y18387143D01*
X67351429Y18244286D01*
X67494286Y18172857D01*
M02*
