G04 #@! TF.FileFunction,Legend,Top*
%FSLAX46Y46*%
G04 Gerber Fmt 4.6, Leading zero omitted, Abs format (unit mm)*
G04 Created by KiCad (PCBNEW 4.0.2-stable) date Monday, August 15, 2016 'AMt' 09:37:36 AM*
%MOMM*%
G01*
G04 APERTURE LIST*
%ADD10C,0.100000*%
%ADD11C,0.300000*%
%ADD12C,0.250000*%
%ADD13C,1.000000*%
%ADD14C,0.400000*%
%ADD15C,0.200000*%
%ADD16C,0.150000*%
%ADD17C,0.500000*%
G04 APERTURE END LIST*
D10*
D11*
X199807143Y-105821428D02*
X199807143Y-104678571D01*
X199807143Y-88321428D02*
X199807143Y-87178571D01*
X200378571Y-87750000D02*
X199235714Y-87750000D01*
D12*
X112833333Y-71579762D02*
X112976190Y-71627381D01*
X113214286Y-71627381D01*
X113309524Y-71579762D01*
X113357143Y-71532143D01*
X113404762Y-71436905D01*
X113404762Y-71341667D01*
X113357143Y-71246429D01*
X113309524Y-71198810D01*
X113214286Y-71151190D01*
X113023809Y-71103571D01*
X112928571Y-71055952D01*
X112880952Y-71008333D01*
X112833333Y-70913095D01*
X112833333Y-70817857D01*
X112880952Y-70722619D01*
X112928571Y-70675000D01*
X113023809Y-70627381D01*
X113261905Y-70627381D01*
X113404762Y-70675000D01*
X114309524Y-71627381D02*
X113833333Y-71627381D01*
X113833333Y-70627381D01*
X114833333Y-70627381D02*
X115023810Y-70627381D01*
X115119048Y-70675000D01*
X115214286Y-70770238D01*
X115261905Y-70960714D01*
X115261905Y-71294048D01*
X115214286Y-71484524D01*
X115119048Y-71579762D01*
X115023810Y-71627381D01*
X114833333Y-71627381D01*
X114738095Y-71579762D01*
X114642857Y-71484524D01*
X114595238Y-71294048D01*
X114595238Y-70960714D01*
X114642857Y-70770238D01*
X114738095Y-70675000D01*
X114833333Y-70627381D01*
X115595238Y-70627381D02*
X115833333Y-71627381D01*
X116023810Y-70913095D01*
X116214286Y-71627381D01*
X116452381Y-70627381D01*
X117928572Y-71103571D02*
X118071429Y-71151190D01*
X118119048Y-71198810D01*
X118166667Y-71294048D01*
X118166667Y-71436905D01*
X118119048Y-71532143D01*
X118071429Y-71579762D01*
X117976191Y-71627381D01*
X117595238Y-71627381D01*
X117595238Y-70627381D01*
X117928572Y-70627381D01*
X118023810Y-70675000D01*
X118071429Y-70722619D01*
X118119048Y-70817857D01*
X118119048Y-70913095D01*
X118071429Y-71008333D01*
X118023810Y-71055952D01*
X117928572Y-71103571D01*
X117595238Y-71103571D01*
X119071429Y-71627381D02*
X118595238Y-71627381D01*
X118595238Y-70627381D01*
X119595238Y-70627381D02*
X119785715Y-70627381D01*
X119880953Y-70675000D01*
X119976191Y-70770238D01*
X120023810Y-70960714D01*
X120023810Y-71294048D01*
X119976191Y-71484524D01*
X119880953Y-71579762D01*
X119785715Y-71627381D01*
X119595238Y-71627381D01*
X119500000Y-71579762D01*
X119404762Y-71484524D01*
X119357143Y-71294048D01*
X119357143Y-70960714D01*
X119404762Y-70770238D01*
X119500000Y-70675000D01*
X119595238Y-70627381D01*
X120357143Y-70627381D02*
X120595238Y-71627381D01*
X120785715Y-70913095D01*
X120976191Y-71627381D01*
X121214286Y-70627381D01*
X113190476Y-72372619D02*
X113238095Y-72325000D01*
X113333333Y-72277381D01*
X113571429Y-72277381D01*
X113666667Y-72325000D01*
X113714286Y-72372619D01*
X113761905Y-72467857D01*
X113761905Y-72563095D01*
X113714286Y-72705952D01*
X113142857Y-73277381D01*
X113761905Y-73277381D01*
X114666667Y-72277381D02*
X114190476Y-72277381D01*
X114142857Y-72753571D01*
X114190476Y-72705952D01*
X114285714Y-72658333D01*
X114523810Y-72658333D01*
X114619048Y-72705952D01*
X114666667Y-72753571D01*
X114714286Y-72848810D01*
X114714286Y-73086905D01*
X114666667Y-73182143D01*
X114619048Y-73229762D01*
X114523810Y-73277381D01*
X114285714Y-73277381D01*
X114190476Y-73229762D01*
X114142857Y-73182143D01*
X115333333Y-72277381D02*
X115428572Y-72277381D01*
X115523810Y-72325000D01*
X115571429Y-72372619D01*
X115619048Y-72467857D01*
X115666667Y-72658333D01*
X115666667Y-72896429D01*
X115619048Y-73086905D01*
X115571429Y-73182143D01*
X115523810Y-73229762D01*
X115428572Y-73277381D01*
X115333333Y-73277381D01*
X115238095Y-73229762D01*
X115190476Y-73182143D01*
X115142857Y-73086905D01*
X115095238Y-72896429D01*
X115095238Y-72658333D01*
X115142857Y-72467857D01*
X115190476Y-72372619D01*
X115238095Y-72325000D01*
X115333333Y-72277381D01*
X115952381Y-72277381D02*
X116285714Y-73277381D01*
X116619048Y-72277381D01*
X117666667Y-72229762D02*
X116809524Y-73515476D01*
X118190476Y-72277381D02*
X118285715Y-72277381D01*
X118380953Y-72325000D01*
X118428572Y-72372619D01*
X118476191Y-72467857D01*
X118523810Y-72658333D01*
X118523810Y-72896429D01*
X118476191Y-73086905D01*
X118428572Y-73182143D01*
X118380953Y-73229762D01*
X118285715Y-73277381D01*
X118190476Y-73277381D01*
X118095238Y-73229762D01*
X118047619Y-73182143D01*
X118000000Y-73086905D01*
X117952381Y-72896429D01*
X117952381Y-72658333D01*
X118000000Y-72467857D01*
X118047619Y-72372619D01*
X118095238Y-72325000D01*
X118190476Y-72277381D01*
X118952381Y-73182143D02*
X119000000Y-73229762D01*
X118952381Y-73277381D01*
X118904762Y-73229762D01*
X118952381Y-73182143D01*
X118952381Y-73277381D01*
X119904762Y-72277381D02*
X119428571Y-72277381D01*
X119380952Y-72753571D01*
X119428571Y-72705952D01*
X119523809Y-72658333D01*
X119761905Y-72658333D01*
X119857143Y-72705952D01*
X119904762Y-72753571D01*
X119952381Y-72848810D01*
X119952381Y-73086905D01*
X119904762Y-73182143D01*
X119857143Y-73229762D01*
X119761905Y-73277381D01*
X119523809Y-73277381D01*
X119428571Y-73229762D01*
X119380952Y-73182143D01*
X120333333Y-72991667D02*
X120809524Y-72991667D01*
X120238095Y-73277381D02*
X120571428Y-72277381D01*
X120904762Y-73277381D01*
D11*
X199807143Y-102321428D02*
X199807143Y-101178571D01*
X199150000Y-97642857D02*
X199078571Y-97785714D01*
X199078571Y-98000000D01*
X199150000Y-98214285D01*
X199292857Y-98357143D01*
X199435714Y-98428571D01*
X199721429Y-98500000D01*
X199935714Y-98500000D01*
X200221429Y-98428571D01*
X200364286Y-98357143D01*
X200507143Y-98214285D01*
X200578571Y-98000000D01*
X200578571Y-97857143D01*
X200507143Y-97642857D01*
X200435714Y-97571428D01*
X199935714Y-97571428D01*
X199935714Y-97857143D01*
X200578571Y-96928571D02*
X199078571Y-96928571D01*
X200578571Y-96071428D01*
X199078571Y-96071428D01*
X200578571Y-95357142D02*
X199078571Y-95357142D01*
X199078571Y-94999999D01*
X199150000Y-94785714D01*
X199292857Y-94642856D01*
X199435714Y-94571428D01*
X199721429Y-94499999D01*
X199935714Y-94499999D01*
X200221429Y-94571428D01*
X200364286Y-94642856D01*
X200507143Y-94785714D01*
X200578571Y-94999999D01*
X200578571Y-95357142D01*
X199807143Y-91821428D02*
X199807143Y-90678571D01*
X200378571Y-91250000D02*
X199235714Y-91250000D01*
X123540000Y-128600000D02*
X123540000Y-68600000D01*
X183540000Y-128600000D02*
X123540000Y-128600000D01*
X183540000Y-68600000D02*
X183540000Y-128600000D01*
X123540000Y-68600000D02*
X183540000Y-68600000D01*
D13*
X196700001Y-68000000D02*
G75*
G03X188708396Y-68005589I-3991605J-6005589D01*
G01*
D14*
X197450000Y-78250000D02*
X195450000Y-78250000D01*
X196450000Y-77250000D02*
X196450000Y-79250000D01*
D15*
X200762258Y-74500000D02*
G75*
G03X200762258Y-74500000I-8062258J0D01*
G01*
X122200000Y-127300000D02*
X122200000Y-77700000D01*
X101800000Y-77700000D02*
X122200000Y-77700000D01*
X101800000Y-127300000D02*
X122200000Y-127300000D01*
D16*
X187750000Y-107100000D02*
X187750000Y-104400000D01*
X186250000Y-107100000D02*
X186250000Y-104400000D01*
X187150000Y-105600000D02*
X186900000Y-105600000D01*
X186900000Y-105600000D02*
X187050000Y-105750000D01*
X186650000Y-105850000D02*
X187350000Y-105850000D01*
X187000000Y-105500000D02*
X187000000Y-105150000D01*
X187000000Y-105850000D02*
X186650000Y-105500000D01*
X186650000Y-105500000D02*
X187350000Y-105500000D01*
X187350000Y-105500000D02*
X187000000Y-105850000D01*
X187750000Y-89100000D02*
X187750000Y-86400000D01*
X186250000Y-89100000D02*
X186250000Y-86400000D01*
X187150000Y-87600000D02*
X186900000Y-87600000D01*
X186900000Y-87600000D02*
X187050000Y-87750000D01*
X186650000Y-87850000D02*
X187350000Y-87850000D01*
X187000000Y-87500000D02*
X187000000Y-87150000D01*
X187000000Y-87850000D02*
X186650000Y-87500000D01*
X186650000Y-87500000D02*
X187350000Y-87500000D01*
X187350000Y-87500000D02*
X187000000Y-87850000D01*
D15*
X112250000Y-72000000D02*
G75*
G03X112250000Y-72000000I-4750000J0D01*
G01*
D16*
X184150000Y-61750000D02*
X184150000Y-62750000D01*
X185850000Y-62750000D02*
X185850000Y-61750000D01*
X168350000Y-62750000D02*
X168350000Y-61750000D01*
X166650000Y-61750000D02*
X166650000Y-62750000D01*
X181150000Y-61750000D02*
X181150000Y-62750000D01*
X182850000Y-62750000D02*
X182850000Y-61750000D01*
X171350000Y-62750000D02*
X171350000Y-61750000D01*
X169650000Y-61750000D02*
X169650000Y-62750000D01*
X171350000Y-133250000D02*
X171350000Y-132250000D01*
X169650000Y-132250000D02*
X169650000Y-133250000D01*
X181150000Y-132250000D02*
X181150000Y-133250000D01*
X182850000Y-133250000D02*
X182850000Y-132250000D01*
X168350000Y-133250000D02*
X168350000Y-132250000D01*
X166650000Y-132250000D02*
X166650000Y-133250000D01*
X184150000Y-132250000D02*
X184150000Y-133250000D01*
X185850000Y-133250000D02*
X185850000Y-132250000D01*
X187875000Y-92250000D02*
X187875000Y-93450000D01*
X186125000Y-93450000D02*
X186125000Y-92250000D01*
X187875000Y-99550000D02*
X187875000Y-100750000D01*
X186125000Y-100750000D02*
X186125000Y-99550000D01*
X197200000Y-89500000D02*
X197600000Y-89500000D01*
X197200000Y-93000000D02*
X197600000Y-93000000D01*
X197200000Y-103500000D02*
X197600000Y-103500000D01*
X197200000Y-100000000D02*
X197600000Y-100000000D01*
X197200000Y-96500000D02*
X197600000Y-96500000D01*
X196100000Y-107000000D02*
X196100000Y-86000000D01*
X197200000Y-107000000D02*
X197200000Y-86000000D01*
X190000000Y-107000000D02*
X197600000Y-107000000D01*
X197600000Y-86000000D02*
X190000000Y-86000000D01*
X190000000Y-86000000D02*
X190000000Y-107000000D01*
D15*
X186500000Y-61500000D02*
X189500000Y-61500000D01*
X186500000Y-64500000D02*
X186500000Y-60500000D01*
X189500000Y-64500000D02*
X189500000Y-60500000D01*
X175250000Y-63500000D02*
X172250000Y-63500000D01*
X175250000Y-60500000D02*
X175250000Y-64500000D01*
X172250000Y-60500000D02*
X172250000Y-64500000D01*
X186500000Y-131250000D02*
X189500000Y-131250000D01*
X186500000Y-134250000D02*
X186500000Y-130250000D01*
X189500000Y-134250000D02*
X189500000Y-130250000D01*
X166000000Y-133250000D02*
X163000000Y-133250000D01*
X166000000Y-130250000D02*
X166000000Y-134250000D01*
X163000000Y-130250000D02*
X163000000Y-134250000D01*
X177000000Y-131250000D02*
X180000000Y-131250000D01*
X177000000Y-134250000D02*
X177000000Y-130250000D01*
X180000000Y-134250000D02*
X180000000Y-130250000D01*
X175250000Y-133250000D02*
X172250000Y-133250000D01*
X175250000Y-130250000D02*
X175250000Y-134250000D01*
X172250000Y-130250000D02*
X172250000Y-134250000D01*
X177000000Y-61500000D02*
X180000000Y-61500000D01*
X177000000Y-64500000D02*
X177000000Y-60500000D01*
X180000000Y-64500000D02*
X180000000Y-60500000D01*
X166000000Y-63500000D02*
X163000000Y-63500000D01*
X166000000Y-60500000D02*
X166000000Y-64500000D01*
X163000000Y-60500000D02*
X163000000Y-64500000D01*
D13*
X196700001Y-112000000D02*
G75*
G03X188708396Y-112005589I-3991605J-6005589D01*
G01*
D14*
X197450000Y-122250000D02*
X195450000Y-122250000D01*
X196450000Y-121250000D02*
X196450000Y-123250000D01*
D15*
X200762258Y-118500000D02*
G75*
G03X200762258Y-118500000I-8062258J0D01*
G01*
D17*
X152016190Y-115284762D02*
X153159047Y-115284762D01*
X152587619Y-117284762D02*
X152587619Y-115284762D01*
X154873334Y-117284762D02*
X153730476Y-117284762D01*
X154301905Y-117284762D02*
X154301905Y-115284762D01*
X154111429Y-115570476D01*
X153920953Y-115760952D01*
X153730476Y-115856190D01*
D12*
X149754287Y-125948571D02*
X148897144Y-125948571D01*
X149325716Y-125948571D02*
X149325716Y-124448571D01*
X149182859Y-124662857D01*
X149040001Y-124805714D01*
X148897144Y-124877143D01*
X151111430Y-124448571D02*
X150397144Y-124448571D01*
X150325715Y-125162857D01*
X150397144Y-125091429D01*
X150540001Y-125020000D01*
X150897144Y-125020000D01*
X151040001Y-125091429D01*
X151111430Y-125162857D01*
X151182858Y-125305714D01*
X151182858Y-125662857D01*
X151111430Y-125805714D01*
X151040001Y-125877143D01*
X150897144Y-125948571D01*
X150540001Y-125948571D01*
X150397144Y-125877143D01*
X150325715Y-125805714D01*
X152897143Y-124377143D02*
X151611429Y-126305714D01*
X153325715Y-124591429D02*
X153397144Y-124520000D01*
X153540001Y-124448571D01*
X153897144Y-124448571D01*
X154040001Y-124520000D01*
X154111430Y-124591429D01*
X154182858Y-124734286D01*
X154182858Y-124877143D01*
X154111430Y-125091429D01*
X153254287Y-125948571D01*
X154182858Y-125948571D01*
X155540001Y-124448571D02*
X154825715Y-124448571D01*
X154754286Y-125162857D01*
X154825715Y-125091429D01*
X154968572Y-125020000D01*
X155325715Y-125020000D01*
X155468572Y-125091429D01*
X155540001Y-125162857D01*
X155611429Y-125305714D01*
X155611429Y-125662857D01*
X155540001Y-125805714D01*
X155468572Y-125877143D01*
X155325715Y-125948571D01*
X154968572Y-125948571D01*
X154825715Y-125877143D01*
X154754286Y-125805714D01*
X156040000Y-124448571D02*
X156540000Y-125948571D01*
X157040000Y-124448571D01*
X157468571Y-125520000D02*
X158182857Y-125520000D01*
X157325714Y-125948571D02*
X157825714Y-124448571D01*
X158325714Y-125948571D01*
X144825716Y-121908571D02*
X145682859Y-121908571D01*
X145254288Y-123408571D02*
X145254288Y-121908571D01*
X146825716Y-123408571D02*
X146825716Y-122622857D01*
X146754287Y-122480000D01*
X146611430Y-122408571D01*
X146325716Y-122408571D01*
X146182859Y-122480000D01*
X146825716Y-123337143D02*
X146682859Y-123408571D01*
X146325716Y-123408571D01*
X146182859Y-123337143D01*
X146111430Y-123194286D01*
X146111430Y-123051429D01*
X146182859Y-122908571D01*
X146325716Y-122837143D01*
X146682859Y-122837143D01*
X146825716Y-122765714D01*
X147754288Y-123408571D02*
X147611430Y-123337143D01*
X147540002Y-123194286D01*
X147540002Y-121908571D01*
X148897144Y-123337143D02*
X148754287Y-123408571D01*
X148468573Y-123408571D01*
X148325716Y-123337143D01*
X148254287Y-123194286D01*
X148254287Y-122622857D01*
X148325716Y-122480000D01*
X148468573Y-122408571D01*
X148754287Y-122408571D01*
X148897144Y-122480000D01*
X148968573Y-122622857D01*
X148968573Y-122765714D01*
X148254287Y-122908571D01*
X149611430Y-123408571D02*
X149611430Y-122408571D01*
X149611430Y-122551429D02*
X149682858Y-122480000D01*
X149825716Y-122408571D01*
X150040001Y-122408571D01*
X150182858Y-122480000D01*
X150254287Y-122622857D01*
X150254287Y-123408571D01*
X150254287Y-122622857D02*
X150325716Y-122480000D01*
X150468573Y-122408571D01*
X150682858Y-122408571D01*
X150825716Y-122480000D01*
X150897144Y-122622857D01*
X150897144Y-123408571D01*
X152254287Y-123408571D02*
X152254287Y-122622857D01*
X152182858Y-122480000D01*
X152040001Y-122408571D01*
X151754287Y-122408571D01*
X151611430Y-122480000D01*
X152254287Y-123337143D02*
X152111430Y-123408571D01*
X151754287Y-123408571D01*
X151611430Y-123337143D01*
X151540001Y-123194286D01*
X151540001Y-123051429D01*
X151611430Y-122908571D01*
X151754287Y-122837143D01*
X152111430Y-122837143D01*
X152254287Y-122765714D01*
X153968573Y-121908571D02*
X154968573Y-121908571D01*
X154325716Y-123408571D01*
X155825715Y-121908571D02*
X155968572Y-121908571D01*
X156111429Y-121980000D01*
X156182858Y-122051429D01*
X156254287Y-122194286D01*
X156325715Y-122480000D01*
X156325715Y-122837143D01*
X156254287Y-123122857D01*
X156182858Y-123265714D01*
X156111429Y-123337143D01*
X155968572Y-123408571D01*
X155825715Y-123408571D01*
X155682858Y-123337143D01*
X155611429Y-123265714D01*
X155540001Y-123122857D01*
X155468572Y-122837143D01*
X155468572Y-122480000D01*
X155540001Y-122194286D01*
X155611429Y-122051429D01*
X155682858Y-121980000D01*
X155825715Y-121908571D01*
X157254286Y-121908571D02*
X157397143Y-121908571D01*
X157540000Y-121980000D01*
X157611429Y-122051429D01*
X157682858Y-122194286D01*
X157754286Y-122480000D01*
X157754286Y-122837143D01*
X157682858Y-123122857D01*
X157611429Y-123265714D01*
X157540000Y-123337143D01*
X157397143Y-123408571D01*
X157254286Y-123408571D01*
X157111429Y-123337143D01*
X157040000Y-123265714D01*
X156968572Y-123122857D01*
X156897143Y-122837143D01*
X156897143Y-122480000D01*
X156968572Y-122194286D01*
X157040000Y-122051429D01*
X157111429Y-121980000D01*
X157254286Y-121908571D01*
X158682857Y-121908571D02*
X158825714Y-121908571D01*
X158968571Y-121980000D01*
X159040000Y-122051429D01*
X159111429Y-122194286D01*
X159182857Y-122480000D01*
X159182857Y-122837143D01*
X159111429Y-123122857D01*
X159040000Y-123265714D01*
X158968571Y-123337143D01*
X158825714Y-123408571D01*
X158682857Y-123408571D01*
X158540000Y-123337143D01*
X158468571Y-123265714D01*
X158397143Y-123122857D01*
X158325714Y-122837143D01*
X158325714Y-122480000D01*
X158397143Y-122194286D01*
X158468571Y-122051429D01*
X158540000Y-121980000D01*
X158682857Y-121908571D01*
X160111428Y-121908571D02*
X160254285Y-121908571D01*
X160397142Y-121980000D01*
X160468571Y-122051429D01*
X160540000Y-122194286D01*
X160611428Y-122480000D01*
X160611428Y-122837143D01*
X160540000Y-123122857D01*
X160468571Y-123265714D01*
X160397142Y-123337143D01*
X160254285Y-123408571D01*
X160111428Y-123408571D01*
X159968571Y-123337143D01*
X159897142Y-123265714D01*
X159825714Y-123122857D01*
X159754285Y-122837143D01*
X159754285Y-122480000D01*
X159825714Y-122194286D01*
X159897142Y-122051429D01*
X159968571Y-121980000D01*
X160111428Y-121908571D01*
X161254285Y-123408571D02*
X161254285Y-121908571D01*
X162111428Y-123408571D02*
X161468571Y-122551429D01*
X162111428Y-121908571D02*
X161254285Y-122765714D01*
X189485714Y-74749999D02*
X189557143Y-74821428D01*
X189628571Y-75035714D01*
X189628571Y-75178571D01*
X189557143Y-75392856D01*
X189414286Y-75535714D01*
X189271429Y-75607142D01*
X188985714Y-75678571D01*
X188771429Y-75678571D01*
X188485714Y-75607142D01*
X188342857Y-75535714D01*
X188200000Y-75392856D01*
X188128571Y-75178571D01*
X188128571Y-75035714D01*
X188200000Y-74821428D01*
X188271429Y-74749999D01*
X189628571Y-74035714D02*
X189628571Y-73749999D01*
X189557143Y-73607142D01*
X189485714Y-73535714D01*
X189271429Y-73392856D01*
X188985714Y-73321428D01*
X188414286Y-73321428D01*
X188271429Y-73392856D01*
X188200000Y-73464285D01*
X188128571Y-73607142D01*
X188128571Y-73892856D01*
X188200000Y-74035714D01*
X188271429Y-74107142D01*
X188414286Y-74178571D01*
X188771429Y-74178571D01*
X188914286Y-74107142D01*
X188985714Y-74035714D01*
X189057143Y-73892856D01*
X189057143Y-73607142D01*
X188985714Y-73464285D01*
X188914286Y-73392856D01*
X188771429Y-73321428D01*
X133178571Y-66964286D02*
X131678571Y-66964286D01*
X133178571Y-66107143D01*
X131678571Y-66107143D01*
X132392857Y-65392857D02*
X132392857Y-64892857D01*
X133178571Y-64678571D02*
X133178571Y-65392857D01*
X131678571Y-65392857D01*
X131678571Y-64678571D01*
X131678571Y-64035714D02*
X132892857Y-64035714D01*
X133035714Y-63964286D01*
X133107143Y-63892857D01*
X133178571Y-63750000D01*
X133178571Y-63464286D01*
X133107143Y-63321428D01*
X133035714Y-63250000D01*
X132892857Y-63178571D01*
X131678571Y-63178571D01*
X131678571Y-62678571D02*
X131678571Y-61821428D01*
X133178571Y-62249999D02*
X131678571Y-62249999D01*
X133178571Y-60464285D02*
X132464286Y-60964285D01*
X133178571Y-61321428D02*
X131678571Y-61321428D01*
X131678571Y-60750000D01*
X131750000Y-60607142D01*
X131821429Y-60535714D01*
X131964286Y-60464285D01*
X132178571Y-60464285D01*
X132321429Y-60535714D01*
X132392857Y-60607142D01*
X132464286Y-60750000D01*
X132464286Y-61321428D01*
X132750000Y-59892857D02*
X132750000Y-59178571D01*
X133178571Y-60035714D02*
X131678571Y-59535714D01*
X133178571Y-59035714D01*
X133178571Y-57821428D02*
X133178571Y-58535714D01*
X131678571Y-58535714D01*
X123178571Y-63857143D02*
X123178571Y-64571429D01*
X121678571Y-64571429D01*
X123178571Y-63357143D02*
X121678571Y-63357143D01*
X123178571Y-62642857D02*
X121678571Y-62642857D01*
X123178571Y-61785714D01*
X121678571Y-61785714D01*
X122392857Y-61071428D02*
X122392857Y-60571428D01*
X123178571Y-60357142D02*
X123178571Y-61071428D01*
X121678571Y-61071428D01*
X121678571Y-60357142D01*
X113178571Y-65571429D02*
X113178571Y-66285715D01*
X111678571Y-66285715D01*
X113178571Y-65071429D02*
X111678571Y-65071429D01*
X113178571Y-64357143D02*
X111678571Y-64357143D01*
X113178571Y-63500000D01*
X111678571Y-63500000D01*
X112392857Y-62785714D02*
X112392857Y-62285714D01*
X113178571Y-62071428D02*
X113178571Y-62785714D01*
X111678571Y-62785714D01*
X111678571Y-62071428D01*
X113178571Y-60285714D02*
X111678571Y-60285714D01*
X113178571Y-59571428D02*
X111678571Y-59571428D01*
X113178571Y-58714285D01*
X111678571Y-58714285D01*
D16*
X189452381Y-106619047D02*
X189452381Y-107095238D01*
X188452381Y-107095238D01*
X188928571Y-106285714D02*
X188928571Y-105952380D01*
X189452381Y-105809523D02*
X189452381Y-106285714D01*
X188452381Y-106285714D01*
X188452381Y-105809523D01*
X189452381Y-105380952D02*
X188452381Y-105380952D01*
X188452381Y-105142857D01*
X188500000Y-104999999D01*
X188595238Y-104904761D01*
X188690476Y-104857142D01*
X188880952Y-104809523D01*
X189023810Y-104809523D01*
X189214286Y-104857142D01*
X189309524Y-104904761D01*
X189404762Y-104999999D01*
X189452381Y-105142857D01*
X189452381Y-105380952D01*
X188547619Y-104428571D02*
X188500000Y-104380952D01*
X188452381Y-104285714D01*
X188452381Y-104047618D01*
X188500000Y-103952380D01*
X188547619Y-103904761D01*
X188642857Y-103857142D01*
X188738095Y-103857142D01*
X188880952Y-103904761D01*
X189452381Y-104476190D01*
X189452381Y-103857142D01*
D11*
X184178571Y-110428571D02*
X185678571Y-109928571D01*
X184178571Y-109428571D01*
X185107143Y-108928571D02*
X185107143Y-107785714D01*
D16*
X189452381Y-88619047D02*
X189452381Y-89095238D01*
X188452381Y-89095238D01*
X188928571Y-88285714D02*
X188928571Y-87952380D01*
X189452381Y-87809523D02*
X189452381Y-88285714D01*
X188452381Y-88285714D01*
X188452381Y-87809523D01*
X189452381Y-87380952D02*
X188452381Y-87380952D01*
X188452381Y-87142857D01*
X188500000Y-86999999D01*
X188595238Y-86904761D01*
X188690476Y-86857142D01*
X188880952Y-86809523D01*
X189023810Y-86809523D01*
X189214286Y-86857142D01*
X189309524Y-86904761D01*
X189404762Y-86999999D01*
X189452381Y-87142857D01*
X189452381Y-87380952D01*
X189452381Y-85857142D02*
X189452381Y-86428571D01*
X189452381Y-86142857D02*
X188452381Y-86142857D01*
X188595238Y-86238095D01*
X188690476Y-86333333D01*
X188738095Y-86428571D01*
D11*
X184178571Y-85428571D02*
X185678571Y-84928571D01*
X184178571Y-84428571D01*
X185107143Y-83928571D02*
X185107143Y-82785714D01*
X185678571Y-83357143D02*
X184535714Y-83357143D01*
D12*
X109642857Y-72499999D02*
X109642857Y-72999999D01*
X110428571Y-72999999D02*
X108928571Y-72999999D01*
X108928571Y-72285713D01*
X110428571Y-70928571D02*
X110428571Y-71785714D01*
X110428571Y-71357142D02*
X108928571Y-71357142D01*
X109142857Y-71499999D01*
X109285714Y-71642857D01*
X109357143Y-71785714D01*
D16*
X184833334Y-59607143D02*
X184785715Y-59654762D01*
X184642858Y-59702381D01*
X184547620Y-59702381D01*
X184404762Y-59654762D01*
X184309524Y-59559524D01*
X184261905Y-59464286D01*
X184214286Y-59273810D01*
X184214286Y-59130952D01*
X184261905Y-58940476D01*
X184309524Y-58845238D01*
X184404762Y-58750000D01*
X184547620Y-58702381D01*
X184642858Y-58702381D01*
X184785715Y-58750000D01*
X184833334Y-58797619D01*
X185785715Y-59702381D02*
X185214286Y-59702381D01*
X185500000Y-59702381D02*
X185500000Y-58702381D01*
X185404762Y-58845238D01*
X185309524Y-58940476D01*
X185214286Y-58988095D01*
X167333334Y-59607143D02*
X167285715Y-59654762D01*
X167142858Y-59702381D01*
X167047620Y-59702381D01*
X166904762Y-59654762D01*
X166809524Y-59559524D01*
X166761905Y-59464286D01*
X166714286Y-59273810D01*
X166714286Y-59130952D01*
X166761905Y-58940476D01*
X166809524Y-58845238D01*
X166904762Y-58750000D01*
X167047620Y-58702381D01*
X167142858Y-58702381D01*
X167285715Y-58750000D01*
X167333334Y-58797619D01*
X167714286Y-58797619D02*
X167761905Y-58750000D01*
X167857143Y-58702381D01*
X168095239Y-58702381D01*
X168190477Y-58750000D01*
X168238096Y-58797619D01*
X168285715Y-58892857D01*
X168285715Y-58988095D01*
X168238096Y-59130952D01*
X167666667Y-59702381D01*
X168285715Y-59702381D01*
X181833334Y-59607143D02*
X181785715Y-59654762D01*
X181642858Y-59702381D01*
X181547620Y-59702381D01*
X181404762Y-59654762D01*
X181309524Y-59559524D01*
X181261905Y-59464286D01*
X181214286Y-59273810D01*
X181214286Y-59130952D01*
X181261905Y-58940476D01*
X181309524Y-58845238D01*
X181404762Y-58750000D01*
X181547620Y-58702381D01*
X181642858Y-58702381D01*
X181785715Y-58750000D01*
X181833334Y-58797619D01*
X182166667Y-58702381D02*
X182785715Y-58702381D01*
X182452381Y-59083333D01*
X182595239Y-59083333D01*
X182690477Y-59130952D01*
X182738096Y-59178571D01*
X182785715Y-59273810D01*
X182785715Y-59511905D01*
X182738096Y-59607143D01*
X182690477Y-59654762D01*
X182595239Y-59702381D01*
X182309524Y-59702381D01*
X182214286Y-59654762D01*
X182166667Y-59607143D01*
X170333334Y-59607143D02*
X170285715Y-59654762D01*
X170142858Y-59702381D01*
X170047620Y-59702381D01*
X169904762Y-59654762D01*
X169809524Y-59559524D01*
X169761905Y-59464286D01*
X169714286Y-59273810D01*
X169714286Y-59130952D01*
X169761905Y-58940476D01*
X169809524Y-58845238D01*
X169904762Y-58750000D01*
X170047620Y-58702381D01*
X170142858Y-58702381D01*
X170285715Y-58750000D01*
X170333334Y-58797619D01*
X171190477Y-59035714D02*
X171190477Y-59702381D01*
X170952381Y-58654762D02*
X170714286Y-59369048D01*
X171333334Y-59369048D01*
X170333334Y-130107143D02*
X170285715Y-130154762D01*
X170142858Y-130202381D01*
X170047620Y-130202381D01*
X169904762Y-130154762D01*
X169809524Y-130059524D01*
X169761905Y-129964286D01*
X169714286Y-129773810D01*
X169714286Y-129630952D01*
X169761905Y-129440476D01*
X169809524Y-129345238D01*
X169904762Y-129250000D01*
X170047620Y-129202381D01*
X170142858Y-129202381D01*
X170285715Y-129250000D01*
X170333334Y-129297619D01*
X171238096Y-129202381D02*
X170761905Y-129202381D01*
X170714286Y-129678571D01*
X170761905Y-129630952D01*
X170857143Y-129583333D01*
X171095239Y-129583333D01*
X171190477Y-129630952D01*
X171238096Y-129678571D01*
X171285715Y-129773810D01*
X171285715Y-130011905D01*
X171238096Y-130107143D01*
X171190477Y-130154762D01*
X171095239Y-130202381D01*
X170857143Y-130202381D01*
X170761905Y-130154762D01*
X170714286Y-130107143D01*
X181833334Y-130107143D02*
X181785715Y-130154762D01*
X181642858Y-130202381D01*
X181547620Y-130202381D01*
X181404762Y-130154762D01*
X181309524Y-130059524D01*
X181261905Y-129964286D01*
X181214286Y-129773810D01*
X181214286Y-129630952D01*
X181261905Y-129440476D01*
X181309524Y-129345238D01*
X181404762Y-129250000D01*
X181547620Y-129202381D01*
X181642858Y-129202381D01*
X181785715Y-129250000D01*
X181833334Y-129297619D01*
X182690477Y-129202381D02*
X182500000Y-129202381D01*
X182404762Y-129250000D01*
X182357143Y-129297619D01*
X182261905Y-129440476D01*
X182214286Y-129630952D01*
X182214286Y-130011905D01*
X182261905Y-130107143D01*
X182309524Y-130154762D01*
X182404762Y-130202381D01*
X182595239Y-130202381D01*
X182690477Y-130154762D01*
X182738096Y-130107143D01*
X182785715Y-130011905D01*
X182785715Y-129773810D01*
X182738096Y-129678571D01*
X182690477Y-129630952D01*
X182595239Y-129583333D01*
X182404762Y-129583333D01*
X182309524Y-129630952D01*
X182261905Y-129678571D01*
X182214286Y-129773810D01*
X167333334Y-130107143D02*
X167285715Y-130154762D01*
X167142858Y-130202381D01*
X167047620Y-130202381D01*
X166904762Y-130154762D01*
X166809524Y-130059524D01*
X166761905Y-129964286D01*
X166714286Y-129773810D01*
X166714286Y-129630952D01*
X166761905Y-129440476D01*
X166809524Y-129345238D01*
X166904762Y-129250000D01*
X167047620Y-129202381D01*
X167142858Y-129202381D01*
X167285715Y-129250000D01*
X167333334Y-129297619D01*
X167666667Y-129202381D02*
X168333334Y-129202381D01*
X167904762Y-130202381D01*
X184833334Y-130107143D02*
X184785715Y-130154762D01*
X184642858Y-130202381D01*
X184547620Y-130202381D01*
X184404762Y-130154762D01*
X184309524Y-130059524D01*
X184261905Y-129964286D01*
X184214286Y-129773810D01*
X184214286Y-129630952D01*
X184261905Y-129440476D01*
X184309524Y-129345238D01*
X184404762Y-129250000D01*
X184547620Y-129202381D01*
X184642858Y-129202381D01*
X184785715Y-129250000D01*
X184833334Y-129297619D01*
X185404762Y-129630952D02*
X185309524Y-129583333D01*
X185261905Y-129535714D01*
X185214286Y-129440476D01*
X185214286Y-129392857D01*
X185261905Y-129297619D01*
X185309524Y-129250000D01*
X185404762Y-129202381D01*
X185595239Y-129202381D01*
X185690477Y-129250000D01*
X185738096Y-129297619D01*
X185785715Y-129392857D01*
X185785715Y-129440476D01*
X185738096Y-129535714D01*
X185690477Y-129583333D01*
X185595239Y-129630952D01*
X185404762Y-129630952D01*
X185309524Y-129678571D01*
X185261905Y-129726190D01*
X185214286Y-129821429D01*
X185214286Y-130011905D01*
X185261905Y-130107143D01*
X185309524Y-130154762D01*
X185404762Y-130202381D01*
X185595239Y-130202381D01*
X185690477Y-130154762D01*
X185738096Y-130107143D01*
X185785715Y-130011905D01*
X185785715Y-129821429D01*
X185738096Y-129726190D01*
X185690477Y-129678571D01*
X185595239Y-129630952D01*
X189452381Y-93016666D02*
X188976190Y-93350000D01*
X189452381Y-93588095D02*
X188452381Y-93588095D01*
X188452381Y-93207142D01*
X188500000Y-93111904D01*
X188547619Y-93064285D01*
X188642857Y-93016666D01*
X188785714Y-93016666D01*
X188880952Y-93064285D01*
X188928571Y-93111904D01*
X188976190Y-93207142D01*
X188976190Y-93588095D01*
X189452381Y-92064285D02*
X189452381Y-92635714D01*
X189452381Y-92350000D02*
X188452381Y-92350000D01*
X188595238Y-92445238D01*
X188690476Y-92540476D01*
X188738095Y-92635714D01*
X189452381Y-100316666D02*
X188976190Y-100650000D01*
X189452381Y-100888095D02*
X188452381Y-100888095D01*
X188452381Y-100507142D01*
X188500000Y-100411904D01*
X188547619Y-100364285D01*
X188642857Y-100316666D01*
X188785714Y-100316666D01*
X188880952Y-100364285D01*
X188928571Y-100411904D01*
X188976190Y-100507142D01*
X188976190Y-100888095D01*
X188547619Y-99935714D02*
X188500000Y-99888095D01*
X188452381Y-99792857D01*
X188452381Y-99554761D01*
X188500000Y-99459523D01*
X188547619Y-99411904D01*
X188642857Y-99364285D01*
X188738095Y-99364285D01*
X188880952Y-99411904D01*
X189452381Y-99983333D01*
X189452381Y-99364285D01*
X187261905Y-58452381D02*
X187261905Y-57452381D01*
X187500000Y-57452381D01*
X187642858Y-57500000D01*
X187738096Y-57595238D01*
X187785715Y-57690476D01*
X187833334Y-57880952D01*
X187833334Y-58023810D01*
X187785715Y-58214286D01*
X187738096Y-58309524D01*
X187642858Y-58404762D01*
X187500000Y-58452381D01*
X187261905Y-58452381D01*
X188785715Y-58452381D02*
X188214286Y-58452381D01*
X188500000Y-58452381D02*
X188500000Y-57452381D01*
X188404762Y-57595238D01*
X188309524Y-57690476D01*
X188214286Y-57738095D01*
X173011905Y-58452381D02*
X173011905Y-57452381D01*
X173250000Y-57452381D01*
X173392858Y-57500000D01*
X173488096Y-57595238D01*
X173535715Y-57690476D01*
X173583334Y-57880952D01*
X173583334Y-58023810D01*
X173535715Y-58214286D01*
X173488096Y-58309524D01*
X173392858Y-58404762D01*
X173250000Y-58452381D01*
X173011905Y-58452381D01*
X174440477Y-57785714D02*
X174440477Y-58452381D01*
X174202381Y-57404762D02*
X173964286Y-58119048D01*
X174583334Y-58119048D01*
X187261905Y-128202381D02*
X187261905Y-127202381D01*
X187500000Y-127202381D01*
X187642858Y-127250000D01*
X187738096Y-127345238D01*
X187785715Y-127440476D01*
X187833334Y-127630952D01*
X187833334Y-127773810D01*
X187785715Y-127964286D01*
X187738096Y-128059524D01*
X187642858Y-128154762D01*
X187500000Y-128202381D01*
X187261905Y-128202381D01*
X188404762Y-127630952D02*
X188309524Y-127583333D01*
X188261905Y-127535714D01*
X188214286Y-127440476D01*
X188214286Y-127392857D01*
X188261905Y-127297619D01*
X188309524Y-127250000D01*
X188404762Y-127202381D01*
X188595239Y-127202381D01*
X188690477Y-127250000D01*
X188738096Y-127297619D01*
X188785715Y-127392857D01*
X188785715Y-127440476D01*
X188738096Y-127535714D01*
X188690477Y-127583333D01*
X188595239Y-127630952D01*
X188404762Y-127630952D01*
X188309524Y-127678571D01*
X188261905Y-127726190D01*
X188214286Y-127821429D01*
X188214286Y-128011905D01*
X188261905Y-128107143D01*
X188309524Y-128154762D01*
X188404762Y-128202381D01*
X188595239Y-128202381D01*
X188690477Y-128154762D01*
X188738096Y-128107143D01*
X188785715Y-128011905D01*
X188785715Y-127821429D01*
X188738096Y-127726190D01*
X188690477Y-127678571D01*
X188595239Y-127630952D01*
X163761905Y-128202381D02*
X163761905Y-127202381D01*
X164000000Y-127202381D01*
X164142858Y-127250000D01*
X164238096Y-127345238D01*
X164285715Y-127440476D01*
X164333334Y-127630952D01*
X164333334Y-127773810D01*
X164285715Y-127964286D01*
X164238096Y-128059524D01*
X164142858Y-128154762D01*
X164000000Y-128202381D01*
X163761905Y-128202381D01*
X164666667Y-127202381D02*
X165333334Y-127202381D01*
X164904762Y-128202381D01*
X177761905Y-128202381D02*
X177761905Y-127202381D01*
X178000000Y-127202381D01*
X178142858Y-127250000D01*
X178238096Y-127345238D01*
X178285715Y-127440476D01*
X178333334Y-127630952D01*
X178333334Y-127773810D01*
X178285715Y-127964286D01*
X178238096Y-128059524D01*
X178142858Y-128154762D01*
X178000000Y-128202381D01*
X177761905Y-128202381D01*
X179190477Y-127202381D02*
X179000000Y-127202381D01*
X178904762Y-127250000D01*
X178857143Y-127297619D01*
X178761905Y-127440476D01*
X178714286Y-127630952D01*
X178714286Y-128011905D01*
X178761905Y-128107143D01*
X178809524Y-128154762D01*
X178904762Y-128202381D01*
X179095239Y-128202381D01*
X179190477Y-128154762D01*
X179238096Y-128107143D01*
X179285715Y-128011905D01*
X179285715Y-127773810D01*
X179238096Y-127678571D01*
X179190477Y-127630952D01*
X179095239Y-127583333D01*
X178904762Y-127583333D01*
X178809524Y-127630952D01*
X178761905Y-127678571D01*
X178714286Y-127773810D01*
X173011905Y-128202381D02*
X173011905Y-127202381D01*
X173250000Y-127202381D01*
X173392858Y-127250000D01*
X173488096Y-127345238D01*
X173535715Y-127440476D01*
X173583334Y-127630952D01*
X173583334Y-127773810D01*
X173535715Y-127964286D01*
X173488096Y-128059524D01*
X173392858Y-128154762D01*
X173250000Y-128202381D01*
X173011905Y-128202381D01*
X174488096Y-127202381D02*
X174011905Y-127202381D01*
X173964286Y-127678571D01*
X174011905Y-127630952D01*
X174107143Y-127583333D01*
X174345239Y-127583333D01*
X174440477Y-127630952D01*
X174488096Y-127678571D01*
X174535715Y-127773810D01*
X174535715Y-128011905D01*
X174488096Y-128107143D01*
X174440477Y-128154762D01*
X174345239Y-128202381D01*
X174107143Y-128202381D01*
X174011905Y-128154762D01*
X173964286Y-128107143D01*
X177761905Y-58452381D02*
X177761905Y-57452381D01*
X178000000Y-57452381D01*
X178142858Y-57500000D01*
X178238096Y-57595238D01*
X178285715Y-57690476D01*
X178333334Y-57880952D01*
X178333334Y-58023810D01*
X178285715Y-58214286D01*
X178238096Y-58309524D01*
X178142858Y-58404762D01*
X178000000Y-58452381D01*
X177761905Y-58452381D01*
X178666667Y-57452381D02*
X179285715Y-57452381D01*
X178952381Y-57833333D01*
X179095239Y-57833333D01*
X179190477Y-57880952D01*
X179238096Y-57928571D01*
X179285715Y-58023810D01*
X179285715Y-58261905D01*
X179238096Y-58357143D01*
X179190477Y-58404762D01*
X179095239Y-58452381D01*
X178809524Y-58452381D01*
X178714286Y-58404762D01*
X178666667Y-58357143D01*
X163761905Y-58452381D02*
X163761905Y-57452381D01*
X164000000Y-57452381D01*
X164142858Y-57500000D01*
X164238096Y-57595238D01*
X164285715Y-57690476D01*
X164333334Y-57880952D01*
X164333334Y-58023810D01*
X164285715Y-58214286D01*
X164238096Y-58309524D01*
X164142858Y-58404762D01*
X164000000Y-58452381D01*
X163761905Y-58452381D01*
X164714286Y-57547619D02*
X164761905Y-57500000D01*
X164857143Y-57452381D01*
X165095239Y-57452381D01*
X165190477Y-57500000D01*
X165238096Y-57547619D01*
X165285715Y-57642857D01*
X165285715Y-57738095D01*
X165238096Y-57880952D01*
X164666667Y-58452381D01*
X165285715Y-58452381D01*
D12*
X189485714Y-119464285D02*
X189557143Y-119535714D01*
X189628571Y-119750000D01*
X189628571Y-119892857D01*
X189557143Y-120107142D01*
X189414286Y-120250000D01*
X189271429Y-120321428D01*
X188985714Y-120392857D01*
X188771429Y-120392857D01*
X188485714Y-120321428D01*
X188342857Y-120250000D01*
X188200000Y-120107142D01*
X188128571Y-119892857D01*
X188128571Y-119750000D01*
X188200000Y-119535714D01*
X188271429Y-119464285D01*
X189628571Y-118035714D02*
X189628571Y-118892857D01*
X189628571Y-118464285D02*
X188128571Y-118464285D01*
X188342857Y-118607142D01*
X188485714Y-118750000D01*
X188557143Y-118892857D01*
X188128571Y-117107143D02*
X188128571Y-116964286D01*
X188200000Y-116821429D01*
X188271429Y-116750000D01*
X188414286Y-116678571D01*
X188700000Y-116607143D01*
X189057143Y-116607143D01*
X189342857Y-116678571D01*
X189485714Y-116750000D01*
X189557143Y-116821429D01*
X189628571Y-116964286D01*
X189628571Y-117107143D01*
X189557143Y-117250000D01*
X189485714Y-117321429D01*
X189342857Y-117392857D01*
X189057143Y-117464286D01*
X188700000Y-117464286D01*
X188414286Y-117392857D01*
X188271429Y-117321429D01*
X188200000Y-117250000D01*
X188128571Y-117107143D01*
M02*
