G04 #@! TF.FileFunction,Copper,L2,Bot,Signal*
%FSLAX46Y46*%
G04 Gerber Fmt 4.6, Leading zero omitted, Abs format (unit mm)*
G04 Created by KiCad (PCBNEW 4.0.1-stable) date Saturday, March 12, 2016 'PMt' 11:13:13 PM*
%MOMM*%
G01*
G04 APERTURE LIST*
%ADD10C,0.100000*%
%ADD11C,0.300000*%
%ADD12C,8.000000*%
%ADD13C,2.300000*%
%ADD14C,2.400000*%
%ADD15C,1.800000*%
%ADD16C,1.300000*%
%ADD17C,1.998980*%
%ADD18C,6.500000*%
%ADD19C,1.900000*%
%ADD20R,1.900000X2.000000*%
%ADD21C,5.000000*%
%ADD22C,2.000000*%
%ADD23C,0.254000*%
G04 APERTURE END LIST*
D10*
D11*
X68571428Y-32978571D02*
X68285714Y-32978571D01*
X68142856Y-33050000D01*
X67999999Y-33192857D01*
X67928571Y-33478571D01*
X67928571Y-33978571D01*
X67999999Y-34264286D01*
X68142856Y-34407143D01*
X68285714Y-34478571D01*
X68571428Y-34478571D01*
X68714285Y-34407143D01*
X68857142Y-34264286D01*
X68928571Y-33978571D01*
X68928571Y-33478571D01*
X68857142Y-33192857D01*
X68714285Y-33050000D01*
X68571428Y-32978571D01*
X67357142Y-34407143D02*
X67214285Y-34478571D01*
X66928570Y-34478571D01*
X66785713Y-34407143D01*
X66714285Y-34264286D01*
X66714285Y-34192857D01*
X66785713Y-34050000D01*
X66928570Y-33978571D01*
X67142856Y-33978571D01*
X67285713Y-33907143D01*
X67357142Y-33764286D01*
X67357142Y-33692857D01*
X67285713Y-33550000D01*
X67142856Y-33478571D01*
X66928570Y-33478571D01*
X66785713Y-33550000D01*
X65499999Y-34407143D02*
X65642856Y-34478571D01*
X65928570Y-34478571D01*
X66071427Y-34407143D01*
X66142856Y-34264286D01*
X66142856Y-33692857D01*
X66071427Y-33550000D01*
X65928570Y-33478571D01*
X65642856Y-33478571D01*
X65499999Y-33550000D01*
X65428570Y-33692857D01*
X65428570Y-33835714D01*
X66142856Y-33978571D01*
X63714285Y-34050000D02*
X62999999Y-34050000D01*
X63857142Y-34478571D02*
X63357142Y-32978571D01*
X62857142Y-34478571D01*
X61714285Y-33478571D02*
X61714285Y-34478571D01*
X62357142Y-33478571D02*
X62357142Y-34264286D01*
X62285714Y-34407143D01*
X62142856Y-34478571D01*
X61928571Y-34478571D01*
X61785714Y-34407143D01*
X61714285Y-34335714D01*
X60357142Y-34478571D02*
X60357142Y-32978571D01*
X60357142Y-34407143D02*
X60499999Y-34478571D01*
X60785713Y-34478571D01*
X60928571Y-34407143D01*
X60999999Y-34335714D01*
X61071428Y-34192857D01*
X61071428Y-33764286D01*
X60999999Y-33621429D01*
X60928571Y-33550000D01*
X60785713Y-33478571D01*
X60499999Y-33478571D01*
X60357142Y-33550000D01*
X59642856Y-34478571D02*
X59642856Y-33478571D01*
X59642856Y-32978571D02*
X59714285Y-33050000D01*
X59642856Y-33121429D01*
X59571428Y-33050000D01*
X59642856Y-32978571D01*
X59642856Y-33121429D01*
X58714284Y-34478571D02*
X58857142Y-34407143D01*
X58928570Y-34335714D01*
X58999999Y-34192857D01*
X58999999Y-33764286D01*
X58928570Y-33621429D01*
X58857142Y-33550000D01*
X58714284Y-33478571D01*
X58499999Y-33478571D01*
X58357142Y-33550000D01*
X58285713Y-33621429D01*
X58214284Y-33764286D01*
X58214284Y-34192857D01*
X58285713Y-34335714D01*
X58357142Y-34407143D01*
X58499999Y-34478571D01*
X58714284Y-34478571D01*
X55714284Y-34478571D02*
X56428570Y-34478571D01*
X56428570Y-32978571D01*
X54571427Y-34478571D02*
X54571427Y-33692857D01*
X54642856Y-33550000D01*
X54785713Y-33478571D01*
X55071427Y-33478571D01*
X55214284Y-33550000D01*
X54571427Y-34407143D02*
X54714284Y-34478571D01*
X55071427Y-34478571D01*
X55214284Y-34407143D01*
X55285713Y-34264286D01*
X55285713Y-34121429D01*
X55214284Y-33978571D01*
X55071427Y-33907143D01*
X54714284Y-33907143D01*
X54571427Y-33835714D01*
X53857141Y-34478571D02*
X53857141Y-32978571D01*
X53857141Y-33550000D02*
X53714284Y-33478571D01*
X53428570Y-33478571D01*
X53285713Y-33550000D01*
X53214284Y-33621429D01*
X53142855Y-33764286D01*
X53142855Y-34192857D01*
X53214284Y-34335714D01*
X53285713Y-34407143D01*
X53428570Y-34478571D01*
X53714284Y-34478571D01*
X53857141Y-34407143D01*
X52571427Y-34407143D02*
X52428570Y-34478571D01*
X52142855Y-34478571D01*
X51999998Y-34407143D01*
X51928570Y-34264286D01*
X51928570Y-34192857D01*
X51999998Y-34050000D01*
X52142855Y-33978571D01*
X52357141Y-33978571D01*
X52499998Y-33907143D01*
X52571427Y-33764286D01*
X52571427Y-33692857D01*
X52499998Y-33550000D01*
X52357141Y-33478571D01*
X52142855Y-33478571D01*
X51999998Y-33550000D01*
X50214284Y-33121429D02*
X50142855Y-33050000D01*
X49999998Y-32978571D01*
X49642855Y-32978571D01*
X49499998Y-33050000D01*
X49428569Y-33121429D01*
X49357141Y-33264286D01*
X49357141Y-33407143D01*
X49428569Y-33621429D01*
X50285712Y-34478571D01*
X49357141Y-34478571D01*
X48428570Y-32978571D02*
X48285713Y-32978571D01*
X48142856Y-33050000D01*
X48071427Y-33121429D01*
X47999998Y-33264286D01*
X47928570Y-33550000D01*
X47928570Y-33907143D01*
X47999998Y-34192857D01*
X48071427Y-34335714D01*
X48142856Y-34407143D01*
X48285713Y-34478571D01*
X48428570Y-34478571D01*
X48571427Y-34407143D01*
X48642856Y-34335714D01*
X48714284Y-34192857D01*
X48785713Y-33907143D01*
X48785713Y-33550000D01*
X48714284Y-33264286D01*
X48642856Y-33121429D01*
X48571427Y-33050000D01*
X48428570Y-32978571D01*
X46499999Y-34478571D02*
X47357142Y-34478571D01*
X46928570Y-34478571D02*
X46928570Y-32978571D01*
X47071427Y-33192857D01*
X47214285Y-33335714D01*
X47357142Y-33407143D01*
X45214285Y-32978571D02*
X45499999Y-32978571D01*
X45642856Y-33050000D01*
X45714285Y-33121429D01*
X45857142Y-33335714D01*
X45928571Y-33621429D01*
X45928571Y-34192857D01*
X45857142Y-34335714D01*
X45785714Y-34407143D01*
X45642856Y-34478571D01*
X45357142Y-34478571D01*
X45214285Y-34407143D01*
X45142856Y-34335714D01*
X45071428Y-34192857D01*
X45071428Y-33835714D01*
X45142856Y-33692857D01*
X45214285Y-33621429D01*
X45357142Y-33550000D01*
X45642856Y-33550000D01*
X45785714Y-33621429D01*
X45857142Y-33692857D01*
X45928571Y-33835714D01*
X70999999Y-36807143D02*
X70785713Y-36878571D01*
X70428570Y-36878571D01*
X70285713Y-36807143D01*
X70214284Y-36735714D01*
X70142856Y-36592857D01*
X70142856Y-36450000D01*
X70214284Y-36307143D01*
X70285713Y-36235714D01*
X70428570Y-36164286D01*
X70714284Y-36092857D01*
X70857142Y-36021429D01*
X70928570Y-35950000D01*
X70999999Y-35807143D01*
X70999999Y-35664286D01*
X70928570Y-35521429D01*
X70857142Y-35450000D01*
X70714284Y-35378571D01*
X70357142Y-35378571D01*
X70142856Y-35450000D01*
X68857142Y-36878571D02*
X68857142Y-36092857D01*
X68928571Y-35950000D01*
X69071428Y-35878571D01*
X69357142Y-35878571D01*
X69499999Y-35950000D01*
X68857142Y-36807143D02*
X68999999Y-36878571D01*
X69357142Y-36878571D01*
X69499999Y-36807143D01*
X69571428Y-36664286D01*
X69571428Y-36521429D01*
X69499999Y-36378571D01*
X69357142Y-36307143D01*
X68999999Y-36307143D01*
X68857142Y-36235714D01*
X68142856Y-35878571D02*
X68142856Y-37378571D01*
X68142856Y-35950000D02*
X67999999Y-35878571D01*
X67714285Y-35878571D01*
X67571428Y-35950000D01*
X67499999Y-36021429D01*
X67428570Y-36164286D01*
X67428570Y-36592857D01*
X67499999Y-36735714D01*
X67571428Y-36807143D01*
X67714285Y-36878571D01*
X67999999Y-36878571D01*
X68142856Y-36807143D01*
X66785713Y-35878571D02*
X66785713Y-37378571D01*
X66785713Y-35950000D02*
X66642856Y-35878571D01*
X66357142Y-35878571D01*
X66214285Y-35950000D01*
X66142856Y-36021429D01*
X66071427Y-36164286D01*
X66071427Y-36592857D01*
X66142856Y-36735714D01*
X66214285Y-36807143D01*
X66357142Y-36878571D01*
X66642856Y-36878571D01*
X66785713Y-36807143D01*
X65428570Y-36878571D02*
X65428570Y-35378571D01*
X64785713Y-36878571D02*
X64785713Y-36092857D01*
X64857142Y-35950000D01*
X64999999Y-35878571D01*
X65214284Y-35878571D01*
X65357142Y-35950000D01*
X65428570Y-36021429D01*
X64071427Y-36878571D02*
X64071427Y-35878571D01*
X64071427Y-35378571D02*
X64142856Y-35450000D01*
X64071427Y-35521429D01*
X63999999Y-35450000D01*
X64071427Y-35378571D01*
X64071427Y-35521429D01*
X63357141Y-36878571D02*
X63357141Y-35878571D01*
X63357141Y-36164286D02*
X63285713Y-36021429D01*
X63214284Y-35950000D01*
X63071427Y-35878571D01*
X62928570Y-35878571D01*
X61857142Y-36807143D02*
X61999999Y-36878571D01*
X62285713Y-36878571D01*
X62428570Y-36807143D01*
X62499999Y-36664286D01*
X62499999Y-36092857D01*
X62428570Y-35950000D01*
X62285713Y-35878571D01*
X61999999Y-35878571D01*
X61857142Y-35950000D01*
X61785713Y-36092857D01*
X61785713Y-36235714D01*
X62499999Y-36378571D01*
X59142856Y-36878571D02*
X59642856Y-36164286D01*
X59999999Y-36878571D02*
X59999999Y-35378571D01*
X59428571Y-35378571D01*
X59285713Y-35450000D01*
X59214285Y-35521429D01*
X59142856Y-35664286D01*
X59142856Y-35878571D01*
X59214285Y-36021429D01*
X59285713Y-36092857D01*
X59428571Y-36164286D01*
X59999999Y-36164286D01*
X57928571Y-36807143D02*
X58071428Y-36878571D01*
X58357142Y-36878571D01*
X58499999Y-36807143D01*
X58571428Y-36664286D01*
X58571428Y-36092857D01*
X58499999Y-35950000D01*
X58357142Y-35878571D01*
X58071428Y-35878571D01*
X57928571Y-35950000D01*
X57857142Y-36092857D01*
X57857142Y-36235714D01*
X58571428Y-36378571D01*
X56571428Y-36807143D02*
X56714285Y-36878571D01*
X56999999Y-36878571D01*
X57142857Y-36807143D01*
X57214285Y-36735714D01*
X57285714Y-36592857D01*
X57285714Y-36164286D01*
X57214285Y-36021429D01*
X57142857Y-35950000D01*
X56999999Y-35878571D01*
X56714285Y-35878571D01*
X56571428Y-35950000D01*
X56142857Y-35878571D02*
X55571428Y-35878571D01*
X55928571Y-35378571D02*
X55928571Y-36664286D01*
X55857143Y-36807143D01*
X55714285Y-36878571D01*
X55571428Y-36878571D01*
X55071428Y-36878571D02*
X55071428Y-35878571D01*
X55071428Y-35378571D02*
X55142857Y-35450000D01*
X55071428Y-35521429D01*
X55000000Y-35450000D01*
X55071428Y-35378571D01*
X55071428Y-35521429D01*
X54571428Y-35878571D02*
X53999999Y-35878571D01*
X54357142Y-36878571D02*
X54357142Y-35592857D01*
X54285714Y-35450000D01*
X54142856Y-35378571D01*
X53999999Y-35378571D01*
X53499999Y-36878571D02*
X53499999Y-35878571D01*
X53499999Y-35378571D02*
X53571428Y-35450000D01*
X53499999Y-35521429D01*
X53428571Y-35450000D01*
X53499999Y-35378571D01*
X53499999Y-35521429D01*
X52214285Y-36807143D02*
X52357142Y-36878571D01*
X52642856Y-36878571D01*
X52785713Y-36807143D01*
X52857142Y-36664286D01*
X52857142Y-36092857D01*
X52785713Y-35950000D01*
X52642856Y-35878571D01*
X52357142Y-35878571D01*
X52214285Y-35950000D01*
X52142856Y-36092857D01*
X52142856Y-36235714D01*
X52857142Y-36378571D01*
X51499999Y-36878571D02*
X51499999Y-35878571D01*
X51499999Y-36164286D02*
X51428571Y-36021429D01*
X51357142Y-35950000D01*
X51214285Y-35878571D01*
X51071428Y-35878571D01*
X48571428Y-36878571D02*
X49071428Y-36164286D01*
X49428571Y-36878571D02*
X49428571Y-35378571D01*
X48857143Y-35378571D01*
X48714285Y-35450000D01*
X48642857Y-35521429D01*
X48571428Y-35664286D01*
X48571428Y-35878571D01*
X48642857Y-36021429D01*
X48714285Y-36092857D01*
X48857143Y-36164286D01*
X49428571Y-36164286D01*
X47357143Y-36807143D02*
X47500000Y-36878571D01*
X47785714Y-36878571D01*
X47928571Y-36807143D01*
X48000000Y-36664286D01*
X48000000Y-36092857D01*
X47928571Y-35950000D01*
X47785714Y-35878571D01*
X47500000Y-35878571D01*
X47357143Y-35950000D01*
X47285714Y-36092857D01*
X47285714Y-36235714D01*
X48000000Y-36378571D01*
X46785714Y-35878571D02*
X46428571Y-36878571D01*
X46071429Y-35878571D01*
X45500000Y-36735714D02*
X45428572Y-36807143D01*
X45500000Y-36878571D01*
X45571429Y-36807143D01*
X45500000Y-36735714D01*
X45500000Y-36878571D01*
X43714286Y-36450000D02*
X43000000Y-36450000D01*
X43857143Y-36878571D02*
X43357143Y-35378571D01*
X42857143Y-36878571D01*
D12*
X50000000Y0D03*
D13*
X22060000Y20320000D03*
X22060000Y25400000D03*
X22060000Y-20320000D03*
X22060000Y-25400000D03*
X77940000Y27940000D03*
X77940000Y22860000D03*
X77940000Y-27940000D03*
X77940000Y-22860000D03*
D14*
X96500000Y-7500000D03*
X96500000Y-2500000D03*
X96500000Y2500000D03*
X96500000Y7500000D03*
D15*
X12100000Y9500000D03*
X3900000Y9500000D03*
X12100000Y4500000D03*
X3900000Y4500000D03*
D13*
X84350000Y17350000D03*
X84350000Y22950000D03*
X84350000Y28550000D03*
X84350000Y34150000D03*
X84350000Y-34150000D03*
X84350000Y-28550000D03*
X84350000Y-22950000D03*
X84350000Y-17350000D03*
D16*
X95000000Y28500000D03*
X95000000Y23500000D03*
X95000000Y-23500000D03*
X95000000Y-28500000D03*
D15*
X12100000Y-4500000D03*
X3900000Y-4500000D03*
X12100000Y-9500000D03*
X3900000Y-9500000D03*
X12100000Y-18500000D03*
X3900000Y-18500000D03*
X12100000Y-23500000D03*
X3900000Y-23500000D03*
D17*
X92080000Y11000000D03*
X81920000Y11000000D03*
X92080000Y-11000000D03*
X81920000Y-11000000D03*
D18*
X5000000Y-35000000D03*
X95000000Y-35000000D03*
X5000000Y35000000D03*
X95000000Y35000000D03*
D19*
X7460000Y22000000D03*
X12540000Y22000000D03*
D20*
X86000000Y-5000000D03*
D19*
X88540000Y-5000000D03*
D20*
X86000000Y5000000D03*
D19*
X88540000Y5000000D03*
D21*
X18981812Y-33000000D02*
X36000000Y-33000000D01*
X12100000Y-26118188D02*
X18981812Y-33000000D01*
X12100000Y-23500000D02*
X12100000Y-26118188D01*
X3900000Y-23500000D02*
X12100000Y-23500000D01*
X3900000Y-18500000D02*
X3900000Y-23500000D01*
X12100000Y-18500000D02*
X3900000Y-18500000D01*
X12100000Y-23500000D02*
X12100000Y-18500000D01*
D22*
X12000000Y-23500000D02*
X12100000Y-23500000D01*
X12100000Y-23400000D02*
X12000000Y-23500000D01*
X3900000Y9500000D02*
X3900000Y18440000D01*
X3900000Y18440000D02*
X7460000Y22000000D01*
D21*
X3900000Y4500000D02*
X3900000Y9500000D01*
X12100000Y4500000D02*
X3900000Y4500000D01*
X12100000Y9500000D02*
X12100000Y4500000D01*
X3900000Y9500000D02*
X12100000Y9500000D01*
D22*
X22060000Y-20320000D02*
X24960000Y-20320000D01*
X24960000Y-20320000D02*
X25960001Y-19319999D01*
X25960001Y-19319999D02*
X25960001Y24399999D01*
X25960001Y24399999D02*
X24960000Y25400000D01*
X24960000Y25400000D02*
X22060000Y25400000D01*
X22060000Y25400000D02*
X15940000Y25400000D01*
X15940000Y25400000D02*
X12540000Y22000000D01*
X22060000Y-25400000D02*
X19160000Y-25400000D01*
X19160000Y-25400000D02*
X17600010Y-23840010D01*
X17600010Y-23840010D02*
X17600010Y-15000010D01*
X17600010Y-15000010D02*
X12999999Y-10399999D01*
X12999999Y-10399999D02*
X12100000Y-9500000D01*
X22060000Y20320000D02*
X22060000Y5460000D01*
X22060000Y5460000D02*
X12100000Y-4500000D01*
D21*
X3900000Y-9500000D02*
X3900000Y-4500000D01*
X12100000Y-9500000D02*
X3900000Y-9500000D01*
X12100000Y-4500000D02*
X12100000Y-9500000D01*
X3900000Y-4500000D02*
X12100000Y-4500000D01*
D23*
G36*
X92523868Y38712803D02*
X91291524Y37482608D01*
X90623762Y35874459D01*
X90622242Y34133181D01*
X91287197Y32523868D01*
X92517392Y31291524D01*
X94125541Y30623762D01*
X95866819Y30622242D01*
X97476132Y31287197D01*
X98708476Y32517392D01*
X98798000Y32732990D01*
X98798000Y8031999D01*
X98473885Y8816418D01*
X97819861Y9471585D01*
X96964900Y9826596D01*
X96039162Y9827403D01*
X95183582Y9473885D01*
X94528415Y8819861D01*
X94173404Y7964900D01*
X94172597Y7039162D01*
X94526115Y6183582D01*
X95180139Y5528415D01*
X96035100Y5173404D01*
X96960838Y5172597D01*
X97816418Y5526115D01*
X98471585Y6180139D01*
X98798000Y6966233D01*
X98798000Y-6968001D01*
X98473885Y-6183582D01*
X97819861Y-5528415D01*
X96964900Y-5173404D01*
X96039162Y-5172597D01*
X95183582Y-5526115D01*
X94528415Y-6180139D01*
X94173404Y-7035100D01*
X94172597Y-7960838D01*
X94526115Y-8816418D01*
X95180139Y-9471585D01*
X96035100Y-9826596D01*
X96960838Y-9827403D01*
X97816418Y-9473885D01*
X98471585Y-8819861D01*
X98798000Y-8033767D01*
X98798000Y-32730060D01*
X98712803Y-32523868D01*
X97482608Y-31291524D01*
X95874459Y-30623762D01*
X94133181Y-30622242D01*
X92523868Y-31287197D01*
X91291524Y-32517392D01*
X90623762Y-34125541D01*
X90622242Y-35866819D01*
X91287197Y-37476132D01*
X92517392Y-38708476D01*
X92732990Y-38798000D01*
X34326788Y-38798000D01*
X34271873Y-38715814D01*
X34127000Y-37987491D01*
X34127000Y-31173000D01*
X41437287Y-31173000D01*
X41437287Y-38527000D01*
X72562714Y-38527000D01*
X72562714Y-35411025D01*
X83268581Y-35411025D01*
X83385601Y-35693446D01*
X84049663Y-35945018D01*
X84759448Y-35923314D01*
X85314399Y-35693446D01*
X85431419Y-35411025D01*
X84350000Y-34329605D01*
X83268581Y-35411025D01*
X72562714Y-35411025D01*
X72562714Y-33849663D01*
X82554982Y-33849663D01*
X82576686Y-34559448D01*
X82806554Y-35114399D01*
X83088975Y-35231419D01*
X84170395Y-34150000D01*
X84529605Y-34150000D01*
X85611025Y-35231419D01*
X85893446Y-35114399D01*
X86145018Y-34450337D01*
X86123314Y-33740552D01*
X85893446Y-33185601D01*
X85611025Y-33068581D01*
X84529605Y-34150000D01*
X84170395Y-34150000D01*
X83088975Y-33068581D01*
X82806554Y-33185601D01*
X82554982Y-33849663D01*
X72562714Y-33849663D01*
X72562714Y-32888975D01*
X83268581Y-32888975D01*
X84350000Y-33970395D01*
X85431419Y-32888975D01*
X85314399Y-32606554D01*
X84650337Y-32354982D01*
X83940552Y-32376686D01*
X83385601Y-32606554D01*
X83268581Y-32888975D01*
X72562714Y-32888975D01*
X72562714Y-31173000D01*
X41437287Y-31173000D01*
X34127000Y-31173000D01*
X34127000Y-28390936D01*
X75662606Y-28390936D01*
X76008528Y-29228132D01*
X76648499Y-29869221D01*
X77485090Y-30216604D01*
X78390936Y-30217394D01*
X79228132Y-29871472D01*
X79869221Y-29231501D01*
X79964959Y-29000936D01*
X82072606Y-29000936D01*
X82418528Y-29838132D01*
X83058499Y-30479221D01*
X83895090Y-30826604D01*
X84800936Y-30827394D01*
X85638132Y-30481472D01*
X86279221Y-29841501D01*
X86626604Y-29004910D01*
X86626737Y-28851916D01*
X93222693Y-28851916D01*
X93492655Y-29505274D01*
X93992096Y-30005588D01*
X94644982Y-30276690D01*
X95351916Y-30277307D01*
X96005274Y-30007345D01*
X96505588Y-29507904D01*
X96776690Y-28855018D01*
X96777307Y-28148084D01*
X96507345Y-27494726D01*
X96007904Y-26994412D01*
X95355018Y-26723310D01*
X94648084Y-26722693D01*
X93994726Y-26992655D01*
X93494412Y-27492096D01*
X93223310Y-28144982D01*
X93222693Y-28851916D01*
X86626737Y-28851916D01*
X86627394Y-28099064D01*
X86281472Y-27261868D01*
X85641501Y-26620779D01*
X84804910Y-26273396D01*
X83899064Y-26272606D01*
X83061868Y-26618528D01*
X82420779Y-27258499D01*
X82073396Y-28095090D01*
X82072606Y-29000936D01*
X79964959Y-29000936D01*
X80216604Y-28394910D01*
X80217394Y-27489064D01*
X79871472Y-26651868D01*
X79231501Y-26010779D01*
X78394910Y-25663396D01*
X77489064Y-25662606D01*
X76651868Y-26008528D01*
X76010779Y-26648499D01*
X75663396Y-27485090D01*
X75662606Y-28390936D01*
X34127000Y-28390936D01*
X34127000Y-23310936D01*
X75662606Y-23310936D01*
X76008528Y-24148132D01*
X76648499Y-24789221D01*
X77485090Y-25136604D01*
X78390936Y-25137394D01*
X79228132Y-24791472D01*
X79869221Y-24151501D01*
X80180882Y-23400936D01*
X82072606Y-23400936D01*
X82418528Y-24238132D01*
X83058499Y-24879221D01*
X83895090Y-25226604D01*
X84800936Y-25227394D01*
X85638132Y-24881472D01*
X86279221Y-24241501D01*
X86440990Y-23851916D01*
X93222693Y-23851916D01*
X93492655Y-24505274D01*
X93992096Y-25005588D01*
X94644982Y-25276690D01*
X95351916Y-25277307D01*
X96005274Y-25007345D01*
X96505588Y-24507904D01*
X96776690Y-23855018D01*
X96777307Y-23148084D01*
X96507345Y-22494726D01*
X96007904Y-21994412D01*
X95355018Y-21723310D01*
X94648084Y-21722693D01*
X93994726Y-21992655D01*
X93494412Y-22492096D01*
X93223310Y-23144982D01*
X93222693Y-23851916D01*
X86440990Y-23851916D01*
X86626604Y-23404910D01*
X86627394Y-22499064D01*
X86281472Y-21661868D01*
X85641501Y-21020779D01*
X84804910Y-20673396D01*
X83899064Y-20672606D01*
X83061868Y-21018528D01*
X82420779Y-21658499D01*
X82073396Y-22495090D01*
X82072606Y-23400936D01*
X80180882Y-23400936D01*
X80216604Y-23314910D01*
X80217394Y-22409064D01*
X79871472Y-21571868D01*
X79231501Y-20930779D01*
X78394910Y-20583396D01*
X77489064Y-20582606D01*
X76651868Y-20928528D01*
X76010779Y-21568499D01*
X75663396Y-22405090D01*
X75662606Y-23310936D01*
X34127000Y-23310936D01*
X34127000Y-17800936D01*
X82072606Y-17800936D01*
X82418528Y-18638132D01*
X83058499Y-19279221D01*
X83895090Y-19626604D01*
X84800936Y-19627394D01*
X85638132Y-19281472D01*
X86279221Y-18641501D01*
X86626604Y-17804910D01*
X86627394Y-16899064D01*
X86281472Y-16061868D01*
X85641501Y-15420779D01*
X84804910Y-15073396D01*
X83899064Y-15072606D01*
X83061868Y-15418528D01*
X82420779Y-16058499D01*
X82073396Y-16895090D01*
X82072606Y-17800936D01*
X34127000Y-17800936D01*
X34127000Y-11421129D01*
X79793142Y-11421129D01*
X80116199Y-12202986D01*
X80713868Y-12801699D01*
X81495159Y-13126120D01*
X82341129Y-13126858D01*
X83122986Y-12803801D01*
X83721699Y-12206132D01*
X84046120Y-11424841D01*
X84046123Y-11421129D01*
X89953142Y-11421129D01*
X90276199Y-12202986D01*
X90873868Y-12801699D01*
X91655159Y-13126120D01*
X92501129Y-13126858D01*
X93282986Y-12803801D01*
X93881699Y-12206132D01*
X94206120Y-11424841D01*
X94206858Y-10578871D01*
X93883801Y-9797014D01*
X93286132Y-9198301D01*
X92504841Y-8873880D01*
X91658871Y-8873142D01*
X90877014Y-9196199D01*
X90278301Y-9793868D01*
X89953880Y-10575159D01*
X89953142Y-11421129D01*
X84046123Y-11421129D01*
X84046858Y-10578871D01*
X83723801Y-9797014D01*
X83126132Y-9198301D01*
X82344841Y-8873880D01*
X81498871Y-8873142D01*
X80717014Y-9196199D01*
X80118301Y-9793868D01*
X79793880Y-10575159D01*
X79793142Y-11421129D01*
X34127000Y-11421129D01*
X34127000Y-1015349D01*
X44872112Y-1015349D01*
X45651006Y-2900418D01*
X47091996Y-4343925D01*
X48975703Y-5126108D01*
X51015349Y-5127888D01*
X52900418Y-4348994D01*
X53250021Y-4000000D01*
X83900921Y-4000000D01*
X83900921Y-6000000D01*
X83979506Y-6417641D01*
X84226331Y-6801219D01*
X84602944Y-7058548D01*
X85050000Y-7149079D01*
X86950000Y-7149079D01*
X87367641Y-7070494D01*
X87751219Y-6823669D01*
X87983280Y-6484037D01*
X88287398Y-6596188D01*
X88917461Y-6571352D01*
X89384208Y-6378019D01*
X89476745Y-6116350D01*
X88540000Y-5179605D01*
X88525858Y-5193748D01*
X88346253Y-5014143D01*
X88360395Y-5000000D01*
X88719605Y-5000000D01*
X89656350Y-5936745D01*
X89918019Y-5844208D01*
X90136188Y-5252602D01*
X90111352Y-4622539D01*
X89918019Y-4155792D01*
X89656350Y-4063255D01*
X88719605Y-5000000D01*
X88360395Y-5000000D01*
X88346253Y-4985858D01*
X88525858Y-4806253D01*
X88540000Y-4820395D01*
X89476745Y-3883650D01*
X89446164Y-3797175D01*
X95382430Y-3797175D01*
X95505565Y-4084788D01*
X96187734Y-4344707D01*
X96917443Y-4323786D01*
X97494435Y-4084788D01*
X97617570Y-3797175D01*
X96500000Y-2679605D01*
X95382430Y-3797175D01*
X89446164Y-3797175D01*
X89384208Y-3621981D01*
X88792602Y-3403812D01*
X88162539Y-3428648D01*
X87972292Y-3507451D01*
X87773669Y-3198781D01*
X87397056Y-2941452D01*
X86950000Y-2850921D01*
X85050000Y-2850921D01*
X84632359Y-2929506D01*
X84248781Y-3176331D01*
X83991452Y-3552944D01*
X83900921Y-4000000D01*
X53250021Y-4000000D01*
X54343925Y-2908004D01*
X54643007Y-2187734D01*
X94655293Y-2187734D01*
X94676214Y-2917443D01*
X94915212Y-3494435D01*
X95202825Y-3617570D01*
X96320395Y-2500000D01*
X96679605Y-2500000D01*
X97797175Y-3617570D01*
X98084788Y-3494435D01*
X98344707Y-2812266D01*
X98323786Y-2082557D01*
X98084788Y-1505565D01*
X97797175Y-1382430D01*
X96679605Y-2500000D01*
X96320395Y-2500000D01*
X95202825Y-1382430D01*
X94915212Y-1505565D01*
X94655293Y-2187734D01*
X54643007Y-2187734D01*
X55051976Y-1202825D01*
X95382430Y-1202825D01*
X96500000Y-2320395D01*
X97617570Y-1202825D01*
X97494435Y-915212D01*
X96812266Y-655293D01*
X96082557Y-676214D01*
X95505565Y-915212D01*
X95382430Y-1202825D01*
X55051976Y-1202825D01*
X55126108Y-1024297D01*
X55127888Y1015349D01*
X55050425Y1202825D01*
X95382430Y1202825D01*
X95505565Y915212D01*
X96187734Y655293D01*
X96917443Y676214D01*
X97494435Y915212D01*
X97617570Y1202825D01*
X96500000Y2320395D01*
X95382430Y1202825D01*
X55050425Y1202825D01*
X54385418Y2812266D01*
X94655293Y2812266D01*
X94676214Y2082557D01*
X94915212Y1505565D01*
X95202825Y1382430D01*
X96320395Y2500000D01*
X96679605Y2500000D01*
X97797175Y1382430D01*
X98084788Y1505565D01*
X98344707Y2187734D01*
X98323786Y2917443D01*
X98084788Y3494435D01*
X97797175Y3617570D01*
X96679605Y2500000D01*
X96320395Y2500000D01*
X95202825Y3617570D01*
X94915212Y3494435D01*
X94655293Y2812266D01*
X54385418Y2812266D01*
X54348994Y2900418D01*
X52908004Y4343925D01*
X51024297Y5126108D01*
X48984651Y5127888D01*
X47099582Y4348994D01*
X45656075Y2908004D01*
X44873892Y1024297D01*
X44872112Y-1015349D01*
X34127000Y-1015349D01*
X34127000Y6000000D01*
X83900921Y6000000D01*
X83900921Y4000000D01*
X83979506Y3582359D01*
X84226331Y3198781D01*
X84602944Y2941452D01*
X85050000Y2850921D01*
X86950000Y2850921D01*
X87367641Y2929506D01*
X87658897Y3116924D01*
X88125047Y2923361D01*
X88951328Y2922640D01*
X89714989Y3238178D01*
X90274961Y3797175D01*
X95382430Y3797175D01*
X96500000Y2679605D01*
X97617570Y3797175D01*
X97494435Y4084788D01*
X96812266Y4344707D01*
X96082557Y4323786D01*
X95505565Y4084788D01*
X95382430Y3797175D01*
X90274961Y3797175D01*
X90299768Y3821938D01*
X90616639Y4585047D01*
X90617360Y5411328D01*
X90301822Y6174989D01*
X89718062Y6759768D01*
X88954953Y7076639D01*
X88128672Y7077360D01*
X87655601Y6881891D01*
X87397056Y7058548D01*
X86950000Y7149079D01*
X85050000Y7149079D01*
X84632359Y7070494D01*
X84248781Y6823669D01*
X83991452Y6447056D01*
X83900921Y6000000D01*
X34127000Y6000000D01*
X34127000Y10578871D01*
X79793142Y10578871D01*
X80116199Y9797014D01*
X80713868Y9198301D01*
X81495159Y8873880D01*
X82341129Y8873142D01*
X83122986Y9196199D01*
X83721699Y9793868D01*
X83744108Y9847837D01*
X91107443Y9847837D01*
X91206042Y9581035D01*
X91815582Y9354599D01*
X92465377Y9378659D01*
X92953958Y9581035D01*
X93052557Y9847837D01*
X92080000Y10820395D01*
X91107443Y9847837D01*
X83744108Y9847837D01*
X84046120Y10575159D01*
X84046721Y11264418D01*
X90434599Y11264418D01*
X90458659Y10614623D01*
X90661035Y10126042D01*
X90927837Y10027443D01*
X91900395Y11000000D01*
X92259605Y11000000D01*
X93232163Y10027443D01*
X93498965Y10126042D01*
X93725401Y10735582D01*
X93701341Y11385377D01*
X93498965Y11873958D01*
X93232163Y11972557D01*
X92259605Y11000000D01*
X91900395Y11000000D01*
X90927837Y11972557D01*
X90661035Y11873958D01*
X90434599Y11264418D01*
X84046721Y11264418D01*
X84046858Y11421129D01*
X83744801Y12152163D01*
X91107443Y12152163D01*
X92080000Y11179605D01*
X93052557Y12152163D01*
X92953958Y12418965D01*
X92344418Y12645401D01*
X91694623Y12621341D01*
X91206042Y12418965D01*
X91107443Y12152163D01*
X83744801Y12152163D01*
X83723801Y12202986D01*
X83126132Y12801699D01*
X82344841Y13126120D01*
X81498871Y13126858D01*
X80717014Y12803801D01*
X80118301Y12206132D01*
X79793880Y11424841D01*
X79793142Y10578871D01*
X34127000Y10578871D01*
X34127000Y16899064D01*
X82072606Y16899064D01*
X82418528Y16061868D01*
X83058499Y15420779D01*
X83895090Y15073396D01*
X84800936Y15072606D01*
X85638132Y15418528D01*
X86279221Y16058499D01*
X86626604Y16895090D01*
X86627394Y17800936D01*
X86281472Y18638132D01*
X85641501Y19279221D01*
X84804910Y19626604D01*
X83899064Y19627394D01*
X83061868Y19281472D01*
X82420779Y18641501D01*
X82073396Y17804910D01*
X82072606Y16899064D01*
X34127000Y16899064D01*
X34127000Y22409064D01*
X75662606Y22409064D01*
X76008528Y21571868D01*
X76648499Y20930779D01*
X77485090Y20583396D01*
X78390936Y20582606D01*
X79228132Y20928528D01*
X79869221Y21568499D01*
X80216604Y22405090D01*
X80216685Y22499064D01*
X82072606Y22499064D01*
X82418528Y21661868D01*
X83058499Y21020779D01*
X83895090Y20673396D01*
X84800936Y20672606D01*
X85638132Y21018528D01*
X86279221Y21658499D01*
X86626604Y22495090D01*
X86627173Y23148084D01*
X93222693Y23148084D01*
X93492655Y22494726D01*
X93992096Y21994412D01*
X94644982Y21723310D01*
X95351916Y21722693D01*
X96005274Y21992655D01*
X96505588Y22492096D01*
X96776690Y23144982D01*
X96777307Y23851916D01*
X96507345Y24505274D01*
X96007904Y25005588D01*
X95355018Y25276690D01*
X94648084Y25277307D01*
X93994726Y25007345D01*
X93494412Y24507904D01*
X93223310Y23855018D01*
X93222693Y23148084D01*
X86627173Y23148084D01*
X86627394Y23400936D01*
X86281472Y24238132D01*
X85641501Y24879221D01*
X84804910Y25226604D01*
X83899064Y25227394D01*
X83061868Y24881472D01*
X82420779Y24241501D01*
X82073396Y23404910D01*
X82072606Y22499064D01*
X80216685Y22499064D01*
X80217394Y23310936D01*
X79871472Y24148132D01*
X79231501Y24789221D01*
X78394910Y25136604D01*
X77489064Y25137394D01*
X76651868Y24791472D01*
X76010779Y24151501D01*
X75663396Y23314910D01*
X75662606Y22409064D01*
X34127000Y22409064D01*
X34127000Y27489064D01*
X75662606Y27489064D01*
X76008528Y26651868D01*
X76648499Y26010779D01*
X77485090Y25663396D01*
X78390936Y25662606D01*
X79228132Y26008528D01*
X79869221Y26648499D01*
X80216604Y27485090D01*
X80217139Y28099064D01*
X82072606Y28099064D01*
X82418528Y27261868D01*
X83058499Y26620779D01*
X83895090Y26273396D01*
X84800936Y26272606D01*
X85638132Y26618528D01*
X86279221Y27258499D01*
X86626604Y28095090D01*
X86626650Y28148084D01*
X93222693Y28148084D01*
X93492655Y27494726D01*
X93992096Y26994412D01*
X94644982Y26723310D01*
X95351916Y26722693D01*
X96005274Y26992655D01*
X96505588Y27492096D01*
X96776690Y28144982D01*
X96777307Y28851916D01*
X96507345Y29505274D01*
X96007904Y30005588D01*
X95355018Y30276690D01*
X94648084Y30277307D01*
X93994726Y30007345D01*
X93494412Y29507904D01*
X93223310Y28855018D01*
X93222693Y28148084D01*
X86626650Y28148084D01*
X86627394Y29000936D01*
X86281472Y29838132D01*
X85641501Y30479221D01*
X84804910Y30826604D01*
X83899064Y30827394D01*
X83061868Y30481472D01*
X82420779Y29841501D01*
X82073396Y29004910D01*
X82072606Y28099064D01*
X80217139Y28099064D01*
X80217394Y28390936D01*
X79871472Y29228132D01*
X79231501Y29869221D01*
X78394910Y30216604D01*
X77489064Y30217394D01*
X76651868Y29871472D01*
X76010779Y29231501D01*
X75663396Y28394910D01*
X75662606Y27489064D01*
X34127000Y27489064D01*
X34127000Y32888975D01*
X83268581Y32888975D01*
X83385601Y32606554D01*
X84049663Y32354982D01*
X84759448Y32376686D01*
X85314399Y32606554D01*
X85431419Y32888975D01*
X84350000Y33970395D01*
X83268581Y32888975D01*
X34127000Y32888975D01*
X34127000Y34450337D01*
X82554982Y34450337D01*
X82576686Y33740552D01*
X82806554Y33185601D01*
X83088975Y33068581D01*
X84170395Y34150000D01*
X84529605Y34150000D01*
X85611025Y33068581D01*
X85893446Y33185601D01*
X86145018Y33849663D01*
X86123314Y34559448D01*
X85893446Y35114399D01*
X85611025Y35231419D01*
X84529605Y34150000D01*
X84170395Y34150000D01*
X83088975Y35231419D01*
X82806554Y35114399D01*
X82554982Y34450337D01*
X34127000Y34450337D01*
X34127000Y35411025D01*
X83268581Y35411025D01*
X84350000Y34329605D01*
X85431419Y35411025D01*
X85314399Y35693446D01*
X84650337Y35945018D01*
X83940552Y35923314D01*
X83385601Y35693446D01*
X83268581Y35411025D01*
X34127000Y35411025D01*
X34127000Y37987491D01*
X34271873Y38715814D01*
X34326788Y38798000D01*
X92730060Y38798000D01*
X92523868Y38712803D01*
X92523868Y38712803D01*
G37*
X92523868Y38712803D02*
X91291524Y37482608D01*
X90623762Y35874459D01*
X90622242Y34133181D01*
X91287197Y32523868D01*
X92517392Y31291524D01*
X94125541Y30623762D01*
X95866819Y30622242D01*
X97476132Y31287197D01*
X98708476Y32517392D01*
X98798000Y32732990D01*
X98798000Y8031999D01*
X98473885Y8816418D01*
X97819861Y9471585D01*
X96964900Y9826596D01*
X96039162Y9827403D01*
X95183582Y9473885D01*
X94528415Y8819861D01*
X94173404Y7964900D01*
X94172597Y7039162D01*
X94526115Y6183582D01*
X95180139Y5528415D01*
X96035100Y5173404D01*
X96960838Y5172597D01*
X97816418Y5526115D01*
X98471585Y6180139D01*
X98798000Y6966233D01*
X98798000Y-6968001D01*
X98473885Y-6183582D01*
X97819861Y-5528415D01*
X96964900Y-5173404D01*
X96039162Y-5172597D01*
X95183582Y-5526115D01*
X94528415Y-6180139D01*
X94173404Y-7035100D01*
X94172597Y-7960838D01*
X94526115Y-8816418D01*
X95180139Y-9471585D01*
X96035100Y-9826596D01*
X96960838Y-9827403D01*
X97816418Y-9473885D01*
X98471585Y-8819861D01*
X98798000Y-8033767D01*
X98798000Y-32730060D01*
X98712803Y-32523868D01*
X97482608Y-31291524D01*
X95874459Y-30623762D01*
X94133181Y-30622242D01*
X92523868Y-31287197D01*
X91291524Y-32517392D01*
X90623762Y-34125541D01*
X90622242Y-35866819D01*
X91287197Y-37476132D01*
X92517392Y-38708476D01*
X92732990Y-38798000D01*
X34326788Y-38798000D01*
X34271873Y-38715814D01*
X34127000Y-37987491D01*
X34127000Y-31173000D01*
X41437287Y-31173000D01*
X41437287Y-38527000D01*
X72562714Y-38527000D01*
X72562714Y-35411025D01*
X83268581Y-35411025D01*
X83385601Y-35693446D01*
X84049663Y-35945018D01*
X84759448Y-35923314D01*
X85314399Y-35693446D01*
X85431419Y-35411025D01*
X84350000Y-34329605D01*
X83268581Y-35411025D01*
X72562714Y-35411025D01*
X72562714Y-33849663D01*
X82554982Y-33849663D01*
X82576686Y-34559448D01*
X82806554Y-35114399D01*
X83088975Y-35231419D01*
X84170395Y-34150000D01*
X84529605Y-34150000D01*
X85611025Y-35231419D01*
X85893446Y-35114399D01*
X86145018Y-34450337D01*
X86123314Y-33740552D01*
X85893446Y-33185601D01*
X85611025Y-33068581D01*
X84529605Y-34150000D01*
X84170395Y-34150000D01*
X83088975Y-33068581D01*
X82806554Y-33185601D01*
X82554982Y-33849663D01*
X72562714Y-33849663D01*
X72562714Y-32888975D01*
X83268581Y-32888975D01*
X84350000Y-33970395D01*
X85431419Y-32888975D01*
X85314399Y-32606554D01*
X84650337Y-32354982D01*
X83940552Y-32376686D01*
X83385601Y-32606554D01*
X83268581Y-32888975D01*
X72562714Y-32888975D01*
X72562714Y-31173000D01*
X41437287Y-31173000D01*
X34127000Y-31173000D01*
X34127000Y-28390936D01*
X75662606Y-28390936D01*
X76008528Y-29228132D01*
X76648499Y-29869221D01*
X77485090Y-30216604D01*
X78390936Y-30217394D01*
X79228132Y-29871472D01*
X79869221Y-29231501D01*
X79964959Y-29000936D01*
X82072606Y-29000936D01*
X82418528Y-29838132D01*
X83058499Y-30479221D01*
X83895090Y-30826604D01*
X84800936Y-30827394D01*
X85638132Y-30481472D01*
X86279221Y-29841501D01*
X86626604Y-29004910D01*
X86626737Y-28851916D01*
X93222693Y-28851916D01*
X93492655Y-29505274D01*
X93992096Y-30005588D01*
X94644982Y-30276690D01*
X95351916Y-30277307D01*
X96005274Y-30007345D01*
X96505588Y-29507904D01*
X96776690Y-28855018D01*
X96777307Y-28148084D01*
X96507345Y-27494726D01*
X96007904Y-26994412D01*
X95355018Y-26723310D01*
X94648084Y-26722693D01*
X93994726Y-26992655D01*
X93494412Y-27492096D01*
X93223310Y-28144982D01*
X93222693Y-28851916D01*
X86626737Y-28851916D01*
X86627394Y-28099064D01*
X86281472Y-27261868D01*
X85641501Y-26620779D01*
X84804910Y-26273396D01*
X83899064Y-26272606D01*
X83061868Y-26618528D01*
X82420779Y-27258499D01*
X82073396Y-28095090D01*
X82072606Y-29000936D01*
X79964959Y-29000936D01*
X80216604Y-28394910D01*
X80217394Y-27489064D01*
X79871472Y-26651868D01*
X79231501Y-26010779D01*
X78394910Y-25663396D01*
X77489064Y-25662606D01*
X76651868Y-26008528D01*
X76010779Y-26648499D01*
X75663396Y-27485090D01*
X75662606Y-28390936D01*
X34127000Y-28390936D01*
X34127000Y-23310936D01*
X75662606Y-23310936D01*
X76008528Y-24148132D01*
X76648499Y-24789221D01*
X77485090Y-25136604D01*
X78390936Y-25137394D01*
X79228132Y-24791472D01*
X79869221Y-24151501D01*
X80180882Y-23400936D01*
X82072606Y-23400936D01*
X82418528Y-24238132D01*
X83058499Y-24879221D01*
X83895090Y-25226604D01*
X84800936Y-25227394D01*
X85638132Y-24881472D01*
X86279221Y-24241501D01*
X86440990Y-23851916D01*
X93222693Y-23851916D01*
X93492655Y-24505274D01*
X93992096Y-25005588D01*
X94644982Y-25276690D01*
X95351916Y-25277307D01*
X96005274Y-25007345D01*
X96505588Y-24507904D01*
X96776690Y-23855018D01*
X96777307Y-23148084D01*
X96507345Y-22494726D01*
X96007904Y-21994412D01*
X95355018Y-21723310D01*
X94648084Y-21722693D01*
X93994726Y-21992655D01*
X93494412Y-22492096D01*
X93223310Y-23144982D01*
X93222693Y-23851916D01*
X86440990Y-23851916D01*
X86626604Y-23404910D01*
X86627394Y-22499064D01*
X86281472Y-21661868D01*
X85641501Y-21020779D01*
X84804910Y-20673396D01*
X83899064Y-20672606D01*
X83061868Y-21018528D01*
X82420779Y-21658499D01*
X82073396Y-22495090D01*
X82072606Y-23400936D01*
X80180882Y-23400936D01*
X80216604Y-23314910D01*
X80217394Y-22409064D01*
X79871472Y-21571868D01*
X79231501Y-20930779D01*
X78394910Y-20583396D01*
X77489064Y-20582606D01*
X76651868Y-20928528D01*
X76010779Y-21568499D01*
X75663396Y-22405090D01*
X75662606Y-23310936D01*
X34127000Y-23310936D01*
X34127000Y-17800936D01*
X82072606Y-17800936D01*
X82418528Y-18638132D01*
X83058499Y-19279221D01*
X83895090Y-19626604D01*
X84800936Y-19627394D01*
X85638132Y-19281472D01*
X86279221Y-18641501D01*
X86626604Y-17804910D01*
X86627394Y-16899064D01*
X86281472Y-16061868D01*
X85641501Y-15420779D01*
X84804910Y-15073396D01*
X83899064Y-15072606D01*
X83061868Y-15418528D01*
X82420779Y-16058499D01*
X82073396Y-16895090D01*
X82072606Y-17800936D01*
X34127000Y-17800936D01*
X34127000Y-11421129D01*
X79793142Y-11421129D01*
X80116199Y-12202986D01*
X80713868Y-12801699D01*
X81495159Y-13126120D01*
X82341129Y-13126858D01*
X83122986Y-12803801D01*
X83721699Y-12206132D01*
X84046120Y-11424841D01*
X84046123Y-11421129D01*
X89953142Y-11421129D01*
X90276199Y-12202986D01*
X90873868Y-12801699D01*
X91655159Y-13126120D01*
X92501129Y-13126858D01*
X93282986Y-12803801D01*
X93881699Y-12206132D01*
X94206120Y-11424841D01*
X94206858Y-10578871D01*
X93883801Y-9797014D01*
X93286132Y-9198301D01*
X92504841Y-8873880D01*
X91658871Y-8873142D01*
X90877014Y-9196199D01*
X90278301Y-9793868D01*
X89953880Y-10575159D01*
X89953142Y-11421129D01*
X84046123Y-11421129D01*
X84046858Y-10578871D01*
X83723801Y-9797014D01*
X83126132Y-9198301D01*
X82344841Y-8873880D01*
X81498871Y-8873142D01*
X80717014Y-9196199D01*
X80118301Y-9793868D01*
X79793880Y-10575159D01*
X79793142Y-11421129D01*
X34127000Y-11421129D01*
X34127000Y-1015349D01*
X44872112Y-1015349D01*
X45651006Y-2900418D01*
X47091996Y-4343925D01*
X48975703Y-5126108D01*
X51015349Y-5127888D01*
X52900418Y-4348994D01*
X53250021Y-4000000D01*
X83900921Y-4000000D01*
X83900921Y-6000000D01*
X83979506Y-6417641D01*
X84226331Y-6801219D01*
X84602944Y-7058548D01*
X85050000Y-7149079D01*
X86950000Y-7149079D01*
X87367641Y-7070494D01*
X87751219Y-6823669D01*
X87983280Y-6484037D01*
X88287398Y-6596188D01*
X88917461Y-6571352D01*
X89384208Y-6378019D01*
X89476745Y-6116350D01*
X88540000Y-5179605D01*
X88525858Y-5193748D01*
X88346253Y-5014143D01*
X88360395Y-5000000D01*
X88719605Y-5000000D01*
X89656350Y-5936745D01*
X89918019Y-5844208D01*
X90136188Y-5252602D01*
X90111352Y-4622539D01*
X89918019Y-4155792D01*
X89656350Y-4063255D01*
X88719605Y-5000000D01*
X88360395Y-5000000D01*
X88346253Y-4985858D01*
X88525858Y-4806253D01*
X88540000Y-4820395D01*
X89476745Y-3883650D01*
X89446164Y-3797175D01*
X95382430Y-3797175D01*
X95505565Y-4084788D01*
X96187734Y-4344707D01*
X96917443Y-4323786D01*
X97494435Y-4084788D01*
X97617570Y-3797175D01*
X96500000Y-2679605D01*
X95382430Y-3797175D01*
X89446164Y-3797175D01*
X89384208Y-3621981D01*
X88792602Y-3403812D01*
X88162539Y-3428648D01*
X87972292Y-3507451D01*
X87773669Y-3198781D01*
X87397056Y-2941452D01*
X86950000Y-2850921D01*
X85050000Y-2850921D01*
X84632359Y-2929506D01*
X84248781Y-3176331D01*
X83991452Y-3552944D01*
X83900921Y-4000000D01*
X53250021Y-4000000D01*
X54343925Y-2908004D01*
X54643007Y-2187734D01*
X94655293Y-2187734D01*
X94676214Y-2917443D01*
X94915212Y-3494435D01*
X95202825Y-3617570D01*
X96320395Y-2500000D01*
X96679605Y-2500000D01*
X97797175Y-3617570D01*
X98084788Y-3494435D01*
X98344707Y-2812266D01*
X98323786Y-2082557D01*
X98084788Y-1505565D01*
X97797175Y-1382430D01*
X96679605Y-2500000D01*
X96320395Y-2500000D01*
X95202825Y-1382430D01*
X94915212Y-1505565D01*
X94655293Y-2187734D01*
X54643007Y-2187734D01*
X55051976Y-1202825D01*
X95382430Y-1202825D01*
X96500000Y-2320395D01*
X97617570Y-1202825D01*
X97494435Y-915212D01*
X96812266Y-655293D01*
X96082557Y-676214D01*
X95505565Y-915212D01*
X95382430Y-1202825D01*
X55051976Y-1202825D01*
X55126108Y-1024297D01*
X55127888Y1015349D01*
X55050425Y1202825D01*
X95382430Y1202825D01*
X95505565Y915212D01*
X96187734Y655293D01*
X96917443Y676214D01*
X97494435Y915212D01*
X97617570Y1202825D01*
X96500000Y2320395D01*
X95382430Y1202825D01*
X55050425Y1202825D01*
X54385418Y2812266D01*
X94655293Y2812266D01*
X94676214Y2082557D01*
X94915212Y1505565D01*
X95202825Y1382430D01*
X96320395Y2500000D01*
X96679605Y2500000D01*
X97797175Y1382430D01*
X98084788Y1505565D01*
X98344707Y2187734D01*
X98323786Y2917443D01*
X98084788Y3494435D01*
X97797175Y3617570D01*
X96679605Y2500000D01*
X96320395Y2500000D01*
X95202825Y3617570D01*
X94915212Y3494435D01*
X94655293Y2812266D01*
X54385418Y2812266D01*
X54348994Y2900418D01*
X52908004Y4343925D01*
X51024297Y5126108D01*
X48984651Y5127888D01*
X47099582Y4348994D01*
X45656075Y2908004D01*
X44873892Y1024297D01*
X44872112Y-1015349D01*
X34127000Y-1015349D01*
X34127000Y6000000D01*
X83900921Y6000000D01*
X83900921Y4000000D01*
X83979506Y3582359D01*
X84226331Y3198781D01*
X84602944Y2941452D01*
X85050000Y2850921D01*
X86950000Y2850921D01*
X87367641Y2929506D01*
X87658897Y3116924D01*
X88125047Y2923361D01*
X88951328Y2922640D01*
X89714989Y3238178D01*
X90274961Y3797175D01*
X95382430Y3797175D01*
X96500000Y2679605D01*
X97617570Y3797175D01*
X97494435Y4084788D01*
X96812266Y4344707D01*
X96082557Y4323786D01*
X95505565Y4084788D01*
X95382430Y3797175D01*
X90274961Y3797175D01*
X90299768Y3821938D01*
X90616639Y4585047D01*
X90617360Y5411328D01*
X90301822Y6174989D01*
X89718062Y6759768D01*
X88954953Y7076639D01*
X88128672Y7077360D01*
X87655601Y6881891D01*
X87397056Y7058548D01*
X86950000Y7149079D01*
X85050000Y7149079D01*
X84632359Y7070494D01*
X84248781Y6823669D01*
X83991452Y6447056D01*
X83900921Y6000000D01*
X34127000Y6000000D01*
X34127000Y10578871D01*
X79793142Y10578871D01*
X80116199Y9797014D01*
X80713868Y9198301D01*
X81495159Y8873880D01*
X82341129Y8873142D01*
X83122986Y9196199D01*
X83721699Y9793868D01*
X83744108Y9847837D01*
X91107443Y9847837D01*
X91206042Y9581035D01*
X91815582Y9354599D01*
X92465377Y9378659D01*
X92953958Y9581035D01*
X93052557Y9847837D01*
X92080000Y10820395D01*
X91107443Y9847837D01*
X83744108Y9847837D01*
X84046120Y10575159D01*
X84046721Y11264418D01*
X90434599Y11264418D01*
X90458659Y10614623D01*
X90661035Y10126042D01*
X90927837Y10027443D01*
X91900395Y11000000D01*
X92259605Y11000000D01*
X93232163Y10027443D01*
X93498965Y10126042D01*
X93725401Y10735582D01*
X93701341Y11385377D01*
X93498965Y11873958D01*
X93232163Y11972557D01*
X92259605Y11000000D01*
X91900395Y11000000D01*
X90927837Y11972557D01*
X90661035Y11873958D01*
X90434599Y11264418D01*
X84046721Y11264418D01*
X84046858Y11421129D01*
X83744801Y12152163D01*
X91107443Y12152163D01*
X92080000Y11179605D01*
X93052557Y12152163D01*
X92953958Y12418965D01*
X92344418Y12645401D01*
X91694623Y12621341D01*
X91206042Y12418965D01*
X91107443Y12152163D01*
X83744801Y12152163D01*
X83723801Y12202986D01*
X83126132Y12801699D01*
X82344841Y13126120D01*
X81498871Y13126858D01*
X80717014Y12803801D01*
X80118301Y12206132D01*
X79793880Y11424841D01*
X79793142Y10578871D01*
X34127000Y10578871D01*
X34127000Y16899064D01*
X82072606Y16899064D01*
X82418528Y16061868D01*
X83058499Y15420779D01*
X83895090Y15073396D01*
X84800936Y15072606D01*
X85638132Y15418528D01*
X86279221Y16058499D01*
X86626604Y16895090D01*
X86627394Y17800936D01*
X86281472Y18638132D01*
X85641501Y19279221D01*
X84804910Y19626604D01*
X83899064Y19627394D01*
X83061868Y19281472D01*
X82420779Y18641501D01*
X82073396Y17804910D01*
X82072606Y16899064D01*
X34127000Y16899064D01*
X34127000Y22409064D01*
X75662606Y22409064D01*
X76008528Y21571868D01*
X76648499Y20930779D01*
X77485090Y20583396D01*
X78390936Y20582606D01*
X79228132Y20928528D01*
X79869221Y21568499D01*
X80216604Y22405090D01*
X80216685Y22499064D01*
X82072606Y22499064D01*
X82418528Y21661868D01*
X83058499Y21020779D01*
X83895090Y20673396D01*
X84800936Y20672606D01*
X85638132Y21018528D01*
X86279221Y21658499D01*
X86626604Y22495090D01*
X86627173Y23148084D01*
X93222693Y23148084D01*
X93492655Y22494726D01*
X93992096Y21994412D01*
X94644982Y21723310D01*
X95351916Y21722693D01*
X96005274Y21992655D01*
X96505588Y22492096D01*
X96776690Y23144982D01*
X96777307Y23851916D01*
X96507345Y24505274D01*
X96007904Y25005588D01*
X95355018Y25276690D01*
X94648084Y25277307D01*
X93994726Y25007345D01*
X93494412Y24507904D01*
X93223310Y23855018D01*
X93222693Y23148084D01*
X86627173Y23148084D01*
X86627394Y23400936D01*
X86281472Y24238132D01*
X85641501Y24879221D01*
X84804910Y25226604D01*
X83899064Y25227394D01*
X83061868Y24881472D01*
X82420779Y24241501D01*
X82073396Y23404910D01*
X82072606Y22499064D01*
X80216685Y22499064D01*
X80217394Y23310936D01*
X79871472Y24148132D01*
X79231501Y24789221D01*
X78394910Y25136604D01*
X77489064Y25137394D01*
X76651868Y24791472D01*
X76010779Y24151501D01*
X75663396Y23314910D01*
X75662606Y22409064D01*
X34127000Y22409064D01*
X34127000Y27489064D01*
X75662606Y27489064D01*
X76008528Y26651868D01*
X76648499Y26010779D01*
X77485090Y25663396D01*
X78390936Y25662606D01*
X79228132Y26008528D01*
X79869221Y26648499D01*
X80216604Y27485090D01*
X80217139Y28099064D01*
X82072606Y28099064D01*
X82418528Y27261868D01*
X83058499Y26620779D01*
X83895090Y26273396D01*
X84800936Y26272606D01*
X85638132Y26618528D01*
X86279221Y27258499D01*
X86626604Y28095090D01*
X86626650Y28148084D01*
X93222693Y28148084D01*
X93492655Y27494726D01*
X93992096Y26994412D01*
X94644982Y26723310D01*
X95351916Y26722693D01*
X96005274Y26992655D01*
X96505588Y27492096D01*
X96776690Y28144982D01*
X96777307Y28851916D01*
X96507345Y29505274D01*
X96007904Y30005588D01*
X95355018Y30276690D01*
X94648084Y30277307D01*
X93994726Y30007345D01*
X93494412Y29507904D01*
X93223310Y28855018D01*
X93222693Y28148084D01*
X86626650Y28148084D01*
X86627394Y29000936D01*
X86281472Y29838132D01*
X85641501Y30479221D01*
X84804910Y30826604D01*
X83899064Y30827394D01*
X83061868Y30481472D01*
X82420779Y29841501D01*
X82073396Y29004910D01*
X82072606Y28099064D01*
X80217139Y28099064D01*
X80217394Y28390936D01*
X79871472Y29228132D01*
X79231501Y29869221D01*
X78394910Y30216604D01*
X77489064Y30217394D01*
X76651868Y29871472D01*
X76010779Y29231501D01*
X75663396Y28394910D01*
X75662606Y27489064D01*
X34127000Y27489064D01*
X34127000Y32888975D01*
X83268581Y32888975D01*
X83385601Y32606554D01*
X84049663Y32354982D01*
X84759448Y32376686D01*
X85314399Y32606554D01*
X85431419Y32888975D01*
X84350000Y33970395D01*
X83268581Y32888975D01*
X34127000Y32888975D01*
X34127000Y34450337D01*
X82554982Y34450337D01*
X82576686Y33740552D01*
X82806554Y33185601D01*
X83088975Y33068581D01*
X84170395Y34150000D01*
X84529605Y34150000D01*
X85611025Y33068581D01*
X85893446Y33185601D01*
X86145018Y33849663D01*
X86123314Y34559448D01*
X85893446Y35114399D01*
X85611025Y35231419D01*
X84529605Y34150000D01*
X84170395Y34150000D01*
X83088975Y35231419D01*
X82806554Y35114399D01*
X82554982Y34450337D01*
X34127000Y34450337D01*
X34127000Y35411025D01*
X83268581Y35411025D01*
X84350000Y34329605D01*
X85431419Y35411025D01*
X85314399Y35693446D01*
X84650337Y35945018D01*
X83940552Y35923314D01*
X83385601Y35693446D01*
X83268581Y35411025D01*
X34127000Y35411025D01*
X34127000Y37987491D01*
X34271873Y38715814D01*
X34326788Y38798000D01*
X92730060Y38798000D01*
X92523868Y38712803D01*
M02*
