G04 #@! TF.FileFunction,Soldermask,Top*
%FSLAX46Y46*%
G04 Gerber Fmt 4.6, Leading zero omitted, Abs format (unit mm)*
G04 Created by KiCad (PCBNEW 4.0.2-stable) date Monday, August 15, 2016 'AMt' 09:37:36 AM*
%MOMM*%
G01*
G04 APERTURE LIST*
%ADD10C,0.100000*%
%ADD11C,8.400000*%
%ADD12C,2.700000*%
%ADD13C,1.900000*%
%ADD14R,1.900000X1.900000*%
%ADD15O,2.800000X3.800000*%
%ADD16C,3.000000*%
%ADD17C,4.000000*%
%ADD18R,1.598880X1.598880*%
%ADD19C,2.300000*%
%ADD20C,6.900000*%
%ADD21R,1.650000X1.400000*%
%ADD22R,1.700000X1.100000*%
%ADD23C,2.800000*%
%ADD24R,2.500000X1.800000*%
G04 APERTURE END LIST*
D10*
D11*
X153540000Y-98600000D03*
D12*
X125600000Y-78280000D03*
X125600000Y-73200000D03*
X125600000Y-118920000D03*
X125600000Y-124000000D03*
X181480000Y-70660000D03*
X181480000Y-75740000D03*
X181480000Y-126540000D03*
X181480000Y-121460000D03*
D13*
X192700000Y-70750000D03*
D14*
X192700000Y-78250000D03*
D13*
X192700000Y-73250000D03*
D15*
X135500000Y-65040000D03*
X135500000Y-59960000D03*
X125500000Y-65040000D03*
X125500000Y-59960000D03*
X115500000Y-65040000D03*
X115500000Y-59960000D03*
D16*
X119800000Y-93450000D03*
X119800000Y-102500000D03*
X119800000Y-111550000D03*
D17*
X110100000Y-82500000D03*
X110100000Y-122500000D03*
D18*
X187000000Y-104450980D03*
X187000000Y-106549020D03*
X187000000Y-86450980D03*
X187000000Y-88549020D03*
D19*
X107500000Y-74540000D03*
X107500000Y-69460000D03*
D20*
X106500000Y-131500000D03*
X196500000Y-131500000D03*
X106500000Y-61500000D03*
X196500000Y-61500000D03*
D21*
X185000000Y-63250000D03*
X185000000Y-61250000D03*
X167500000Y-61250000D03*
X167500000Y-63250000D03*
X182000000Y-63250000D03*
X182000000Y-61250000D03*
X170500000Y-61250000D03*
X170500000Y-63250000D03*
X170500000Y-131750000D03*
X170500000Y-133750000D03*
X182000000Y-133750000D03*
X182000000Y-131750000D03*
X167500000Y-131750000D03*
X167500000Y-133750000D03*
X185000000Y-133750000D03*
X185000000Y-131750000D03*
D22*
X187000000Y-93800000D03*
X187000000Y-91900000D03*
X187000000Y-101100000D03*
X187000000Y-99200000D03*
D23*
X193100000Y-101750000D03*
X193100000Y-105250000D03*
X193100000Y-98250000D03*
X193100000Y-94750000D03*
X193100000Y-91250000D03*
X193100000Y-87750000D03*
D24*
X188000000Y-60300000D03*
X188000000Y-64700000D03*
X173750000Y-64700000D03*
X173750000Y-60300000D03*
X188000000Y-130050000D03*
X188000000Y-134450000D03*
X164500000Y-134450000D03*
X164500000Y-130050000D03*
X178500000Y-130050000D03*
X178500000Y-134450000D03*
X173750000Y-134450000D03*
X173750000Y-130050000D03*
X178500000Y-60300000D03*
X178500000Y-64700000D03*
X164500000Y-64700000D03*
X164500000Y-60300000D03*
D13*
X192700000Y-114750000D03*
D14*
X192700000Y-122250000D03*
D13*
X192700000Y-117250000D03*
M02*
