G04 #@! TF.FileFunction,Copper,L1,Top,Signal*
%FSLAX46Y46*%
G04 Gerber Fmt 4.6, Leading zero omitted, Abs format (unit mm)*
G04 Created by KiCad (PCBNEW 4.0.2-stable) date Monday, August 15, 2016 'AMt' 09:37:36 AM*
%MOMM*%
G01*
G04 APERTURE LIST*
%ADD10C,0.100000*%
%ADD11C,0.300000*%
%ADD12C,8.000000*%
%ADD13C,2.300000*%
%ADD14C,1.500000*%
%ADD15R,1.500000X1.500000*%
%ADD16C,0.700000*%
%ADD17O,2.400000X3.400000*%
%ADD18C,2.600000*%
%ADD19R,1.198880X1.198880*%
%ADD20C,1.900000*%
%ADD21C,6.500000*%
%ADD22R,1.250000X1.000000*%
%ADD23R,1.300000X0.700000*%
%ADD24C,2.400000*%
%ADD25R,2.100000X1.400000*%
%ADD26C,0.254000*%
G04 APERTURE END LIST*
D10*
D11*
X120428572Y-130478571D02*
X120714286Y-130478571D01*
X120857144Y-130550000D01*
X121000001Y-130692857D01*
X121071429Y-130978571D01*
X121071429Y-131478571D01*
X121000001Y-131764286D01*
X120857144Y-131907143D01*
X120714286Y-131978571D01*
X120428572Y-131978571D01*
X120285715Y-131907143D01*
X120142858Y-131764286D01*
X120071429Y-131478571D01*
X120071429Y-130978571D01*
X120142858Y-130692857D01*
X120285715Y-130550000D01*
X120428572Y-130478571D01*
X121642858Y-131907143D02*
X121785715Y-131978571D01*
X122071430Y-131978571D01*
X122214287Y-131907143D01*
X122285715Y-131764286D01*
X122285715Y-131692857D01*
X122214287Y-131550000D01*
X122071430Y-131478571D01*
X121857144Y-131478571D01*
X121714287Y-131407143D01*
X121642858Y-131264286D01*
X121642858Y-131192857D01*
X121714287Y-131050000D01*
X121857144Y-130978571D01*
X122071430Y-130978571D01*
X122214287Y-131050000D01*
X123500001Y-131907143D02*
X123357144Y-131978571D01*
X123071430Y-131978571D01*
X122928573Y-131907143D01*
X122857144Y-131764286D01*
X122857144Y-131192857D01*
X122928573Y-131050000D01*
X123071430Y-130978571D01*
X123357144Y-130978571D01*
X123500001Y-131050000D01*
X123571430Y-131192857D01*
X123571430Y-131335714D01*
X122857144Y-131478571D01*
X125285715Y-131550000D02*
X126000001Y-131550000D01*
X125142858Y-131978571D02*
X125642858Y-130478571D01*
X126142858Y-131978571D01*
X127285715Y-130978571D02*
X127285715Y-131978571D01*
X126642858Y-130978571D02*
X126642858Y-131764286D01*
X126714286Y-131907143D01*
X126857144Y-131978571D01*
X127071429Y-131978571D01*
X127214286Y-131907143D01*
X127285715Y-131835714D01*
X128642858Y-131978571D02*
X128642858Y-130478571D01*
X128642858Y-131907143D02*
X128500001Y-131978571D01*
X128214287Y-131978571D01*
X128071429Y-131907143D01*
X128000001Y-131835714D01*
X127928572Y-131692857D01*
X127928572Y-131264286D01*
X128000001Y-131121429D01*
X128071429Y-131050000D01*
X128214287Y-130978571D01*
X128500001Y-130978571D01*
X128642858Y-131050000D01*
X129357144Y-131978571D02*
X129357144Y-130978571D01*
X129357144Y-130478571D02*
X129285715Y-130550000D01*
X129357144Y-130621429D01*
X129428572Y-130550000D01*
X129357144Y-130478571D01*
X129357144Y-130621429D01*
X130285716Y-131978571D02*
X130142858Y-131907143D01*
X130071430Y-131835714D01*
X130000001Y-131692857D01*
X130000001Y-131264286D01*
X130071430Y-131121429D01*
X130142858Y-131050000D01*
X130285716Y-130978571D01*
X130500001Y-130978571D01*
X130642858Y-131050000D01*
X130714287Y-131121429D01*
X130785716Y-131264286D01*
X130785716Y-131692857D01*
X130714287Y-131835714D01*
X130642858Y-131907143D01*
X130500001Y-131978571D01*
X130285716Y-131978571D01*
X133285716Y-131978571D02*
X132571430Y-131978571D01*
X132571430Y-130478571D01*
X134428573Y-131978571D02*
X134428573Y-131192857D01*
X134357144Y-131050000D01*
X134214287Y-130978571D01*
X133928573Y-130978571D01*
X133785716Y-131050000D01*
X134428573Y-131907143D02*
X134285716Y-131978571D01*
X133928573Y-131978571D01*
X133785716Y-131907143D01*
X133714287Y-131764286D01*
X133714287Y-131621429D01*
X133785716Y-131478571D01*
X133928573Y-131407143D01*
X134285716Y-131407143D01*
X134428573Y-131335714D01*
X135142859Y-131978571D02*
X135142859Y-130478571D01*
X135142859Y-131050000D02*
X135285716Y-130978571D01*
X135571430Y-130978571D01*
X135714287Y-131050000D01*
X135785716Y-131121429D01*
X135857145Y-131264286D01*
X135857145Y-131692857D01*
X135785716Y-131835714D01*
X135714287Y-131907143D01*
X135571430Y-131978571D01*
X135285716Y-131978571D01*
X135142859Y-131907143D01*
X136428573Y-131907143D02*
X136571430Y-131978571D01*
X136857145Y-131978571D01*
X137000002Y-131907143D01*
X137071430Y-131764286D01*
X137071430Y-131692857D01*
X137000002Y-131550000D01*
X136857145Y-131478571D01*
X136642859Y-131478571D01*
X136500002Y-131407143D01*
X136428573Y-131264286D01*
X136428573Y-131192857D01*
X136500002Y-131050000D01*
X136642859Y-130978571D01*
X136857145Y-130978571D01*
X137000002Y-131050000D01*
X138785716Y-130621429D02*
X138857145Y-130550000D01*
X139000002Y-130478571D01*
X139357145Y-130478571D01*
X139500002Y-130550000D01*
X139571431Y-130621429D01*
X139642859Y-130764286D01*
X139642859Y-130907143D01*
X139571431Y-131121429D01*
X138714288Y-131978571D01*
X139642859Y-131978571D01*
X140571430Y-130478571D02*
X140714287Y-130478571D01*
X140857144Y-130550000D01*
X140928573Y-130621429D01*
X141000002Y-130764286D01*
X141071430Y-131050000D01*
X141071430Y-131407143D01*
X141000002Y-131692857D01*
X140928573Y-131835714D01*
X140857144Y-131907143D01*
X140714287Y-131978571D01*
X140571430Y-131978571D01*
X140428573Y-131907143D01*
X140357144Y-131835714D01*
X140285716Y-131692857D01*
X140214287Y-131407143D01*
X140214287Y-131050000D01*
X140285716Y-130764286D01*
X140357144Y-130621429D01*
X140428573Y-130550000D01*
X140571430Y-130478571D01*
X142500001Y-131978571D02*
X141642858Y-131978571D01*
X142071430Y-131978571D02*
X142071430Y-130478571D01*
X141928573Y-130692857D01*
X141785715Y-130835714D01*
X141642858Y-130907143D01*
X143785715Y-130478571D02*
X143500001Y-130478571D01*
X143357144Y-130550000D01*
X143285715Y-130621429D01*
X143142858Y-130835714D01*
X143071429Y-131121429D01*
X143071429Y-131692857D01*
X143142858Y-131835714D01*
X143214286Y-131907143D01*
X143357144Y-131978571D01*
X143642858Y-131978571D01*
X143785715Y-131907143D01*
X143857144Y-131835714D01*
X143928572Y-131692857D01*
X143928572Y-131335714D01*
X143857144Y-131192857D01*
X143785715Y-131121429D01*
X143642858Y-131050000D01*
X143357144Y-131050000D01*
X143214286Y-131121429D01*
X143142858Y-131192857D01*
X143071429Y-131335714D01*
X118678572Y-132878571D02*
X118678572Y-134092857D01*
X118750000Y-134235714D01*
X118821429Y-134307143D01*
X118964286Y-134378571D01*
X119250000Y-134378571D01*
X119392858Y-134307143D01*
X119464286Y-134235714D01*
X119535715Y-134092857D01*
X119535715Y-132878571D01*
X120250001Y-133378571D02*
X120250001Y-134378571D01*
X120250001Y-133521429D02*
X120321429Y-133450000D01*
X120464287Y-133378571D01*
X120678572Y-133378571D01*
X120821429Y-133450000D01*
X120892858Y-133592857D01*
X120892858Y-134378571D01*
X121607144Y-134378571D02*
X121607144Y-133378571D01*
X121607144Y-133664286D02*
X121678572Y-133521429D01*
X121750001Y-133450000D01*
X121892858Y-133378571D01*
X122035715Y-133378571D01*
X123107143Y-134307143D02*
X122964286Y-134378571D01*
X122678572Y-134378571D01*
X122535715Y-134307143D01*
X122464286Y-134164286D01*
X122464286Y-133592857D01*
X122535715Y-133450000D01*
X122678572Y-133378571D01*
X122964286Y-133378571D01*
X123107143Y-133450000D01*
X123178572Y-133592857D01*
X123178572Y-133735714D01*
X122464286Y-133878571D01*
X124464286Y-133378571D02*
X124464286Y-134592857D01*
X124392857Y-134735714D01*
X124321429Y-134807143D01*
X124178572Y-134878571D01*
X123964286Y-134878571D01*
X123821429Y-134807143D01*
X124464286Y-134307143D02*
X124321429Y-134378571D01*
X124035715Y-134378571D01*
X123892857Y-134307143D01*
X123821429Y-134235714D01*
X123750000Y-134092857D01*
X123750000Y-133664286D01*
X123821429Y-133521429D01*
X123892857Y-133450000D01*
X124035715Y-133378571D01*
X124321429Y-133378571D01*
X124464286Y-133450000D01*
X125821429Y-133378571D02*
X125821429Y-134378571D01*
X125178572Y-133378571D02*
X125178572Y-134164286D01*
X125250000Y-134307143D01*
X125392858Y-134378571D01*
X125607143Y-134378571D01*
X125750000Y-134307143D01*
X125821429Y-134235714D01*
X126750001Y-134378571D02*
X126607143Y-134307143D01*
X126535715Y-134164286D01*
X126535715Y-132878571D01*
X127964286Y-134378571D02*
X127964286Y-133592857D01*
X127892857Y-133450000D01*
X127750000Y-133378571D01*
X127464286Y-133378571D01*
X127321429Y-133450000D01*
X127964286Y-134307143D02*
X127821429Y-134378571D01*
X127464286Y-134378571D01*
X127321429Y-134307143D01*
X127250000Y-134164286D01*
X127250000Y-134021429D01*
X127321429Y-133878571D01*
X127464286Y-133807143D01*
X127821429Y-133807143D01*
X127964286Y-133735714D01*
X128464286Y-133378571D02*
X129035715Y-133378571D01*
X128678572Y-132878571D02*
X128678572Y-134164286D01*
X128750000Y-134307143D01*
X128892858Y-134378571D01*
X129035715Y-134378571D01*
X130107143Y-134307143D02*
X129964286Y-134378571D01*
X129678572Y-134378571D01*
X129535715Y-134307143D01*
X129464286Y-134164286D01*
X129464286Y-133592857D01*
X129535715Y-133450000D01*
X129678572Y-133378571D01*
X129964286Y-133378571D01*
X130107143Y-133450000D01*
X130178572Y-133592857D01*
X130178572Y-133735714D01*
X129464286Y-133878571D01*
X131464286Y-134378571D02*
X131464286Y-132878571D01*
X131464286Y-134307143D02*
X131321429Y-134378571D01*
X131035715Y-134378571D01*
X130892857Y-134307143D01*
X130821429Y-134235714D01*
X130750000Y-134092857D01*
X130750000Y-133664286D01*
X130821429Y-133521429D01*
X130892857Y-133450000D01*
X131035715Y-133378571D01*
X131321429Y-133378571D01*
X131464286Y-133450000D01*
X133321429Y-134378571D02*
X133321429Y-132878571D01*
X133892857Y-132878571D01*
X134035715Y-132950000D01*
X134107143Y-133021429D01*
X134178572Y-133164286D01*
X134178572Y-133378571D01*
X134107143Y-133521429D01*
X134035715Y-133592857D01*
X133892857Y-133664286D01*
X133321429Y-133664286D01*
X134750000Y-134307143D02*
X134964286Y-134378571D01*
X135321429Y-134378571D01*
X135464286Y-134307143D01*
X135535715Y-134235714D01*
X135607143Y-134092857D01*
X135607143Y-133950000D01*
X135535715Y-133807143D01*
X135464286Y-133735714D01*
X135321429Y-133664286D01*
X135035715Y-133592857D01*
X134892857Y-133521429D01*
X134821429Y-133450000D01*
X134750000Y-133307143D01*
X134750000Y-133164286D01*
X134821429Y-133021429D01*
X134892857Y-132950000D01*
X135035715Y-132878571D01*
X135392857Y-132878571D01*
X135607143Y-132950000D01*
X136250000Y-132878571D02*
X136250000Y-134092857D01*
X136321428Y-134235714D01*
X136392857Y-134307143D01*
X136535714Y-134378571D01*
X136821428Y-134378571D01*
X136964286Y-134307143D01*
X137035714Y-134235714D01*
X137107143Y-134092857D01*
X137107143Y-132878571D01*
X139821429Y-134378571D02*
X139321429Y-133664286D01*
X138964286Y-134378571D02*
X138964286Y-132878571D01*
X139535714Y-132878571D01*
X139678572Y-132950000D01*
X139750000Y-133021429D01*
X139821429Y-133164286D01*
X139821429Y-133378571D01*
X139750000Y-133521429D01*
X139678572Y-133592857D01*
X139535714Y-133664286D01*
X138964286Y-133664286D01*
X141035714Y-134307143D02*
X140892857Y-134378571D01*
X140607143Y-134378571D01*
X140464286Y-134307143D01*
X140392857Y-134164286D01*
X140392857Y-133592857D01*
X140464286Y-133450000D01*
X140607143Y-133378571D01*
X140892857Y-133378571D01*
X141035714Y-133450000D01*
X141107143Y-133592857D01*
X141107143Y-133735714D01*
X140392857Y-133878571D01*
X141607143Y-133378571D02*
X141964286Y-134378571D01*
X142321428Y-133378571D01*
X142892857Y-134235714D02*
X142964285Y-134307143D01*
X142892857Y-134378571D01*
X142821428Y-134307143D01*
X142892857Y-134235714D01*
X142892857Y-134378571D01*
X144678571Y-133950000D02*
X145392857Y-133950000D01*
X144535714Y-134378571D02*
X145035714Y-132878571D01*
X145535714Y-134378571D01*
D12*
X153540000Y-98600000D03*
D13*
X125600000Y-78280000D03*
X125600000Y-73200000D03*
X125600000Y-118920000D03*
X125600000Y-124000000D03*
X181480000Y-70660000D03*
X181480000Y-75740000D03*
X181480000Y-126540000D03*
X181480000Y-121460000D03*
D14*
X192700000Y-70750000D03*
D15*
X192700000Y-78250000D03*
D14*
X192700000Y-73250000D03*
D16*
X171500000Y-86500000D03*
X169500000Y-86500000D03*
X167500000Y-86500000D03*
X165500000Y-86500000D03*
X171500000Y-110500000D03*
X169500000Y-110500000D03*
X167500000Y-110500000D03*
X165500000Y-110500000D03*
X182500000Y-98500000D03*
X182500000Y-96500000D03*
X180500000Y-96500000D03*
X180500000Y-98500000D03*
X180500000Y-94500000D03*
X182500000Y-94500000D03*
X178500000Y-94500000D03*
X178500000Y-98500000D03*
X178500000Y-96500000D03*
X165500000Y-112500000D03*
X165500000Y-114500000D03*
X167500000Y-112500000D03*
X167500000Y-114500000D03*
X169500000Y-112500000D03*
X169500000Y-114500000D03*
X171500000Y-112500000D03*
X171500000Y-114500000D03*
X165500000Y-82500000D03*
X165500000Y-84500000D03*
X167500000Y-82500000D03*
X169500000Y-84500000D03*
X167500000Y-84500000D03*
X169500000Y-82500000D03*
X171500000Y-82500000D03*
X171500000Y-84500000D03*
X154500000Y-58500000D03*
X154500000Y-60500000D03*
X154500000Y-62500000D03*
X156500000Y-58500000D03*
X156500000Y-60500000D03*
X158500000Y-62500000D03*
X156500000Y-62500000D03*
X158500000Y-58500000D03*
X158500000Y-60500000D03*
X160500000Y-58500000D03*
X160500000Y-60500000D03*
X160500000Y-62500000D03*
X158500000Y-130500000D03*
X156500000Y-130500000D03*
X154500000Y-130500000D03*
X154500000Y-132500000D03*
X156500000Y-132500000D03*
X158500000Y-132500000D03*
X160500000Y-130500000D03*
X160500000Y-132500000D03*
X160500000Y-134500000D03*
X158500000Y-134500000D03*
X156500000Y-134500000D03*
X154500000Y-134500000D03*
D17*
X135500000Y-65040000D03*
X135500000Y-59960000D03*
X125500000Y-65040000D03*
X125500000Y-59960000D03*
X115500000Y-65040000D03*
X115500000Y-59960000D03*
D18*
X119800000Y-93450000D03*
X119800000Y-102500000D03*
X119800000Y-111550000D03*
D19*
X187000000Y-104450980D03*
X187000000Y-106549020D03*
X187000000Y-86450980D03*
X187000000Y-88549020D03*
D20*
X107500000Y-74540000D03*
X107500000Y-69460000D03*
D21*
X106500000Y-131500000D03*
X196500000Y-131500000D03*
X106500000Y-61500000D03*
X196500000Y-61500000D03*
D22*
X185000000Y-63250000D03*
X185000000Y-61250000D03*
X167500000Y-61250000D03*
X167500000Y-63250000D03*
X182000000Y-63250000D03*
X182000000Y-61250000D03*
X170500000Y-61250000D03*
X170500000Y-63250000D03*
X170500000Y-131750000D03*
X170500000Y-133750000D03*
X182000000Y-133750000D03*
X182000000Y-131750000D03*
X167500000Y-131750000D03*
X167500000Y-133750000D03*
X185000000Y-133750000D03*
X185000000Y-131750000D03*
D23*
X187000000Y-93800000D03*
X187000000Y-91900000D03*
X187000000Y-101100000D03*
X187000000Y-99200000D03*
D24*
X193100000Y-101750000D03*
X193100000Y-105250000D03*
X193100000Y-98250000D03*
X193100000Y-94750000D03*
X193100000Y-91250000D03*
X193100000Y-87750000D03*
D25*
X188000000Y-60300000D03*
X188000000Y-64700000D03*
X173750000Y-64700000D03*
X173750000Y-60300000D03*
X188000000Y-130050000D03*
X188000000Y-134450000D03*
X164500000Y-134450000D03*
X164500000Y-130050000D03*
X178500000Y-130050000D03*
X178500000Y-134450000D03*
X173750000Y-134450000D03*
X173750000Y-130050000D03*
X178500000Y-60300000D03*
X178500000Y-64700000D03*
X164500000Y-64700000D03*
X164500000Y-60300000D03*
D14*
X192700000Y-114750000D03*
D15*
X192700000Y-122250000D03*
D14*
X192700000Y-117250000D03*
D26*
G36*
X194023868Y-57787197D02*
X192791524Y-59017392D01*
X192123762Y-60625541D01*
X192122242Y-62366819D01*
X192787197Y-63976132D01*
X194017392Y-65208476D01*
X195625541Y-65876238D01*
X197366819Y-65877758D01*
X198976132Y-65212803D01*
X200208476Y-63982608D01*
X200373000Y-63586390D01*
X200373000Y-92623000D01*
X194185107Y-92623000D01*
X194217570Y-92547175D01*
X193100000Y-91429605D01*
X191982430Y-92547175D01*
X192014893Y-92623000D01*
X188427000Y-92623000D01*
X188427000Y-90937734D01*
X191255293Y-90937734D01*
X191276214Y-91667443D01*
X191515212Y-92244435D01*
X191802825Y-92367570D01*
X192920395Y-91250000D01*
X193279605Y-91250000D01*
X194397175Y-92367570D01*
X194684788Y-92244435D01*
X194944707Y-91562266D01*
X194923786Y-90832557D01*
X194684788Y-90255565D01*
X194397175Y-90132430D01*
X193279605Y-91250000D01*
X192920395Y-91250000D01*
X191802825Y-90132430D01*
X191515212Y-90255565D01*
X191255293Y-90937734D01*
X188427000Y-90937734D01*
X188427000Y-89047175D01*
X191982430Y-89047175D01*
X192105565Y-89334788D01*
X192521071Y-89493104D01*
X192105565Y-89665212D01*
X191982430Y-89952825D01*
X193100000Y-91070395D01*
X194217570Y-89952825D01*
X194094435Y-89665212D01*
X193678929Y-89506896D01*
X194094435Y-89334788D01*
X194217570Y-89047175D01*
X193100000Y-87929605D01*
X191982430Y-89047175D01*
X188427000Y-89047175D01*
X188427000Y-87600000D01*
X188397798Y-87444804D01*
X188393249Y-87437734D01*
X191255293Y-87437734D01*
X191276214Y-88167443D01*
X191515212Y-88744435D01*
X191802825Y-88867570D01*
X192920395Y-87750000D01*
X193279605Y-87750000D01*
X194397175Y-88867570D01*
X194684788Y-88744435D01*
X194944707Y-88062266D01*
X194923786Y-87332557D01*
X194684788Y-86755565D01*
X194397175Y-86632430D01*
X193279605Y-87750000D01*
X192920395Y-87750000D01*
X191802825Y-86632430D01*
X191515212Y-86755565D01*
X191255293Y-87437734D01*
X188393249Y-87437734D01*
X188306077Y-87302265D01*
X188166127Y-87206642D01*
X188000000Y-87173000D01*
X186000000Y-87173000D01*
X185844804Y-87202202D01*
X185702265Y-87293923D01*
X185606642Y-87433873D01*
X185573000Y-87600000D01*
X185573000Y-92623000D01*
X176377000Y-92623000D01*
X176377000Y-86452825D01*
X191982430Y-86452825D01*
X193100000Y-87570395D01*
X194217570Y-86452825D01*
X194094435Y-86165212D01*
X193412266Y-85905293D01*
X192682557Y-85926214D01*
X192105565Y-86165212D01*
X191982430Y-86452825D01*
X176377000Y-86452825D01*
X176377000Y-78927000D01*
X190000000Y-78927000D01*
X190155196Y-78897798D01*
X190297735Y-78806077D01*
X190393358Y-78666127D01*
X190419760Y-78535750D01*
X191315000Y-78535750D01*
X191315000Y-79126309D01*
X191411673Y-79359698D01*
X191590301Y-79538327D01*
X191823690Y-79635000D01*
X192414250Y-79635000D01*
X192573000Y-79476250D01*
X192573000Y-78377000D01*
X192827000Y-78377000D01*
X192827000Y-79476250D01*
X192985750Y-79635000D01*
X193576310Y-79635000D01*
X193809699Y-79538327D01*
X193988327Y-79359698D01*
X194085000Y-79126309D01*
X194085000Y-78535750D01*
X193926250Y-78377000D01*
X192827000Y-78377000D01*
X192573000Y-78377000D01*
X191473750Y-78377000D01*
X191315000Y-78535750D01*
X190419760Y-78535750D01*
X190427000Y-78500000D01*
X190427000Y-77373691D01*
X191315000Y-77373691D01*
X191315000Y-77964250D01*
X191473750Y-78123000D01*
X192573000Y-78123000D01*
X192573000Y-77023750D01*
X192827000Y-77023750D01*
X192827000Y-78123000D01*
X193926250Y-78123000D01*
X194085000Y-77964250D01*
X194085000Y-77373691D01*
X193988327Y-77140302D01*
X193809699Y-76961673D01*
X193576310Y-76865000D01*
X192985750Y-76865000D01*
X192827000Y-77023750D01*
X192573000Y-77023750D01*
X192414250Y-76865000D01*
X191823690Y-76865000D01*
X191590301Y-76961673D01*
X191411673Y-77140302D01*
X191315000Y-77373691D01*
X190427000Y-77373691D01*
X190427000Y-73483093D01*
X191522796Y-73483093D01*
X191701606Y-73915846D01*
X192032412Y-74247230D01*
X192464853Y-74426795D01*
X192933093Y-74427204D01*
X193365846Y-74248394D01*
X193697230Y-73917588D01*
X193876795Y-73485147D01*
X193877204Y-73016907D01*
X193698394Y-72584154D01*
X193367588Y-72252770D01*
X192935147Y-72073205D01*
X192466907Y-72072796D01*
X192034154Y-72251606D01*
X191702770Y-72582412D01*
X191523205Y-73014853D01*
X191522796Y-73483093D01*
X190427000Y-73483093D01*
X190427000Y-70983093D01*
X191522796Y-70983093D01*
X191701606Y-71415846D01*
X192032412Y-71747230D01*
X192464853Y-71926795D01*
X192933093Y-71927204D01*
X193365846Y-71748394D01*
X193697230Y-71417588D01*
X193876795Y-70985147D01*
X193877204Y-70516907D01*
X193698394Y-70084154D01*
X193367588Y-69752770D01*
X192935147Y-69573205D01*
X192466907Y-69572796D01*
X192034154Y-69751606D01*
X191702770Y-70082412D01*
X191523205Y-70514853D01*
X191522796Y-70983093D01*
X190427000Y-70983093D01*
X190427000Y-62500000D01*
X190397798Y-62344804D01*
X190306077Y-62202265D01*
X190166127Y-62106642D01*
X190000000Y-62073000D01*
X176377000Y-62073000D01*
X176377000Y-57627000D01*
X194411574Y-57627000D01*
X194023868Y-57787197D01*
X194023868Y-57787197D01*
G37*
X194023868Y-57787197D02*
X192791524Y-59017392D01*
X192123762Y-60625541D01*
X192122242Y-62366819D01*
X192787197Y-63976132D01*
X194017392Y-65208476D01*
X195625541Y-65876238D01*
X197366819Y-65877758D01*
X198976132Y-65212803D01*
X200208476Y-63982608D01*
X200373000Y-63586390D01*
X200373000Y-92623000D01*
X194185107Y-92623000D01*
X194217570Y-92547175D01*
X193100000Y-91429605D01*
X191982430Y-92547175D01*
X192014893Y-92623000D01*
X188427000Y-92623000D01*
X188427000Y-90937734D01*
X191255293Y-90937734D01*
X191276214Y-91667443D01*
X191515212Y-92244435D01*
X191802825Y-92367570D01*
X192920395Y-91250000D01*
X193279605Y-91250000D01*
X194397175Y-92367570D01*
X194684788Y-92244435D01*
X194944707Y-91562266D01*
X194923786Y-90832557D01*
X194684788Y-90255565D01*
X194397175Y-90132430D01*
X193279605Y-91250000D01*
X192920395Y-91250000D01*
X191802825Y-90132430D01*
X191515212Y-90255565D01*
X191255293Y-90937734D01*
X188427000Y-90937734D01*
X188427000Y-89047175D01*
X191982430Y-89047175D01*
X192105565Y-89334788D01*
X192521071Y-89493104D01*
X192105565Y-89665212D01*
X191982430Y-89952825D01*
X193100000Y-91070395D01*
X194217570Y-89952825D01*
X194094435Y-89665212D01*
X193678929Y-89506896D01*
X194094435Y-89334788D01*
X194217570Y-89047175D01*
X193100000Y-87929605D01*
X191982430Y-89047175D01*
X188427000Y-89047175D01*
X188427000Y-87600000D01*
X188397798Y-87444804D01*
X188393249Y-87437734D01*
X191255293Y-87437734D01*
X191276214Y-88167443D01*
X191515212Y-88744435D01*
X191802825Y-88867570D01*
X192920395Y-87750000D01*
X193279605Y-87750000D01*
X194397175Y-88867570D01*
X194684788Y-88744435D01*
X194944707Y-88062266D01*
X194923786Y-87332557D01*
X194684788Y-86755565D01*
X194397175Y-86632430D01*
X193279605Y-87750000D01*
X192920395Y-87750000D01*
X191802825Y-86632430D01*
X191515212Y-86755565D01*
X191255293Y-87437734D01*
X188393249Y-87437734D01*
X188306077Y-87302265D01*
X188166127Y-87206642D01*
X188000000Y-87173000D01*
X186000000Y-87173000D01*
X185844804Y-87202202D01*
X185702265Y-87293923D01*
X185606642Y-87433873D01*
X185573000Y-87600000D01*
X185573000Y-92623000D01*
X176377000Y-92623000D01*
X176377000Y-86452825D01*
X191982430Y-86452825D01*
X193100000Y-87570395D01*
X194217570Y-86452825D01*
X194094435Y-86165212D01*
X193412266Y-85905293D01*
X192682557Y-85926214D01*
X192105565Y-86165212D01*
X191982430Y-86452825D01*
X176377000Y-86452825D01*
X176377000Y-78927000D01*
X190000000Y-78927000D01*
X190155196Y-78897798D01*
X190297735Y-78806077D01*
X190393358Y-78666127D01*
X190419760Y-78535750D01*
X191315000Y-78535750D01*
X191315000Y-79126309D01*
X191411673Y-79359698D01*
X191590301Y-79538327D01*
X191823690Y-79635000D01*
X192414250Y-79635000D01*
X192573000Y-79476250D01*
X192573000Y-78377000D01*
X192827000Y-78377000D01*
X192827000Y-79476250D01*
X192985750Y-79635000D01*
X193576310Y-79635000D01*
X193809699Y-79538327D01*
X193988327Y-79359698D01*
X194085000Y-79126309D01*
X194085000Y-78535750D01*
X193926250Y-78377000D01*
X192827000Y-78377000D01*
X192573000Y-78377000D01*
X191473750Y-78377000D01*
X191315000Y-78535750D01*
X190419760Y-78535750D01*
X190427000Y-78500000D01*
X190427000Y-77373691D01*
X191315000Y-77373691D01*
X191315000Y-77964250D01*
X191473750Y-78123000D01*
X192573000Y-78123000D01*
X192573000Y-77023750D01*
X192827000Y-77023750D01*
X192827000Y-78123000D01*
X193926250Y-78123000D01*
X194085000Y-77964250D01*
X194085000Y-77373691D01*
X193988327Y-77140302D01*
X193809699Y-76961673D01*
X193576310Y-76865000D01*
X192985750Y-76865000D01*
X192827000Y-77023750D01*
X192573000Y-77023750D01*
X192414250Y-76865000D01*
X191823690Y-76865000D01*
X191590301Y-76961673D01*
X191411673Y-77140302D01*
X191315000Y-77373691D01*
X190427000Y-77373691D01*
X190427000Y-73483093D01*
X191522796Y-73483093D01*
X191701606Y-73915846D01*
X192032412Y-74247230D01*
X192464853Y-74426795D01*
X192933093Y-74427204D01*
X193365846Y-74248394D01*
X193697230Y-73917588D01*
X193876795Y-73485147D01*
X193877204Y-73016907D01*
X193698394Y-72584154D01*
X193367588Y-72252770D01*
X192935147Y-72073205D01*
X192466907Y-72072796D01*
X192034154Y-72251606D01*
X191702770Y-72582412D01*
X191523205Y-73014853D01*
X191522796Y-73483093D01*
X190427000Y-73483093D01*
X190427000Y-70983093D01*
X191522796Y-70983093D01*
X191701606Y-71415846D01*
X192032412Y-71747230D01*
X192464853Y-71926795D01*
X192933093Y-71927204D01*
X193365846Y-71748394D01*
X193697230Y-71417588D01*
X193876795Y-70985147D01*
X193877204Y-70516907D01*
X193698394Y-70084154D01*
X193367588Y-69752770D01*
X192935147Y-69573205D01*
X192466907Y-69572796D01*
X192034154Y-69751606D01*
X191702770Y-70082412D01*
X191523205Y-70514853D01*
X191522796Y-70983093D01*
X190427000Y-70983093D01*
X190427000Y-62500000D01*
X190397798Y-62344804D01*
X190306077Y-62202265D01*
X190166127Y-62106642D01*
X190000000Y-62073000D01*
X176377000Y-62073000D01*
X176377000Y-57627000D01*
X194411574Y-57627000D01*
X194023868Y-57787197D01*
G36*
X175823000Y-62073000D02*
X162500000Y-62073000D01*
X162344804Y-62102202D01*
X162202265Y-62193923D01*
X162106642Y-62333873D01*
X162073000Y-62500000D01*
X162073000Y-78500000D01*
X162102202Y-78655196D01*
X162193923Y-78797735D01*
X162333873Y-78893358D01*
X162500000Y-78927000D01*
X175823000Y-78927000D01*
X175823000Y-92750000D01*
X175852202Y-92905196D01*
X175943923Y-93047735D01*
X176083873Y-93143358D01*
X176250000Y-93177000D01*
X192100518Y-93177000D01*
X191982430Y-93452825D01*
X193100000Y-94570395D01*
X194217570Y-93452825D01*
X194099482Y-93177000D01*
X200373000Y-93177000D01*
X200373000Y-99823000D01*
X194099482Y-99823000D01*
X194217570Y-99547175D01*
X193100000Y-98429605D01*
X191982430Y-99547175D01*
X192100518Y-99823000D01*
X176250000Y-99823000D01*
X176094804Y-99852202D01*
X175952265Y-99943923D01*
X175856642Y-100083873D01*
X175823000Y-100250000D01*
X175823000Y-118323000D01*
X162500000Y-118323000D01*
X162344804Y-118352202D01*
X162202265Y-118443923D01*
X162106642Y-118583873D01*
X162073000Y-118750000D01*
X162073000Y-132500000D01*
X162102202Y-132655196D01*
X162193923Y-132797735D01*
X162333873Y-132893358D01*
X162500000Y-132927000D01*
X175823000Y-132927000D01*
X175823000Y-135373000D01*
X153627000Y-135373000D01*
X153627000Y-103727078D01*
X154555349Y-103727888D01*
X156440418Y-102948994D01*
X157883925Y-101508004D01*
X158666108Y-99624297D01*
X158667579Y-97937734D01*
X191255293Y-97937734D01*
X191276214Y-98667443D01*
X191515212Y-99244435D01*
X191802825Y-99367570D01*
X192920395Y-98250000D01*
X193279605Y-98250000D01*
X194397175Y-99367570D01*
X194684788Y-99244435D01*
X194944707Y-98562266D01*
X194923786Y-97832557D01*
X194684788Y-97255565D01*
X194397175Y-97132430D01*
X193279605Y-98250000D01*
X192920395Y-98250000D01*
X191802825Y-97132430D01*
X191515212Y-97255565D01*
X191255293Y-97937734D01*
X158667579Y-97937734D01*
X158667888Y-97584651D01*
X158032617Y-96047175D01*
X191982430Y-96047175D01*
X192105565Y-96334788D01*
X192521071Y-96493104D01*
X192105565Y-96665212D01*
X191982430Y-96952825D01*
X193100000Y-98070395D01*
X194217570Y-96952825D01*
X194094435Y-96665212D01*
X193678929Y-96506896D01*
X194094435Y-96334788D01*
X194217570Y-96047175D01*
X193100000Y-94929605D01*
X191982430Y-96047175D01*
X158032617Y-96047175D01*
X157888994Y-95699582D01*
X156629347Y-94437734D01*
X191255293Y-94437734D01*
X191276214Y-95167443D01*
X191515212Y-95744435D01*
X191802825Y-95867570D01*
X192920395Y-94750000D01*
X193279605Y-94750000D01*
X194397175Y-95867570D01*
X194684788Y-95744435D01*
X194944707Y-95062266D01*
X194923786Y-94332557D01*
X194684788Y-93755565D01*
X194397175Y-93632430D01*
X193279605Y-94750000D01*
X192920395Y-94750000D01*
X191802825Y-93632430D01*
X191515212Y-93755565D01*
X191255293Y-94437734D01*
X156629347Y-94437734D01*
X156448004Y-94256075D01*
X154564297Y-93473892D01*
X153627000Y-93473074D01*
X153627000Y-57627000D01*
X175823000Y-57627000D01*
X175823000Y-62073000D01*
X175823000Y-62073000D01*
G37*
X175823000Y-62073000D02*
X162500000Y-62073000D01*
X162344804Y-62102202D01*
X162202265Y-62193923D01*
X162106642Y-62333873D01*
X162073000Y-62500000D01*
X162073000Y-78500000D01*
X162102202Y-78655196D01*
X162193923Y-78797735D01*
X162333873Y-78893358D01*
X162500000Y-78927000D01*
X175823000Y-78927000D01*
X175823000Y-92750000D01*
X175852202Y-92905196D01*
X175943923Y-93047735D01*
X176083873Y-93143358D01*
X176250000Y-93177000D01*
X192100518Y-93177000D01*
X191982430Y-93452825D01*
X193100000Y-94570395D01*
X194217570Y-93452825D01*
X194099482Y-93177000D01*
X200373000Y-93177000D01*
X200373000Y-99823000D01*
X194099482Y-99823000D01*
X194217570Y-99547175D01*
X193100000Y-98429605D01*
X191982430Y-99547175D01*
X192100518Y-99823000D01*
X176250000Y-99823000D01*
X176094804Y-99852202D01*
X175952265Y-99943923D01*
X175856642Y-100083873D01*
X175823000Y-100250000D01*
X175823000Y-118323000D01*
X162500000Y-118323000D01*
X162344804Y-118352202D01*
X162202265Y-118443923D01*
X162106642Y-118583873D01*
X162073000Y-118750000D01*
X162073000Y-132500000D01*
X162102202Y-132655196D01*
X162193923Y-132797735D01*
X162333873Y-132893358D01*
X162500000Y-132927000D01*
X175823000Y-132927000D01*
X175823000Y-135373000D01*
X153627000Y-135373000D01*
X153627000Y-103727078D01*
X154555349Y-103727888D01*
X156440418Y-102948994D01*
X157883925Y-101508004D01*
X158666108Y-99624297D01*
X158667579Y-97937734D01*
X191255293Y-97937734D01*
X191276214Y-98667443D01*
X191515212Y-99244435D01*
X191802825Y-99367570D01*
X192920395Y-98250000D01*
X193279605Y-98250000D01*
X194397175Y-99367570D01*
X194684788Y-99244435D01*
X194944707Y-98562266D01*
X194923786Y-97832557D01*
X194684788Y-97255565D01*
X194397175Y-97132430D01*
X193279605Y-98250000D01*
X192920395Y-98250000D01*
X191802825Y-97132430D01*
X191515212Y-97255565D01*
X191255293Y-97937734D01*
X158667579Y-97937734D01*
X158667888Y-97584651D01*
X158032617Y-96047175D01*
X191982430Y-96047175D01*
X192105565Y-96334788D01*
X192521071Y-96493104D01*
X192105565Y-96665212D01*
X191982430Y-96952825D01*
X193100000Y-98070395D01*
X194217570Y-96952825D01*
X194094435Y-96665212D01*
X193678929Y-96506896D01*
X194094435Y-96334788D01*
X194217570Y-96047175D01*
X193100000Y-94929605D01*
X191982430Y-96047175D01*
X158032617Y-96047175D01*
X157888994Y-95699582D01*
X156629347Y-94437734D01*
X191255293Y-94437734D01*
X191276214Y-95167443D01*
X191515212Y-95744435D01*
X191802825Y-95867570D01*
X192920395Y-94750000D01*
X193279605Y-94750000D01*
X194397175Y-95867570D01*
X194684788Y-95744435D01*
X194944707Y-95062266D01*
X194923786Y-94332557D01*
X194684788Y-93755565D01*
X194397175Y-93632430D01*
X193279605Y-94750000D01*
X192920395Y-94750000D01*
X191802825Y-93632430D01*
X191515212Y-93755565D01*
X191255293Y-94437734D01*
X156629347Y-94437734D01*
X156448004Y-94256075D01*
X154564297Y-93473892D01*
X153627000Y-93473074D01*
X153627000Y-57627000D01*
X175823000Y-57627000D01*
X175823000Y-62073000D01*
G36*
X185573000Y-105300000D02*
X185602202Y-105455196D01*
X185693923Y-105597735D01*
X185833873Y-105693358D01*
X186000000Y-105727000D01*
X188000000Y-105727000D01*
X188155196Y-105697798D01*
X188297735Y-105606077D01*
X188393358Y-105466127D01*
X188427000Y-105300000D01*
X188427000Y-104937734D01*
X191255293Y-104937734D01*
X191276214Y-105667443D01*
X191515212Y-106244435D01*
X191802825Y-106367570D01*
X192920395Y-105250000D01*
X193279605Y-105250000D01*
X194397175Y-106367570D01*
X194684788Y-106244435D01*
X194944707Y-105562266D01*
X194923786Y-104832557D01*
X194684788Y-104255565D01*
X194397175Y-104132430D01*
X193279605Y-105250000D01*
X192920395Y-105250000D01*
X191802825Y-104132430D01*
X191515212Y-104255565D01*
X191255293Y-104937734D01*
X188427000Y-104937734D01*
X188427000Y-103047175D01*
X191982430Y-103047175D01*
X192105565Y-103334788D01*
X192521071Y-103493104D01*
X192105565Y-103665212D01*
X191982430Y-103952825D01*
X193100000Y-105070395D01*
X194217570Y-103952825D01*
X194094435Y-103665212D01*
X193678929Y-103506896D01*
X194094435Y-103334788D01*
X194217570Y-103047175D01*
X193100000Y-101929605D01*
X191982430Y-103047175D01*
X188427000Y-103047175D01*
X188427000Y-101437734D01*
X191255293Y-101437734D01*
X191276214Y-102167443D01*
X191515212Y-102744435D01*
X191802825Y-102867570D01*
X192920395Y-101750000D01*
X193279605Y-101750000D01*
X194397175Y-102867570D01*
X194684788Y-102744435D01*
X194944707Y-102062266D01*
X194923786Y-101332557D01*
X194684788Y-100755565D01*
X194397175Y-100632430D01*
X193279605Y-101750000D01*
X192920395Y-101750000D01*
X191802825Y-100632430D01*
X191515212Y-100755565D01*
X191255293Y-101437734D01*
X188427000Y-101437734D01*
X188427000Y-100377000D01*
X192014893Y-100377000D01*
X191982430Y-100452825D01*
X193100000Y-101570395D01*
X194217570Y-100452825D01*
X194185107Y-100377000D01*
X200373000Y-100377000D01*
X200373000Y-129411574D01*
X200212803Y-129023868D01*
X198982608Y-127791524D01*
X197374459Y-127123762D01*
X195633181Y-127122242D01*
X194023868Y-127787197D01*
X192791524Y-129017392D01*
X192123762Y-130625541D01*
X192122242Y-132366819D01*
X192787197Y-133976132D01*
X194017392Y-135208476D01*
X194413610Y-135373000D01*
X176377000Y-135373000D01*
X176377000Y-132927000D01*
X190000000Y-132927000D01*
X190155196Y-132897798D01*
X190297735Y-132806077D01*
X190393358Y-132666127D01*
X190427000Y-132500000D01*
X190427000Y-121500000D01*
X191514635Y-121500000D01*
X191514635Y-123000000D01*
X191544409Y-123158237D01*
X191637927Y-123303567D01*
X191780619Y-123401064D01*
X191950000Y-123435365D01*
X193450000Y-123435365D01*
X193608237Y-123405591D01*
X193753567Y-123312073D01*
X193851064Y-123169381D01*
X193885365Y-123000000D01*
X193885365Y-121500000D01*
X193855591Y-121341763D01*
X193762073Y-121196433D01*
X193619381Y-121098936D01*
X193450000Y-121064635D01*
X191950000Y-121064635D01*
X191791763Y-121094409D01*
X191646433Y-121187927D01*
X191548936Y-121330619D01*
X191514635Y-121500000D01*
X190427000Y-121500000D01*
X190427000Y-118750000D01*
X190397798Y-118594804D01*
X190306077Y-118452265D01*
X190166127Y-118356642D01*
X190000000Y-118323000D01*
X176377000Y-118323000D01*
X176377000Y-118221517D01*
X191908088Y-118221517D01*
X191976077Y-118462460D01*
X192495171Y-118647201D01*
X193045448Y-118619230D01*
X193423923Y-118462460D01*
X193491912Y-118221517D01*
X192700000Y-117429605D01*
X191908088Y-118221517D01*
X176377000Y-118221517D01*
X176377000Y-117045171D01*
X191302799Y-117045171D01*
X191330770Y-117595448D01*
X191487540Y-117973923D01*
X191728483Y-118041912D01*
X192520395Y-117250000D01*
X192879605Y-117250000D01*
X193671517Y-118041912D01*
X193912460Y-117973923D01*
X194097201Y-117454829D01*
X194069230Y-116904552D01*
X193912460Y-116526077D01*
X193671517Y-116458088D01*
X192879605Y-117250000D01*
X192520395Y-117250000D01*
X191728483Y-116458088D01*
X191487540Y-116526077D01*
X191302799Y-117045171D01*
X176377000Y-117045171D01*
X176377000Y-115721517D01*
X191908088Y-115721517D01*
X191976077Y-115962460D01*
X192073570Y-115997157D01*
X191976077Y-116037540D01*
X191908088Y-116278483D01*
X192700000Y-117070395D01*
X193491912Y-116278483D01*
X193423923Y-116037540D01*
X193326430Y-116002843D01*
X193423923Y-115962460D01*
X193491912Y-115721517D01*
X192700000Y-114929605D01*
X191908088Y-115721517D01*
X176377000Y-115721517D01*
X176377000Y-114545171D01*
X191302799Y-114545171D01*
X191330770Y-115095448D01*
X191487540Y-115473923D01*
X191728483Y-115541912D01*
X192520395Y-114750000D01*
X192879605Y-114750000D01*
X193671517Y-115541912D01*
X193912460Y-115473923D01*
X194097201Y-114954829D01*
X194069230Y-114404552D01*
X193912460Y-114026077D01*
X193671517Y-113958088D01*
X192879605Y-114750000D01*
X192520395Y-114750000D01*
X191728483Y-113958088D01*
X191487540Y-114026077D01*
X191302799Y-114545171D01*
X176377000Y-114545171D01*
X176377000Y-113778483D01*
X191908088Y-113778483D01*
X192700000Y-114570395D01*
X193491912Y-113778483D01*
X193423923Y-113537540D01*
X192904829Y-113352799D01*
X192354552Y-113380770D01*
X191976077Y-113537540D01*
X191908088Y-113778483D01*
X176377000Y-113778483D01*
X176377000Y-106547175D01*
X191982430Y-106547175D01*
X192105565Y-106834788D01*
X192787734Y-107094707D01*
X193517443Y-107073786D01*
X194094435Y-106834788D01*
X194217570Y-106547175D01*
X193100000Y-105429605D01*
X191982430Y-106547175D01*
X176377000Y-106547175D01*
X176377000Y-100377000D01*
X185573000Y-100377000D01*
X185573000Y-105300000D01*
X185573000Y-105300000D01*
G37*
X185573000Y-105300000D02*
X185602202Y-105455196D01*
X185693923Y-105597735D01*
X185833873Y-105693358D01*
X186000000Y-105727000D01*
X188000000Y-105727000D01*
X188155196Y-105697798D01*
X188297735Y-105606077D01*
X188393358Y-105466127D01*
X188427000Y-105300000D01*
X188427000Y-104937734D01*
X191255293Y-104937734D01*
X191276214Y-105667443D01*
X191515212Y-106244435D01*
X191802825Y-106367570D01*
X192920395Y-105250000D01*
X193279605Y-105250000D01*
X194397175Y-106367570D01*
X194684788Y-106244435D01*
X194944707Y-105562266D01*
X194923786Y-104832557D01*
X194684788Y-104255565D01*
X194397175Y-104132430D01*
X193279605Y-105250000D01*
X192920395Y-105250000D01*
X191802825Y-104132430D01*
X191515212Y-104255565D01*
X191255293Y-104937734D01*
X188427000Y-104937734D01*
X188427000Y-103047175D01*
X191982430Y-103047175D01*
X192105565Y-103334788D01*
X192521071Y-103493104D01*
X192105565Y-103665212D01*
X191982430Y-103952825D01*
X193100000Y-105070395D01*
X194217570Y-103952825D01*
X194094435Y-103665212D01*
X193678929Y-103506896D01*
X194094435Y-103334788D01*
X194217570Y-103047175D01*
X193100000Y-101929605D01*
X191982430Y-103047175D01*
X188427000Y-103047175D01*
X188427000Y-101437734D01*
X191255293Y-101437734D01*
X191276214Y-102167443D01*
X191515212Y-102744435D01*
X191802825Y-102867570D01*
X192920395Y-101750000D01*
X193279605Y-101750000D01*
X194397175Y-102867570D01*
X194684788Y-102744435D01*
X194944707Y-102062266D01*
X194923786Y-101332557D01*
X194684788Y-100755565D01*
X194397175Y-100632430D01*
X193279605Y-101750000D01*
X192920395Y-101750000D01*
X191802825Y-100632430D01*
X191515212Y-100755565D01*
X191255293Y-101437734D01*
X188427000Y-101437734D01*
X188427000Y-100377000D01*
X192014893Y-100377000D01*
X191982430Y-100452825D01*
X193100000Y-101570395D01*
X194217570Y-100452825D01*
X194185107Y-100377000D01*
X200373000Y-100377000D01*
X200373000Y-129411574D01*
X200212803Y-129023868D01*
X198982608Y-127791524D01*
X197374459Y-127123762D01*
X195633181Y-127122242D01*
X194023868Y-127787197D01*
X192791524Y-129017392D01*
X192123762Y-130625541D01*
X192122242Y-132366819D01*
X192787197Y-133976132D01*
X194017392Y-135208476D01*
X194413610Y-135373000D01*
X176377000Y-135373000D01*
X176377000Y-132927000D01*
X190000000Y-132927000D01*
X190155196Y-132897798D01*
X190297735Y-132806077D01*
X190393358Y-132666127D01*
X190427000Y-132500000D01*
X190427000Y-121500000D01*
X191514635Y-121500000D01*
X191514635Y-123000000D01*
X191544409Y-123158237D01*
X191637927Y-123303567D01*
X191780619Y-123401064D01*
X191950000Y-123435365D01*
X193450000Y-123435365D01*
X193608237Y-123405591D01*
X193753567Y-123312073D01*
X193851064Y-123169381D01*
X193885365Y-123000000D01*
X193885365Y-121500000D01*
X193855591Y-121341763D01*
X193762073Y-121196433D01*
X193619381Y-121098936D01*
X193450000Y-121064635D01*
X191950000Y-121064635D01*
X191791763Y-121094409D01*
X191646433Y-121187927D01*
X191548936Y-121330619D01*
X191514635Y-121500000D01*
X190427000Y-121500000D01*
X190427000Y-118750000D01*
X190397798Y-118594804D01*
X190306077Y-118452265D01*
X190166127Y-118356642D01*
X190000000Y-118323000D01*
X176377000Y-118323000D01*
X176377000Y-118221517D01*
X191908088Y-118221517D01*
X191976077Y-118462460D01*
X192495171Y-118647201D01*
X193045448Y-118619230D01*
X193423923Y-118462460D01*
X193491912Y-118221517D01*
X192700000Y-117429605D01*
X191908088Y-118221517D01*
X176377000Y-118221517D01*
X176377000Y-117045171D01*
X191302799Y-117045171D01*
X191330770Y-117595448D01*
X191487540Y-117973923D01*
X191728483Y-118041912D01*
X192520395Y-117250000D01*
X192879605Y-117250000D01*
X193671517Y-118041912D01*
X193912460Y-117973923D01*
X194097201Y-117454829D01*
X194069230Y-116904552D01*
X193912460Y-116526077D01*
X193671517Y-116458088D01*
X192879605Y-117250000D01*
X192520395Y-117250000D01*
X191728483Y-116458088D01*
X191487540Y-116526077D01*
X191302799Y-117045171D01*
X176377000Y-117045171D01*
X176377000Y-115721517D01*
X191908088Y-115721517D01*
X191976077Y-115962460D01*
X192073570Y-115997157D01*
X191976077Y-116037540D01*
X191908088Y-116278483D01*
X192700000Y-117070395D01*
X193491912Y-116278483D01*
X193423923Y-116037540D01*
X193326430Y-116002843D01*
X193423923Y-115962460D01*
X193491912Y-115721517D01*
X192700000Y-114929605D01*
X191908088Y-115721517D01*
X176377000Y-115721517D01*
X176377000Y-114545171D01*
X191302799Y-114545171D01*
X191330770Y-115095448D01*
X191487540Y-115473923D01*
X191728483Y-115541912D01*
X192520395Y-114750000D01*
X192879605Y-114750000D01*
X193671517Y-115541912D01*
X193912460Y-115473923D01*
X194097201Y-114954829D01*
X194069230Y-114404552D01*
X193912460Y-114026077D01*
X193671517Y-113958088D01*
X192879605Y-114750000D01*
X192520395Y-114750000D01*
X191728483Y-113958088D01*
X191487540Y-114026077D01*
X191302799Y-114545171D01*
X176377000Y-114545171D01*
X176377000Y-113778483D01*
X191908088Y-113778483D01*
X192700000Y-114570395D01*
X193491912Y-113778483D01*
X193423923Y-113537540D01*
X192904829Y-113352799D01*
X192354552Y-113380770D01*
X191976077Y-113537540D01*
X191908088Y-113778483D01*
X176377000Y-113778483D01*
X176377000Y-106547175D01*
X191982430Y-106547175D01*
X192105565Y-106834788D01*
X192787734Y-107094707D01*
X193517443Y-107073786D01*
X194094435Y-106834788D01*
X194217570Y-106547175D01*
X193100000Y-105429605D01*
X191982430Y-106547175D01*
X176377000Y-106547175D01*
X176377000Y-100377000D01*
X185573000Y-100377000D01*
X185573000Y-105300000D01*
G36*
X168573000Y-72750000D02*
X168602202Y-72905196D01*
X168693923Y-73047735D01*
X168833873Y-73143358D01*
X169000000Y-73177000D01*
X183500000Y-73177000D01*
X183655196Y-73147798D01*
X183797735Y-73056077D01*
X183893358Y-72916127D01*
X183927000Y-72750000D01*
X183927000Y-62627000D01*
X189873000Y-62627000D01*
X189873000Y-78373000D01*
X162627000Y-78373000D01*
X162627000Y-77001025D01*
X180398581Y-77001025D01*
X180515601Y-77283446D01*
X181179663Y-77535018D01*
X181889448Y-77513314D01*
X182444399Y-77283446D01*
X182561419Y-77001025D01*
X181480000Y-75919605D01*
X180398581Y-77001025D01*
X162627000Y-77001025D01*
X162627000Y-75439663D01*
X179684982Y-75439663D01*
X179706686Y-76149448D01*
X179936554Y-76704399D01*
X180218975Y-76821419D01*
X181300395Y-75740000D01*
X181659605Y-75740000D01*
X182741025Y-76821419D01*
X183023446Y-76704399D01*
X183275018Y-76040337D01*
X183253314Y-75330552D01*
X183023446Y-74775601D01*
X182741025Y-74658581D01*
X181659605Y-75740000D01*
X181300395Y-75740000D01*
X180218975Y-74658581D01*
X179936554Y-74775601D01*
X179684982Y-75439663D01*
X162627000Y-75439663D01*
X162627000Y-74478975D01*
X180398581Y-74478975D01*
X181480000Y-75560395D01*
X182561419Y-74478975D01*
X182444399Y-74196554D01*
X181780337Y-73944982D01*
X181070552Y-73966686D01*
X180515601Y-74196554D01*
X180398581Y-74478975D01*
X162627000Y-74478975D01*
X162627000Y-62627000D01*
X168573000Y-62627000D01*
X168573000Y-72750000D01*
X168573000Y-72750000D01*
G37*
X168573000Y-72750000D02*
X168602202Y-72905196D01*
X168693923Y-73047735D01*
X168833873Y-73143358D01*
X169000000Y-73177000D01*
X183500000Y-73177000D01*
X183655196Y-73147798D01*
X183797735Y-73056077D01*
X183893358Y-72916127D01*
X183927000Y-72750000D01*
X183927000Y-62627000D01*
X189873000Y-62627000D01*
X189873000Y-78373000D01*
X162627000Y-78373000D01*
X162627000Y-77001025D01*
X180398581Y-77001025D01*
X180515601Y-77283446D01*
X181179663Y-77535018D01*
X181889448Y-77513314D01*
X182444399Y-77283446D01*
X182561419Y-77001025D01*
X181480000Y-75919605D01*
X180398581Y-77001025D01*
X162627000Y-77001025D01*
X162627000Y-75439663D01*
X179684982Y-75439663D01*
X179706686Y-76149448D01*
X179936554Y-76704399D01*
X180218975Y-76821419D01*
X181300395Y-75740000D01*
X181659605Y-75740000D01*
X182741025Y-76821419D01*
X183023446Y-76704399D01*
X183275018Y-76040337D01*
X183253314Y-75330552D01*
X183023446Y-74775601D01*
X182741025Y-74658581D01*
X181659605Y-75740000D01*
X181300395Y-75740000D01*
X180218975Y-74658581D01*
X179936554Y-74775601D01*
X179684982Y-75439663D01*
X162627000Y-75439663D01*
X162627000Y-74478975D01*
X180398581Y-74478975D01*
X181480000Y-75560395D01*
X182561419Y-74478975D01*
X182444399Y-74196554D01*
X181780337Y-73944982D01*
X181070552Y-73966686D01*
X180515601Y-74196554D01*
X180398581Y-74478975D01*
X162627000Y-74478975D01*
X162627000Y-62627000D01*
X168573000Y-62627000D01*
X168573000Y-72750000D01*
G36*
X187873000Y-92573000D02*
X186127000Y-92573000D01*
X186127000Y-87727000D01*
X187873000Y-87727000D01*
X187873000Y-92573000D01*
X187873000Y-92573000D01*
G37*
X187873000Y-92573000D02*
X186127000Y-92573000D01*
X186127000Y-87727000D01*
X187873000Y-87727000D01*
X187873000Y-92573000D01*
G36*
X187873000Y-105173000D02*
X186127000Y-105173000D01*
X186127000Y-100427000D01*
X187873000Y-100427000D01*
X187873000Y-105173000D01*
X187873000Y-105173000D01*
G37*
X187873000Y-105173000D02*
X186127000Y-105173000D01*
X186127000Y-100427000D01*
X187873000Y-100427000D01*
X187873000Y-105173000D01*
G36*
X183373000Y-132373000D02*
X169127000Y-132373000D01*
X169127000Y-127801025D01*
X180398581Y-127801025D01*
X180515601Y-128083446D01*
X181179663Y-128335018D01*
X181889448Y-128313314D01*
X182444399Y-128083446D01*
X182561419Y-127801025D01*
X181480000Y-126719605D01*
X180398581Y-127801025D01*
X169127000Y-127801025D01*
X169127000Y-126239663D01*
X179684982Y-126239663D01*
X179706686Y-126949448D01*
X179936554Y-127504399D01*
X180218975Y-127621419D01*
X181300395Y-126540000D01*
X181659605Y-126540000D01*
X182741025Y-127621419D01*
X183023446Y-127504399D01*
X183275018Y-126840337D01*
X183253314Y-126130552D01*
X183023446Y-125575601D01*
X182741025Y-125458581D01*
X181659605Y-126540000D01*
X181300395Y-126540000D01*
X180218975Y-125458581D01*
X179936554Y-125575601D01*
X179684982Y-126239663D01*
X169127000Y-126239663D01*
X169127000Y-125278975D01*
X180398581Y-125278975D01*
X181480000Y-126360395D01*
X182561419Y-125278975D01*
X182444399Y-124996554D01*
X181780337Y-124744982D01*
X181070552Y-124766686D01*
X180515601Y-124996554D01*
X180398581Y-125278975D01*
X169127000Y-125278975D01*
X169127000Y-124627000D01*
X183373000Y-124627000D01*
X183373000Y-132373000D01*
X183373000Y-132373000D01*
G37*
X183373000Y-132373000D02*
X169127000Y-132373000D01*
X169127000Y-127801025D01*
X180398581Y-127801025D01*
X180515601Y-128083446D01*
X181179663Y-128335018D01*
X181889448Y-128313314D01*
X182444399Y-128083446D01*
X182561419Y-127801025D01*
X181480000Y-126719605D01*
X180398581Y-127801025D01*
X169127000Y-127801025D01*
X169127000Y-126239663D01*
X179684982Y-126239663D01*
X179706686Y-126949448D01*
X179936554Y-127504399D01*
X180218975Y-127621419D01*
X181300395Y-126540000D01*
X181659605Y-126540000D01*
X182741025Y-127621419D01*
X183023446Y-127504399D01*
X183275018Y-126840337D01*
X183253314Y-126130552D01*
X183023446Y-125575601D01*
X182741025Y-125458581D01*
X181659605Y-126540000D01*
X181300395Y-126540000D01*
X180218975Y-125458581D01*
X179936554Y-125575601D01*
X179684982Y-126239663D01*
X169127000Y-126239663D01*
X169127000Y-125278975D01*
X180398581Y-125278975D01*
X181480000Y-126360395D01*
X182561419Y-125278975D01*
X182444399Y-124996554D01*
X181780337Y-124744982D01*
X181070552Y-124766686D01*
X180515601Y-124996554D01*
X180398581Y-125278975D01*
X169127000Y-125278975D01*
X169127000Y-124627000D01*
X183373000Y-124627000D01*
X183373000Y-132373000D01*
G36*
X189873000Y-132373000D02*
X183927000Y-132373000D01*
X183927000Y-124500000D01*
X183897798Y-124344804D01*
X183806077Y-124202265D01*
X183666127Y-124106642D01*
X183500000Y-124073000D01*
X169000000Y-124073000D01*
X168844804Y-124102202D01*
X168702265Y-124193923D01*
X168606642Y-124333873D01*
X168573000Y-124500000D01*
X168573000Y-132373000D01*
X162627000Y-132373000D01*
X162627000Y-122721025D01*
X180398581Y-122721025D01*
X180515601Y-123003446D01*
X181179663Y-123255018D01*
X181889448Y-123233314D01*
X182444399Y-123003446D01*
X182561419Y-122721025D01*
X181480000Y-121639605D01*
X180398581Y-122721025D01*
X162627000Y-122721025D01*
X162627000Y-121159663D01*
X179684982Y-121159663D01*
X179706686Y-121869448D01*
X179936554Y-122424399D01*
X180218975Y-122541419D01*
X181300395Y-121460000D01*
X181659605Y-121460000D01*
X182741025Y-122541419D01*
X183023446Y-122424399D01*
X183275018Y-121760337D01*
X183253314Y-121050552D01*
X183023446Y-120495601D01*
X182741025Y-120378581D01*
X181659605Y-121460000D01*
X181300395Y-121460000D01*
X180218975Y-120378581D01*
X179936554Y-120495601D01*
X179684982Y-121159663D01*
X162627000Y-121159663D01*
X162627000Y-120198975D01*
X180398581Y-120198975D01*
X181480000Y-121280395D01*
X182561419Y-120198975D01*
X182444399Y-119916554D01*
X181780337Y-119664982D01*
X181070552Y-119686686D01*
X180515601Y-119916554D01*
X180398581Y-120198975D01*
X162627000Y-120198975D01*
X162627000Y-118877000D01*
X189873000Y-118877000D01*
X189873000Y-132373000D01*
X189873000Y-132373000D01*
G37*
X189873000Y-132373000D02*
X183927000Y-132373000D01*
X183927000Y-124500000D01*
X183897798Y-124344804D01*
X183806077Y-124202265D01*
X183666127Y-124106642D01*
X183500000Y-124073000D01*
X169000000Y-124073000D01*
X168844804Y-124102202D01*
X168702265Y-124193923D01*
X168606642Y-124333873D01*
X168573000Y-124500000D01*
X168573000Y-132373000D01*
X162627000Y-132373000D01*
X162627000Y-122721025D01*
X180398581Y-122721025D01*
X180515601Y-123003446D01*
X181179663Y-123255018D01*
X181889448Y-123233314D01*
X182444399Y-123003446D01*
X182561419Y-122721025D01*
X181480000Y-121639605D01*
X180398581Y-122721025D01*
X162627000Y-122721025D01*
X162627000Y-121159663D01*
X179684982Y-121159663D01*
X179706686Y-121869448D01*
X179936554Y-122424399D01*
X180218975Y-122541419D01*
X181300395Y-121460000D01*
X181659605Y-121460000D01*
X182741025Y-122541419D01*
X183023446Y-122424399D01*
X183275018Y-121760337D01*
X183253314Y-121050552D01*
X183023446Y-120495601D01*
X182741025Y-120378581D01*
X181659605Y-121460000D01*
X181300395Y-121460000D01*
X180218975Y-120378581D01*
X179936554Y-120495601D01*
X179684982Y-121159663D01*
X162627000Y-121159663D01*
X162627000Y-120198975D01*
X180398581Y-120198975D01*
X181480000Y-121280395D01*
X182561419Y-120198975D01*
X182444399Y-119916554D01*
X181780337Y-119664982D01*
X181070552Y-119686686D01*
X180515601Y-119916554D01*
X180398581Y-120198975D01*
X162627000Y-120198975D01*
X162627000Y-118877000D01*
X189873000Y-118877000D01*
X189873000Y-132373000D01*
G36*
X183373000Y-72623000D02*
X169127000Y-72623000D01*
X169127000Y-71921025D01*
X180398581Y-71921025D01*
X180515601Y-72203446D01*
X181179663Y-72455018D01*
X181889448Y-72433314D01*
X182444399Y-72203446D01*
X182561419Y-71921025D01*
X181480000Y-70839605D01*
X180398581Y-71921025D01*
X169127000Y-71921025D01*
X169127000Y-70359663D01*
X179684982Y-70359663D01*
X179706686Y-71069448D01*
X179936554Y-71624399D01*
X180218975Y-71741419D01*
X181300395Y-70660000D01*
X181659605Y-70660000D01*
X182741025Y-71741419D01*
X183023446Y-71624399D01*
X183275018Y-70960337D01*
X183253314Y-70250552D01*
X183023446Y-69695601D01*
X182741025Y-69578581D01*
X181659605Y-70660000D01*
X181300395Y-70660000D01*
X180218975Y-69578581D01*
X179936554Y-69695601D01*
X179684982Y-70359663D01*
X169127000Y-70359663D01*
X169127000Y-69398975D01*
X180398581Y-69398975D01*
X181480000Y-70480395D01*
X182561419Y-69398975D01*
X182444399Y-69116554D01*
X181780337Y-68864982D01*
X181070552Y-68886686D01*
X180515601Y-69116554D01*
X180398581Y-69398975D01*
X169127000Y-69398975D01*
X169127000Y-62627000D01*
X183373000Y-62627000D01*
X183373000Y-72623000D01*
X183373000Y-72623000D01*
G37*
X183373000Y-72623000D02*
X169127000Y-72623000D01*
X169127000Y-71921025D01*
X180398581Y-71921025D01*
X180515601Y-72203446D01*
X181179663Y-72455018D01*
X181889448Y-72433314D01*
X182444399Y-72203446D01*
X182561419Y-71921025D01*
X181480000Y-70839605D01*
X180398581Y-71921025D01*
X169127000Y-71921025D01*
X169127000Y-70359663D01*
X179684982Y-70359663D01*
X179706686Y-71069448D01*
X179936554Y-71624399D01*
X180218975Y-71741419D01*
X181300395Y-70660000D01*
X181659605Y-70660000D01*
X182741025Y-71741419D01*
X183023446Y-71624399D01*
X183275018Y-70960337D01*
X183253314Y-70250552D01*
X183023446Y-69695601D01*
X182741025Y-69578581D01*
X181659605Y-70660000D01*
X181300395Y-70660000D01*
X180218975Y-69578581D01*
X179936554Y-69695601D01*
X179684982Y-70359663D01*
X169127000Y-70359663D01*
X169127000Y-69398975D01*
X180398581Y-69398975D01*
X181480000Y-70480395D01*
X182561419Y-69398975D01*
X182444399Y-69116554D01*
X181780337Y-68864982D01*
X181070552Y-68886686D01*
X180515601Y-69116554D01*
X180398581Y-69398975D01*
X169127000Y-69398975D01*
X169127000Y-62627000D01*
X183373000Y-62627000D01*
X183373000Y-72623000D01*
M02*
